<svg width="416.697" height="326.695" viewBox="0 0 110.251 86.438" xmlns="http://www.w3.org/2000/svg">
  <path fill="none" stroke-width=".05mm" stroke="#000" d="M105.251 81.438H5V5h100.251z"/>
  <path fill="none" stroke-width=".05mm" stroke="#000" d="M67.175 62.412v1h-.8v3.1h.8v5.8h-.8v3.1h.8v1h14v-1h.8v-3.1h-.8v-5.8h.8v-3.1h-.8v-1zM86.225 62.412v1h-.8v3.1h.8v5.8h-.8v3.1h.8v1h14v-1h.8v-3.1h-.8v-5.8h.8v-3.1h-.8v-1zM10.024 38.599v1h-.8v3.1h.8v5.8h-.8v3.1h.8v1h14.001v-1h.8v-3.1h-.8v-5.8h.8v-3.1h-.8v-1zM29.075 33.837v1h-.8v3.1h.8v5.8h-.8v3.1h.8v1h14v-1h.8v-3.1h-.8v-5.8h.8v-3.1h-.8v-1zM67.175 33.837v1h-.8v3.1h.8v5.8h-.8v3.1h.8v1h14v-1h.8v-3.1h-.8v-5.8h.8v-3.1h-.8v-1zM48.125 29.074v1h-.8v3.101h.8v5.799h-.8v3.1h.8v1h14v-1h.8v-3.1h-.8v-5.799h.8v-3.101h-.8v-1zM10.024 19.549v1h-.8v3.101h.8v5.799h-.8v3.1h.8v1.001h14.001v-1.001h.8v-3.1h-.8V23.65h.8v-3.101h-.8v-1zM29.075 14.787v1h-.8v3.1h.8v5.8h-.8v3.1h.8v1h14v-1h.8v-3.1h-.8v-5.8h.8v-3.1h-.8v-1zM67.175 14.787v1h-.8v3.1h.8v5.8h-.8v3.1h.8v1h14v-1h.8v-3.1h-.8v-5.8h.8v-3.1h-.8v-1zM48.125 10.024v1h-.8v3.1h.8v5.8h-.8v3.101h.8v1h14v-1h.8v-3.101h-.8v-5.8h.8v-3.1h-.8v-1z"/>
</svg>
