M48
; DRILL file {KiCad (5.1.0-0)} date 2019 July 24, Wednesday 22:08:05
; FORMAT={-:-/ absolute / inch / decimal}
; #@! TF.CreationDate,2019-07-24T22:08:05+02:00
; #@! TF.GenerationSoftware,Kicad,Pcbnew,(5.1.0-0)
; #@! TF.FileFunction,NonPlated,1,2,NPTH
FMAT,2
INCH
T1C0.0670
T2C0.0866
T3C0.1570
%
G90
G05
T1
X5.05Y-1.6875
X5.45Y-1.6875
X5.05Y-2.8125
X5.45Y-2.8125
X2.8Y-1.125
X3.2Y-1.125
X5.8Y-2.8125
X6.2Y-2.8125
X4.3Y-1.5
X4.7Y-1.5
X3.95Y-0.9375
X3.55Y-1.6875
X3.95Y-1.6875
X2.8Y-1.875
X3.2Y-1.875
X3.55Y-0.9375
X4.3Y-0.75
X5.05Y-0.9375
X5.45Y-0.9375
X4.7Y-0.75
T2
X5.625Y-2.8125
X3.375Y-1.0312
X3.375Y-1.7812
X4.875Y-0.8438
X4.875Y-1.5938
T3
X4.5Y-0.75
X5.25Y-0.9375
X3.75Y-1.6875
X4.5Y-1.5
X3.75Y-0.9375
X5.25Y-2.8125
X5.25Y-1.6875
X3.0Y-1.125
X6.0Y-2.8125
X3.0Y-1.875
T0
M30
