G04 #@! TF.GenerationSoftware,KiCad,Pcbnew,(5.1.0-0)*
G04 #@! TF.CreationDate,2019-07-24T22:08:00+02:00*
G04 #@! TF.ProjectId,tutorial,7475746f-7269-4616-9c2e-6b696361645f,rev?*
G04 #@! TF.SameCoordinates,Original*
G04 #@! TF.FileFunction,Soldermask,Bot*
G04 #@! TF.FilePolarity,Negative*
%FSLAX46Y46*%
G04 Gerber Fmt 4.6, Leading zero omitted, Abs format (unit mm)*
G04 Created by KiCad (PCBNEW (5.1.0-0)) date 2019-07-24 22:08:00*
%MOMM*%
%LPD*%
G04 APERTURE LIST*
%ADD10C,0.100000*%
G04 APERTURE END LIST*
D10*
G36*
X152996474Y-69471184D02*
G01*
X153214474Y-69561483D01*
X153368623Y-69625333D01*
X153703548Y-69849123D01*
X153988377Y-70133952D01*
X154212167Y-70468877D01*
X154276017Y-70623026D01*
X154366316Y-70841026D01*
X154444900Y-71236094D01*
X154444900Y-71638906D01*
X154366316Y-72033974D01*
X154309467Y-72171219D01*
X154212167Y-72406123D01*
X153988377Y-72741048D01*
X153703548Y-73025877D01*
X153368623Y-73249667D01*
X153214474Y-73313517D01*
X152996474Y-73403816D01*
X152601406Y-73482400D01*
X152198594Y-73482400D01*
X151803526Y-73403816D01*
X151585526Y-73313517D01*
X151431377Y-73249667D01*
X151096452Y-73025877D01*
X150811623Y-72741048D01*
X150587833Y-72406123D01*
X150490533Y-72171219D01*
X150433684Y-72033974D01*
X150355100Y-71638906D01*
X150355100Y-71236094D01*
X150433684Y-70841026D01*
X150523983Y-70623026D01*
X150587833Y-70468877D01*
X150811623Y-70133952D01*
X151096452Y-69849123D01*
X151431377Y-69625333D01*
X151585526Y-69561483D01*
X151803526Y-69471184D01*
X152198594Y-69392600D01*
X152601406Y-69392600D01*
X152996474Y-69471184D01*
X152996474Y-69471184D01*
G37*
G36*
X133946474Y-69471184D02*
G01*
X134164474Y-69561483D01*
X134318623Y-69625333D01*
X134653548Y-69849123D01*
X134938377Y-70133952D01*
X135162167Y-70468877D01*
X135226017Y-70623026D01*
X135316316Y-70841026D01*
X135394900Y-71236094D01*
X135394900Y-71638906D01*
X135316316Y-72033974D01*
X135259467Y-72171219D01*
X135162167Y-72406123D01*
X134938377Y-72741048D01*
X134653548Y-73025877D01*
X134318623Y-73249667D01*
X134164474Y-73313517D01*
X133946474Y-73403816D01*
X133551406Y-73482400D01*
X133148594Y-73482400D01*
X132753526Y-73403816D01*
X132535526Y-73313517D01*
X132381377Y-73249667D01*
X132046452Y-73025877D01*
X131761623Y-72741048D01*
X131537833Y-72406123D01*
X131440533Y-72171219D01*
X131383684Y-72033974D01*
X131305100Y-71638906D01*
X131305100Y-71236094D01*
X131383684Y-70841026D01*
X131473983Y-70623026D01*
X131537833Y-70468877D01*
X131761623Y-70133952D01*
X132046452Y-69849123D01*
X132381377Y-69625333D01*
X132535526Y-69561483D01*
X132753526Y-69471184D01*
X133148594Y-69392600D01*
X133551406Y-69392600D01*
X133946474Y-69471184D01*
X133946474Y-69471184D01*
G37*
G36*
X143099549Y-70308616D02*
G01*
X143210734Y-70330732D01*
X143420203Y-70417497D01*
X143608720Y-70543460D01*
X143769040Y-70703780D01*
X143895003Y-70892297D01*
X143981768Y-71101766D01*
X144026000Y-71324136D01*
X144026000Y-71550864D01*
X143981768Y-71773234D01*
X143895003Y-71982703D01*
X143769040Y-72171220D01*
X143608720Y-72331540D01*
X143420203Y-72457503D01*
X143210734Y-72544268D01*
X143099549Y-72566384D01*
X142988365Y-72588500D01*
X142761635Y-72588500D01*
X142650451Y-72566384D01*
X142539266Y-72544268D01*
X142329797Y-72457503D01*
X142141280Y-72331540D01*
X141980960Y-72171220D01*
X141854997Y-71982703D01*
X141768232Y-71773234D01*
X141724000Y-71550864D01*
X141724000Y-71324136D01*
X141768232Y-71101766D01*
X141854997Y-70892297D01*
X141980960Y-70703780D01*
X142141280Y-70543460D01*
X142329797Y-70417497D01*
X142539266Y-70330732D01*
X142650451Y-70308616D01*
X142761635Y-70286500D01*
X142988365Y-70286500D01*
X143099549Y-70308616D01*
X143099549Y-70308616D01*
G37*
G36*
X128445952Y-70552930D02*
G01*
X128533075Y-70570259D01*
X128642498Y-70615584D01*
X128697211Y-70638247D01*
X128795288Y-70703780D01*
X128844928Y-70736948D01*
X128970552Y-70862572D01*
X128970554Y-70862575D01*
X129069253Y-71010289D01*
X129069253Y-71010290D01*
X129137241Y-71174425D01*
X129171900Y-71348671D01*
X129171900Y-71526329D01*
X129137241Y-71700575D01*
X129107144Y-71773234D01*
X129069253Y-71864711D01*
X128971217Y-72011433D01*
X128970552Y-72012428D01*
X128844928Y-72138052D01*
X128844925Y-72138054D01*
X128697211Y-72236753D01*
X128642498Y-72259416D01*
X128533075Y-72304741D01*
X128445952Y-72322071D01*
X128358831Y-72339400D01*
X128181169Y-72339400D01*
X128094048Y-72322071D01*
X128006925Y-72304741D01*
X127897502Y-72259416D01*
X127842789Y-72236753D01*
X127695075Y-72138054D01*
X127695072Y-72138052D01*
X127569448Y-72012428D01*
X127568783Y-72011433D01*
X127470747Y-71864711D01*
X127432856Y-71773234D01*
X127402759Y-71700575D01*
X127368100Y-71526329D01*
X127368100Y-71348671D01*
X127402759Y-71174425D01*
X127470747Y-71010290D01*
X127470747Y-71010289D01*
X127569446Y-70862575D01*
X127569448Y-70862572D01*
X127695072Y-70736948D01*
X127744712Y-70703780D01*
X127842789Y-70638247D01*
X127897502Y-70615584D01*
X128006925Y-70570259D01*
X128094048Y-70552930D01*
X128181169Y-70535600D01*
X128358831Y-70535600D01*
X128445952Y-70552930D01*
X128445952Y-70552930D01*
G37*
G36*
X138605952Y-70552930D02*
G01*
X138693075Y-70570259D01*
X138802498Y-70615584D01*
X138857211Y-70638247D01*
X138955288Y-70703780D01*
X139004928Y-70736948D01*
X139130552Y-70862572D01*
X139130554Y-70862575D01*
X139229253Y-71010289D01*
X139229253Y-71010290D01*
X139297241Y-71174425D01*
X139331900Y-71348671D01*
X139331900Y-71526329D01*
X139297241Y-71700575D01*
X139267144Y-71773234D01*
X139229253Y-71864711D01*
X139131217Y-72011433D01*
X139130552Y-72012428D01*
X139004928Y-72138052D01*
X139004925Y-72138054D01*
X138857211Y-72236753D01*
X138802498Y-72259416D01*
X138693075Y-72304741D01*
X138605952Y-72322071D01*
X138518831Y-72339400D01*
X138341169Y-72339400D01*
X138254048Y-72322071D01*
X138166925Y-72304741D01*
X138057502Y-72259416D01*
X138002789Y-72236753D01*
X137855075Y-72138054D01*
X137855072Y-72138052D01*
X137729448Y-72012428D01*
X137728783Y-72011433D01*
X137630747Y-71864711D01*
X137592856Y-71773234D01*
X137562759Y-71700575D01*
X137528100Y-71526329D01*
X137528100Y-71348671D01*
X137562759Y-71174425D01*
X137630747Y-71010290D01*
X137630747Y-71010289D01*
X137729446Y-70862575D01*
X137729448Y-70862572D01*
X137855072Y-70736948D01*
X137904712Y-70703780D01*
X138002789Y-70638247D01*
X138057502Y-70615584D01*
X138166925Y-70570259D01*
X138254048Y-70552930D01*
X138341169Y-70535600D01*
X138518831Y-70535600D01*
X138605952Y-70552930D01*
X138605952Y-70552930D01*
G37*
G36*
X157655952Y-70552930D02*
G01*
X157743075Y-70570259D01*
X157852498Y-70615584D01*
X157907211Y-70638247D01*
X158005288Y-70703780D01*
X158054928Y-70736948D01*
X158180552Y-70862572D01*
X158180554Y-70862575D01*
X158279253Y-71010289D01*
X158279253Y-71010290D01*
X158347241Y-71174425D01*
X158381900Y-71348671D01*
X158381900Y-71526329D01*
X158347241Y-71700575D01*
X158317144Y-71773234D01*
X158279253Y-71864711D01*
X158181217Y-72011433D01*
X158180552Y-72012428D01*
X158054928Y-72138052D01*
X158054925Y-72138054D01*
X157907211Y-72236753D01*
X157852498Y-72259416D01*
X157743075Y-72304741D01*
X157655952Y-72322071D01*
X157568831Y-72339400D01*
X157391169Y-72339400D01*
X157304048Y-72322071D01*
X157216925Y-72304741D01*
X157107502Y-72259416D01*
X157052789Y-72236753D01*
X156905075Y-72138054D01*
X156905072Y-72138052D01*
X156779448Y-72012428D01*
X156778783Y-72011433D01*
X156680747Y-71864711D01*
X156642856Y-71773234D01*
X156612759Y-71700575D01*
X156578100Y-71526329D01*
X156578100Y-71348671D01*
X156612759Y-71174425D01*
X156680747Y-71010290D01*
X156680747Y-71010289D01*
X156779446Y-70862575D01*
X156779448Y-70862572D01*
X156905072Y-70736948D01*
X156954712Y-70703780D01*
X157052789Y-70638247D01*
X157107502Y-70615584D01*
X157216925Y-70570259D01*
X157304048Y-70552930D01*
X157391169Y-70535600D01*
X157568831Y-70535600D01*
X157655952Y-70552930D01*
X157655952Y-70552930D01*
G37*
G36*
X147495952Y-70552930D02*
G01*
X147583075Y-70570259D01*
X147692498Y-70615584D01*
X147747211Y-70638247D01*
X147845288Y-70703780D01*
X147894928Y-70736948D01*
X148020552Y-70862572D01*
X148020554Y-70862575D01*
X148119253Y-71010289D01*
X148119253Y-71010290D01*
X148187241Y-71174425D01*
X148221900Y-71348671D01*
X148221900Y-71526329D01*
X148187241Y-71700575D01*
X148157144Y-71773234D01*
X148119253Y-71864711D01*
X148021217Y-72011433D01*
X148020552Y-72012428D01*
X147894928Y-72138052D01*
X147894925Y-72138054D01*
X147747211Y-72236753D01*
X147692498Y-72259416D01*
X147583075Y-72304741D01*
X147495952Y-72322071D01*
X147408831Y-72339400D01*
X147231169Y-72339400D01*
X147144048Y-72322071D01*
X147056925Y-72304741D01*
X146947502Y-72259416D01*
X146892789Y-72236753D01*
X146745075Y-72138054D01*
X146745072Y-72138052D01*
X146619448Y-72012428D01*
X146618783Y-72011433D01*
X146520747Y-71864711D01*
X146482856Y-71773234D01*
X146452759Y-71700575D01*
X146418100Y-71526329D01*
X146418100Y-71348671D01*
X146452759Y-71174425D01*
X146520747Y-71010290D01*
X146520747Y-71010289D01*
X146619446Y-70862575D01*
X146619448Y-70862572D01*
X146745072Y-70736948D01*
X146794712Y-70703780D01*
X146892789Y-70638247D01*
X146947502Y-70615584D01*
X147056925Y-70570259D01*
X147144048Y-70552930D01*
X147231169Y-70535600D01*
X147408831Y-70535600D01*
X147495952Y-70552930D01*
X147495952Y-70552930D01*
G37*
G36*
X156558276Y-67749384D02*
G01*
X156775569Y-67839390D01*
X156775571Y-67839391D01*
X156971130Y-67970060D01*
X157137440Y-68136370D01*
X157268110Y-68331931D01*
X157358116Y-68549224D01*
X157404000Y-68779900D01*
X157404000Y-69015100D01*
X157358116Y-69245776D01*
X157297299Y-69392600D01*
X157268109Y-69463071D01*
X157137440Y-69658630D01*
X156971130Y-69824940D01*
X156775571Y-69955609D01*
X156775570Y-69955610D01*
X156775569Y-69955610D01*
X156558276Y-70045616D01*
X156327600Y-70091500D01*
X156092400Y-70091500D01*
X155861724Y-70045616D01*
X155644431Y-69955610D01*
X155644430Y-69955610D01*
X155644429Y-69955609D01*
X155448870Y-69824940D01*
X155282560Y-69658630D01*
X155151891Y-69463071D01*
X155122701Y-69392600D01*
X155061884Y-69245776D01*
X155016000Y-69015100D01*
X155016000Y-68779900D01*
X155061884Y-68549224D01*
X155151890Y-68331931D01*
X155282560Y-68136370D01*
X155448870Y-67970060D01*
X155644429Y-67839391D01*
X155644431Y-67839390D01*
X155861724Y-67749384D01*
X156092400Y-67703500D01*
X156327600Y-67703500D01*
X156558276Y-67749384D01*
X156558276Y-67749384D01*
G37*
G36*
X148938276Y-67749384D02*
G01*
X149155569Y-67839390D01*
X149155571Y-67839391D01*
X149351130Y-67970060D01*
X149517440Y-68136370D01*
X149648110Y-68331931D01*
X149738116Y-68549224D01*
X149784000Y-68779900D01*
X149784000Y-69015100D01*
X149738116Y-69245776D01*
X149677299Y-69392600D01*
X149648109Y-69463071D01*
X149517440Y-69658630D01*
X149351130Y-69824940D01*
X149155571Y-69955609D01*
X149155570Y-69955610D01*
X149155569Y-69955610D01*
X148938276Y-70045616D01*
X148707600Y-70091500D01*
X148472400Y-70091500D01*
X148241724Y-70045616D01*
X148024431Y-69955610D01*
X148024430Y-69955610D01*
X148024429Y-69955609D01*
X147828870Y-69824940D01*
X147662560Y-69658630D01*
X147531891Y-69463071D01*
X147502701Y-69392600D01*
X147441884Y-69245776D01*
X147396000Y-69015100D01*
X147396000Y-68779900D01*
X147441884Y-68549224D01*
X147531890Y-68331931D01*
X147662560Y-68136370D01*
X147828870Y-67970060D01*
X148024429Y-67839391D01*
X148024431Y-67839390D01*
X148241724Y-67749384D01*
X148472400Y-67703500D01*
X148707600Y-67703500D01*
X148938276Y-67749384D01*
X148938276Y-67749384D01*
G37*
G36*
X137508276Y-67749384D02*
G01*
X137725569Y-67839390D01*
X137725571Y-67839391D01*
X137921130Y-67970060D01*
X138087440Y-68136370D01*
X138218110Y-68331931D01*
X138308116Y-68549224D01*
X138354000Y-68779900D01*
X138354000Y-69015100D01*
X138308116Y-69245776D01*
X138247299Y-69392600D01*
X138218109Y-69463071D01*
X138087440Y-69658630D01*
X137921130Y-69824940D01*
X137725571Y-69955609D01*
X137725570Y-69955610D01*
X137725569Y-69955610D01*
X137508276Y-70045616D01*
X137277600Y-70091500D01*
X137042400Y-70091500D01*
X136811724Y-70045616D01*
X136594431Y-69955610D01*
X136594430Y-69955610D01*
X136594429Y-69955609D01*
X136398870Y-69824940D01*
X136232560Y-69658630D01*
X136101891Y-69463071D01*
X136072701Y-69392600D01*
X136011884Y-69245776D01*
X135966000Y-69015100D01*
X135966000Y-68779900D01*
X136011884Y-68549224D01*
X136101890Y-68331931D01*
X136232560Y-68136370D01*
X136398870Y-67970060D01*
X136594429Y-67839391D01*
X136594431Y-67839390D01*
X136811724Y-67749384D01*
X137042400Y-67703500D01*
X137277600Y-67703500D01*
X137508276Y-67749384D01*
X137508276Y-67749384D01*
G37*
G36*
X129888276Y-67749384D02*
G01*
X130105569Y-67839390D01*
X130105571Y-67839391D01*
X130301130Y-67970060D01*
X130467440Y-68136370D01*
X130598110Y-68331931D01*
X130688116Y-68549224D01*
X130734000Y-68779900D01*
X130734000Y-69015100D01*
X130688116Y-69245776D01*
X130627299Y-69392600D01*
X130598109Y-69463071D01*
X130467440Y-69658630D01*
X130301130Y-69824940D01*
X130105571Y-69955609D01*
X130105570Y-69955610D01*
X130105569Y-69955610D01*
X129888276Y-70045616D01*
X129657600Y-70091500D01*
X129422400Y-70091500D01*
X129191724Y-70045616D01*
X128974431Y-69955610D01*
X128974430Y-69955610D01*
X128974429Y-69955609D01*
X128778870Y-69824940D01*
X128612560Y-69658630D01*
X128481891Y-69463071D01*
X128452701Y-69392600D01*
X128391884Y-69245776D01*
X128346000Y-69015100D01*
X128346000Y-68779900D01*
X128391884Y-68549224D01*
X128481890Y-68331931D01*
X128612560Y-68136370D01*
X128778870Y-67970060D01*
X128974429Y-67839391D01*
X128974431Y-67839390D01*
X129191724Y-67749384D01*
X129422400Y-67703500D01*
X129657600Y-67703500D01*
X129888276Y-67749384D01*
X129888276Y-67749384D01*
G37*
G36*
X155288276Y-65209384D02*
G01*
X155505569Y-65299390D01*
X155505571Y-65299391D01*
X155701130Y-65430060D01*
X155867440Y-65596370D01*
X155998110Y-65791931D01*
X156088116Y-66009224D01*
X156134000Y-66239900D01*
X156134000Y-66475100D01*
X156088116Y-66705776D01*
X155998110Y-66923069D01*
X155998109Y-66923071D01*
X155867440Y-67118630D01*
X155701130Y-67284940D01*
X155505571Y-67415609D01*
X155505570Y-67415610D01*
X155505569Y-67415610D01*
X155288276Y-67505616D01*
X155057600Y-67551500D01*
X154822400Y-67551500D01*
X154591724Y-67505616D01*
X154374431Y-67415610D01*
X154374430Y-67415610D01*
X154374429Y-67415609D01*
X154178870Y-67284940D01*
X154012560Y-67118630D01*
X153881891Y-66923071D01*
X153881890Y-66923069D01*
X153791884Y-66705776D01*
X153746000Y-66475100D01*
X153746000Y-66239900D01*
X153791884Y-66009224D01*
X153881890Y-65791931D01*
X154012560Y-65596370D01*
X154178870Y-65430060D01*
X154374429Y-65299391D01*
X154374431Y-65299390D01*
X154591724Y-65209384D01*
X154822400Y-65163500D01*
X155057600Y-65163500D01*
X155288276Y-65209384D01*
X155288276Y-65209384D01*
G37*
G36*
X131158276Y-65209384D02*
G01*
X131375569Y-65299390D01*
X131375571Y-65299391D01*
X131571130Y-65430060D01*
X131737440Y-65596370D01*
X131868110Y-65791931D01*
X131958116Y-66009224D01*
X132004000Y-66239900D01*
X132004000Y-66475100D01*
X131958116Y-66705776D01*
X131868110Y-66923069D01*
X131868109Y-66923071D01*
X131737440Y-67118630D01*
X131571130Y-67284940D01*
X131375571Y-67415609D01*
X131375570Y-67415610D01*
X131375569Y-67415610D01*
X131158276Y-67505616D01*
X130927600Y-67551500D01*
X130692400Y-67551500D01*
X130461724Y-67505616D01*
X130244431Y-67415610D01*
X130244430Y-67415610D01*
X130244429Y-67415609D01*
X130048870Y-67284940D01*
X129882560Y-67118630D01*
X129751891Y-66923071D01*
X129751890Y-66923069D01*
X129661884Y-66705776D01*
X129616000Y-66475100D01*
X129616000Y-66239900D01*
X129661884Y-66009224D01*
X129751890Y-65791931D01*
X129882560Y-65596370D01*
X130048870Y-65430060D01*
X130244429Y-65299391D01*
X130244431Y-65299390D01*
X130461724Y-65209384D01*
X130692400Y-65163500D01*
X130927600Y-65163500D01*
X131158276Y-65209384D01*
X131158276Y-65209384D01*
G37*
G36*
X136238276Y-65209384D02*
G01*
X136455569Y-65299390D01*
X136455571Y-65299391D01*
X136651130Y-65430060D01*
X136817440Y-65596370D01*
X136948110Y-65791931D01*
X137038116Y-66009224D01*
X137084000Y-66239900D01*
X137084000Y-66475100D01*
X137038116Y-66705776D01*
X136948110Y-66923069D01*
X136948109Y-66923071D01*
X136817440Y-67118630D01*
X136651130Y-67284940D01*
X136455571Y-67415609D01*
X136455570Y-67415610D01*
X136455569Y-67415610D01*
X136238276Y-67505616D01*
X136007600Y-67551500D01*
X135772400Y-67551500D01*
X135541724Y-67505616D01*
X135324431Y-67415610D01*
X135324430Y-67415610D01*
X135324429Y-67415609D01*
X135128870Y-67284940D01*
X134962560Y-67118630D01*
X134831891Y-66923071D01*
X134831890Y-66923069D01*
X134741884Y-66705776D01*
X134696000Y-66475100D01*
X134696000Y-66239900D01*
X134741884Y-66009224D01*
X134831890Y-65791931D01*
X134962560Y-65596370D01*
X135128870Y-65430060D01*
X135324429Y-65299391D01*
X135324431Y-65299390D01*
X135541724Y-65209384D01*
X135772400Y-65163500D01*
X136007600Y-65163500D01*
X136238276Y-65209384D01*
X136238276Y-65209384D01*
G37*
G36*
X150208276Y-65209384D02*
G01*
X150425569Y-65299390D01*
X150425571Y-65299391D01*
X150621130Y-65430060D01*
X150787440Y-65596370D01*
X150918110Y-65791931D01*
X151008116Y-66009224D01*
X151054000Y-66239900D01*
X151054000Y-66475100D01*
X151008116Y-66705776D01*
X150918110Y-66923069D01*
X150918109Y-66923071D01*
X150787440Y-67118630D01*
X150621130Y-67284940D01*
X150425571Y-67415609D01*
X150425570Y-67415610D01*
X150425569Y-67415610D01*
X150208276Y-67505616D01*
X149977600Y-67551500D01*
X149742400Y-67551500D01*
X149511724Y-67505616D01*
X149294431Y-67415610D01*
X149294430Y-67415610D01*
X149294429Y-67415609D01*
X149098870Y-67284940D01*
X148932560Y-67118630D01*
X148801891Y-66923071D01*
X148801890Y-66923069D01*
X148711884Y-66705776D01*
X148666000Y-66475100D01*
X148666000Y-66239900D01*
X148711884Y-66009224D01*
X148801890Y-65791931D01*
X148932560Y-65596370D01*
X149098870Y-65430060D01*
X149294429Y-65299391D01*
X149294431Y-65299390D01*
X149511724Y-65209384D01*
X149742400Y-65163500D01*
X149977600Y-65163500D01*
X150208276Y-65209384D01*
X150208276Y-65209384D01*
G37*
G36*
X157805573Y-61073813D02*
G01*
X157965992Y-61122476D01*
X158098656Y-61193386D01*
X158113828Y-61201496D01*
X158243409Y-61307841D01*
X158349754Y-61437422D01*
X158349755Y-61437424D01*
X158428774Y-61585258D01*
X158477437Y-61745677D01*
X158493867Y-61912500D01*
X158477437Y-62079323D01*
X158428774Y-62239742D01*
X158357864Y-62372406D01*
X158349754Y-62387578D01*
X158243409Y-62517159D01*
X158113828Y-62623504D01*
X158113826Y-62623505D01*
X157965992Y-62702524D01*
X157805573Y-62751187D01*
X157680554Y-62763500D01*
X157596946Y-62763500D01*
X157471927Y-62751187D01*
X157311508Y-62702524D01*
X157163674Y-62623505D01*
X157163672Y-62623504D01*
X157034091Y-62517159D01*
X156927746Y-62387578D01*
X156919636Y-62372406D01*
X156848726Y-62239742D01*
X156800063Y-62079323D01*
X156783633Y-61912500D01*
X156800063Y-61745677D01*
X156848726Y-61585258D01*
X156927745Y-61437424D01*
X156927746Y-61437422D01*
X157034091Y-61307841D01*
X157163672Y-61201496D01*
X157178844Y-61193386D01*
X157311508Y-61122476D01*
X157471927Y-61073813D01*
X157596946Y-61061500D01*
X157680554Y-61061500D01*
X157805573Y-61073813D01*
X157805573Y-61073813D01*
G37*
G36*
X131819750Y-62763500D02*
G01*
X130117750Y-62763500D01*
X130117750Y-61061500D01*
X131819750Y-61061500D01*
X131819750Y-62763500D01*
X131819750Y-62763500D01*
G37*
G36*
X150869750Y-62763500D02*
G01*
X149167750Y-62763500D01*
X149167750Y-61061500D01*
X150869750Y-61061500D01*
X150869750Y-62763500D01*
X150869750Y-62763500D01*
G37*
G36*
X138755573Y-61073813D02*
G01*
X138915992Y-61122476D01*
X139048656Y-61193386D01*
X139063828Y-61201496D01*
X139193409Y-61307841D01*
X139299754Y-61437422D01*
X139299755Y-61437424D01*
X139378774Y-61585258D01*
X139427437Y-61745677D01*
X139443867Y-61912500D01*
X139427437Y-62079323D01*
X139378774Y-62239742D01*
X139307864Y-62372406D01*
X139299754Y-62387578D01*
X139193409Y-62517159D01*
X139063828Y-62623504D01*
X139063826Y-62623505D01*
X138915992Y-62702524D01*
X138755573Y-62751187D01*
X138630554Y-62763500D01*
X138546946Y-62763500D01*
X138421927Y-62751187D01*
X138261508Y-62702524D01*
X138113674Y-62623505D01*
X138113672Y-62623504D01*
X137984091Y-62517159D01*
X137877746Y-62387578D01*
X137869636Y-62372406D01*
X137798726Y-62239742D01*
X137750063Y-62079323D01*
X137733633Y-61912500D01*
X137750063Y-61745677D01*
X137798726Y-61585258D01*
X137877745Y-61437424D01*
X137877746Y-61437422D01*
X137984091Y-61307841D01*
X138113672Y-61201496D01*
X138128844Y-61193386D01*
X138261508Y-61122476D01*
X138421927Y-61073813D01*
X138546946Y-61061500D01*
X138630554Y-61061500D01*
X138755573Y-61073813D01*
X138755573Y-61073813D01*
G37*
G36*
X74669750Y-58001000D02*
G01*
X72967750Y-58001000D01*
X72967750Y-56299000D01*
X74669750Y-56299000D01*
X74669750Y-58001000D01*
X74669750Y-58001000D01*
G37*
G36*
X81605573Y-56311313D02*
G01*
X81765992Y-56359976D01*
X81898656Y-56430886D01*
X81913828Y-56438996D01*
X82043409Y-56545341D01*
X82149754Y-56674922D01*
X82149755Y-56674924D01*
X82228774Y-56822758D01*
X82277437Y-56983177D01*
X82293867Y-57150000D01*
X82277437Y-57316823D01*
X82228774Y-57477242D01*
X82157864Y-57609906D01*
X82149754Y-57625078D01*
X82043409Y-57754659D01*
X81913828Y-57861004D01*
X81913826Y-57861005D01*
X81765992Y-57940024D01*
X81605573Y-57988687D01*
X81480554Y-58001000D01*
X81396946Y-58001000D01*
X81271927Y-57988687D01*
X81111508Y-57940024D01*
X80963674Y-57861005D01*
X80963672Y-57861004D01*
X80834091Y-57754659D01*
X80727746Y-57625078D01*
X80719636Y-57609906D01*
X80648726Y-57477242D01*
X80600063Y-57316823D01*
X80583633Y-57150000D01*
X80600063Y-56983177D01*
X80648726Y-56822758D01*
X80727745Y-56674924D01*
X80727746Y-56674922D01*
X80834091Y-56545341D01*
X80963672Y-56438996D01*
X80978844Y-56430886D01*
X81111508Y-56359976D01*
X81271927Y-56311313D01*
X81396946Y-56299000D01*
X81480554Y-56299000D01*
X81605573Y-56311313D01*
X81605573Y-56311313D01*
G37*
G36*
X93719750Y-53238500D02*
G01*
X92017750Y-53238500D01*
X92017750Y-51536500D01*
X93719750Y-51536500D01*
X93719750Y-53238500D01*
X93719750Y-53238500D01*
G37*
G36*
X100655573Y-51548813D02*
G01*
X100815992Y-51597476D01*
X100948656Y-51668386D01*
X100963828Y-51676496D01*
X101093409Y-51782841D01*
X101199754Y-51912422D01*
X101199755Y-51912424D01*
X101278774Y-52060258D01*
X101327437Y-52220677D01*
X101343867Y-52387500D01*
X101327437Y-52554323D01*
X101278774Y-52714742D01*
X101238397Y-52790282D01*
X101199754Y-52862578D01*
X101093409Y-52992159D01*
X100963828Y-53098504D01*
X100963826Y-53098505D01*
X100815992Y-53177524D01*
X100655573Y-53226187D01*
X100530554Y-53238500D01*
X100446946Y-53238500D01*
X100321927Y-53226187D01*
X100161508Y-53177524D01*
X100013674Y-53098505D01*
X100013672Y-53098504D01*
X99884091Y-52992159D01*
X99777746Y-52862578D01*
X99739103Y-52790282D01*
X99698726Y-52714742D01*
X99650063Y-52554323D01*
X99633633Y-52387500D01*
X99650063Y-52220677D01*
X99698726Y-52060258D01*
X99777745Y-51912424D01*
X99777746Y-51912422D01*
X99884091Y-51782841D01*
X100013672Y-51676496D01*
X100028844Y-51668386D01*
X100161508Y-51597476D01*
X100321927Y-51548813D01*
X100446946Y-51536500D01*
X100530554Y-51536500D01*
X100655573Y-51548813D01*
X100655573Y-51548813D01*
G37*
G36*
X131819750Y-53238500D02*
G01*
X130117750Y-53238500D01*
X130117750Y-51536500D01*
X131819750Y-51536500D01*
X131819750Y-53238500D01*
X131819750Y-53238500D01*
G37*
G36*
X138755573Y-51548813D02*
G01*
X138915992Y-51597476D01*
X139048656Y-51668386D01*
X139063828Y-51676496D01*
X139193409Y-51782841D01*
X139299754Y-51912422D01*
X139299755Y-51912424D01*
X139378774Y-52060258D01*
X139427437Y-52220677D01*
X139443867Y-52387500D01*
X139427437Y-52554323D01*
X139378774Y-52714742D01*
X139338397Y-52790282D01*
X139299754Y-52862578D01*
X139193409Y-52992159D01*
X139063828Y-53098504D01*
X139063826Y-53098505D01*
X138915992Y-53177524D01*
X138755573Y-53226187D01*
X138630554Y-53238500D01*
X138546946Y-53238500D01*
X138421927Y-53226187D01*
X138261508Y-53177524D01*
X138113674Y-53098505D01*
X138113672Y-53098504D01*
X137984091Y-52992159D01*
X137877746Y-52862578D01*
X137839103Y-52790282D01*
X137798726Y-52714742D01*
X137750063Y-52554323D01*
X137733633Y-52387500D01*
X137750063Y-52220677D01*
X137798726Y-52060258D01*
X137877745Y-51912424D01*
X137877746Y-51912422D01*
X137984091Y-51782841D01*
X138113672Y-51676496D01*
X138128844Y-51668386D01*
X138261508Y-51597476D01*
X138421927Y-51548813D01*
X138546946Y-51536500D01*
X138630554Y-51536500D01*
X138755573Y-51548813D01*
X138755573Y-51548813D01*
G37*
G36*
X145050483Y-51178335D02*
G01*
X145219240Y-51248236D01*
X145371118Y-51349718D01*
X145500282Y-51478882D01*
X145601764Y-51630760D01*
X145671665Y-51799517D01*
X145707300Y-51978668D01*
X145707300Y-52161332D01*
X145671665Y-52340483D01*
X145601764Y-52509240D01*
X145500282Y-52661118D01*
X145371118Y-52790282D01*
X145219240Y-52891764D01*
X145050483Y-52961665D01*
X144871332Y-52997300D01*
X144688668Y-52997300D01*
X144509517Y-52961665D01*
X144340760Y-52891764D01*
X144188882Y-52790282D01*
X144059718Y-52661118D01*
X143958236Y-52509240D01*
X143888335Y-52340483D01*
X143852700Y-52161332D01*
X143852700Y-51978668D01*
X143888335Y-51799517D01*
X143958236Y-51630760D01*
X144059718Y-51478882D01*
X144188882Y-51349718D01*
X144340760Y-51248236D01*
X144509517Y-51178335D01*
X144688668Y-51142700D01*
X144871332Y-51142700D01*
X145050483Y-51178335D01*
X145050483Y-51178335D01*
G37*
G36*
X160290483Y-51178335D02*
G01*
X160459240Y-51248236D01*
X160611118Y-51349718D01*
X160740282Y-51478882D01*
X160841764Y-51630760D01*
X160911665Y-51799517D01*
X160947300Y-51978668D01*
X160947300Y-52161332D01*
X160911665Y-52340483D01*
X160841764Y-52509240D01*
X160740282Y-52661118D01*
X160611118Y-52790282D01*
X160459240Y-52891764D01*
X160290483Y-52961665D01*
X160111332Y-52997300D01*
X159928668Y-52997300D01*
X159749517Y-52961665D01*
X159580760Y-52891764D01*
X159428882Y-52790282D01*
X159299718Y-52661118D01*
X159198236Y-52509240D01*
X159128335Y-52340483D01*
X159092700Y-52161332D01*
X159092700Y-51978668D01*
X159128335Y-51799517D01*
X159198236Y-51630760D01*
X159299718Y-51478882D01*
X159428882Y-51349718D01*
X159580760Y-51248236D01*
X159749517Y-51178335D01*
X159928668Y-51142700D01*
X160111332Y-51142700D01*
X160290483Y-51178335D01*
X160290483Y-51178335D01*
G37*
G36*
X145050483Y-48638335D02*
G01*
X145219240Y-48708236D01*
X145371118Y-48809718D01*
X145500282Y-48938882D01*
X145601764Y-49090760D01*
X145671665Y-49259517D01*
X145707300Y-49438668D01*
X145707300Y-49621332D01*
X145671665Y-49800483D01*
X145601764Y-49969240D01*
X145500282Y-50121118D01*
X145371118Y-50250282D01*
X145219240Y-50351764D01*
X145050483Y-50421665D01*
X144871332Y-50457300D01*
X144688668Y-50457300D01*
X144509517Y-50421665D01*
X144340760Y-50351764D01*
X144188882Y-50250282D01*
X144059718Y-50121118D01*
X143958236Y-49969240D01*
X143888335Y-49800483D01*
X143852700Y-49621332D01*
X143852700Y-49438668D01*
X143888335Y-49259517D01*
X143958236Y-49090760D01*
X144059718Y-48938882D01*
X144188882Y-48809718D01*
X144340760Y-48708236D01*
X144509517Y-48638335D01*
X144688668Y-48602700D01*
X144871332Y-48602700D01*
X145050483Y-48638335D01*
X145050483Y-48638335D01*
G37*
G36*
X160290483Y-48638335D02*
G01*
X160459240Y-48708236D01*
X160611118Y-48809718D01*
X160740282Y-48938882D01*
X160841764Y-49090760D01*
X160911665Y-49259517D01*
X160947300Y-49438668D01*
X160947300Y-49621332D01*
X160911665Y-49800483D01*
X160841764Y-49969240D01*
X160740282Y-50121118D01*
X160611118Y-50250282D01*
X160459240Y-50351764D01*
X160290483Y-50421665D01*
X160111332Y-50457300D01*
X159928668Y-50457300D01*
X159749517Y-50421665D01*
X159580760Y-50351764D01*
X159428882Y-50250282D01*
X159299718Y-50121118D01*
X159198236Y-49969240D01*
X159128335Y-49800483D01*
X159092700Y-49621332D01*
X159092700Y-49438668D01*
X159128335Y-49259517D01*
X159198236Y-49090760D01*
X159299718Y-48938882D01*
X159428882Y-48809718D01*
X159580760Y-48708236D01*
X159749517Y-48638335D01*
X159928668Y-48602700D01*
X160111332Y-48602700D01*
X160290483Y-48638335D01*
X160290483Y-48638335D01*
G37*
G36*
X76796474Y-45658684D02*
G01*
X77014474Y-45748983D01*
X77168623Y-45812833D01*
X77503548Y-46036623D01*
X77788377Y-46321452D01*
X78012167Y-46656377D01*
X78060888Y-46774000D01*
X78166316Y-47028526D01*
X78244900Y-47423594D01*
X78244900Y-47826406D01*
X78166316Y-48221474D01*
X78086145Y-48415024D01*
X78012167Y-48593623D01*
X77788377Y-48928548D01*
X77503548Y-49213377D01*
X77168623Y-49437167D01*
X77014474Y-49501017D01*
X76796474Y-49591316D01*
X76401406Y-49669900D01*
X75998594Y-49669900D01*
X75603526Y-49591316D01*
X75385526Y-49501017D01*
X75231377Y-49437167D01*
X74896452Y-49213377D01*
X74611623Y-48928548D01*
X74387833Y-48593623D01*
X74313855Y-48415024D01*
X74233684Y-48221474D01*
X74155100Y-47826406D01*
X74155100Y-47423594D01*
X74233684Y-47028526D01*
X74339112Y-46774000D01*
X74387833Y-46656377D01*
X74611623Y-46321452D01*
X74896452Y-46036623D01*
X75231377Y-45812833D01*
X75385526Y-45748983D01*
X75603526Y-45658684D01*
X75998594Y-45580100D01*
X76401406Y-45580100D01*
X76796474Y-45658684D01*
X76796474Y-45658684D01*
G37*
G36*
X71295952Y-46740429D02*
G01*
X71383075Y-46757759D01*
X71492498Y-46803084D01*
X71547211Y-46825747D01*
X71656345Y-46898668D01*
X71694928Y-46924448D01*
X71820552Y-47050072D01*
X71820554Y-47050075D01*
X71919253Y-47197789D01*
X71919253Y-47197790D01*
X71987241Y-47361925D01*
X72021900Y-47536171D01*
X72021900Y-47713829D01*
X71987241Y-47888075D01*
X71941916Y-47997498D01*
X71919253Y-48052211D01*
X71887269Y-48100078D01*
X71820552Y-48199928D01*
X71694928Y-48325552D01*
X71694925Y-48325554D01*
X71547211Y-48424253D01*
X71492498Y-48446916D01*
X71383075Y-48492241D01*
X71295952Y-48509571D01*
X71208831Y-48526900D01*
X71031169Y-48526900D01*
X70944048Y-48509570D01*
X70856925Y-48492241D01*
X70747502Y-48446916D01*
X70692789Y-48424253D01*
X70545075Y-48325554D01*
X70545072Y-48325552D01*
X70419448Y-48199928D01*
X70352731Y-48100078D01*
X70320747Y-48052211D01*
X70298084Y-47997498D01*
X70252759Y-47888075D01*
X70218100Y-47713829D01*
X70218100Y-47536171D01*
X70252759Y-47361925D01*
X70320747Y-47197790D01*
X70320747Y-47197789D01*
X70419446Y-47050075D01*
X70419448Y-47050072D01*
X70545072Y-46924448D01*
X70583655Y-46898668D01*
X70692789Y-46825747D01*
X70747502Y-46803084D01*
X70856925Y-46757759D01*
X70944048Y-46740429D01*
X71031169Y-46723100D01*
X71208831Y-46723100D01*
X71295952Y-46740429D01*
X71295952Y-46740429D01*
G37*
G36*
X81455952Y-46740429D02*
G01*
X81543075Y-46757759D01*
X81652498Y-46803084D01*
X81707211Y-46825747D01*
X81816345Y-46898668D01*
X81854928Y-46924448D01*
X81980552Y-47050072D01*
X81980554Y-47050075D01*
X82079253Y-47197789D01*
X82079253Y-47197790D01*
X82147241Y-47361925D01*
X82181900Y-47536171D01*
X82181900Y-47713829D01*
X82147241Y-47888075D01*
X82101916Y-47997498D01*
X82079253Y-48052211D01*
X82047269Y-48100078D01*
X81980552Y-48199928D01*
X81854928Y-48325552D01*
X81854925Y-48325554D01*
X81707211Y-48424253D01*
X81652498Y-48446916D01*
X81543075Y-48492241D01*
X81455952Y-48509571D01*
X81368831Y-48526900D01*
X81191169Y-48526900D01*
X81104048Y-48509570D01*
X81016925Y-48492241D01*
X80907502Y-48446916D01*
X80852789Y-48424253D01*
X80705075Y-48325554D01*
X80705072Y-48325552D01*
X80579448Y-48199928D01*
X80512731Y-48100078D01*
X80480747Y-48052211D01*
X80458084Y-47997498D01*
X80412759Y-47888075D01*
X80378100Y-47713829D01*
X80378100Y-47536171D01*
X80412759Y-47361925D01*
X80480747Y-47197790D01*
X80480747Y-47197789D01*
X80579446Y-47050075D01*
X80579448Y-47050072D01*
X80705072Y-46924448D01*
X80743655Y-46898668D01*
X80852789Y-46825747D01*
X80907502Y-46803084D01*
X81016925Y-46757759D01*
X81104048Y-46740429D01*
X81191169Y-46723100D01*
X81368831Y-46723100D01*
X81455952Y-46740429D01*
X81455952Y-46740429D01*
G37*
G36*
X112769750Y-48476000D02*
G01*
X111067750Y-48476000D01*
X111067750Y-46774000D01*
X112769750Y-46774000D01*
X112769750Y-48476000D01*
X112769750Y-48476000D01*
G37*
G36*
X119705573Y-46786313D02*
G01*
X119865992Y-46834976D01*
X119985151Y-46898668D01*
X120013828Y-46913996D01*
X120143409Y-47020341D01*
X120249754Y-47149922D01*
X120249755Y-47149924D01*
X120328774Y-47297758D01*
X120377437Y-47458177D01*
X120393867Y-47625000D01*
X120377437Y-47791823D01*
X120328774Y-47952242D01*
X120275340Y-48052210D01*
X120249754Y-48100078D01*
X120143409Y-48229659D01*
X120013828Y-48336004D01*
X120013826Y-48336005D01*
X119865992Y-48415024D01*
X119705573Y-48463687D01*
X119580554Y-48476000D01*
X119496946Y-48476000D01*
X119371927Y-48463687D01*
X119211508Y-48415024D01*
X119063674Y-48336005D01*
X119063672Y-48336004D01*
X118934091Y-48229659D01*
X118827746Y-48100078D01*
X118802160Y-48052210D01*
X118748726Y-47952242D01*
X118700063Y-47791823D01*
X118683633Y-47625000D01*
X118700063Y-47458177D01*
X118748726Y-47297758D01*
X118827745Y-47149924D01*
X118827746Y-47149922D01*
X118934091Y-47020341D01*
X119063672Y-46913996D01*
X119092349Y-46898668D01*
X119211508Y-46834976D01*
X119371927Y-46786313D01*
X119496946Y-46774000D01*
X119580554Y-46774000D01*
X119705573Y-46786313D01*
X119705573Y-46786313D01*
G37*
G36*
X160290483Y-46098335D02*
G01*
X160459240Y-46168236D01*
X160611118Y-46269718D01*
X160740282Y-46398882D01*
X160841764Y-46550760D01*
X160911665Y-46719517D01*
X160947300Y-46898668D01*
X160947300Y-47081332D01*
X160911665Y-47260483D01*
X160841764Y-47429240D01*
X160740282Y-47581118D01*
X160611118Y-47710282D01*
X160459240Y-47811764D01*
X160290483Y-47881665D01*
X160111332Y-47917300D01*
X159928668Y-47917300D01*
X159749517Y-47881665D01*
X159580760Y-47811764D01*
X159428882Y-47710282D01*
X159299718Y-47581118D01*
X159198236Y-47429240D01*
X159128335Y-47260483D01*
X159092700Y-47081332D01*
X159092700Y-46898668D01*
X159128335Y-46719517D01*
X159198236Y-46550760D01*
X159299718Y-46398882D01*
X159428882Y-46269718D01*
X159580760Y-46168236D01*
X159749517Y-46098335D01*
X159928668Y-46062700D01*
X160111332Y-46062700D01*
X160290483Y-46098335D01*
X160290483Y-46098335D01*
G37*
G36*
X145050483Y-46098335D02*
G01*
X145219240Y-46168236D01*
X145371118Y-46269718D01*
X145500282Y-46398882D01*
X145601764Y-46550760D01*
X145671665Y-46719517D01*
X145707300Y-46898668D01*
X145707300Y-47081332D01*
X145671665Y-47260483D01*
X145601764Y-47429240D01*
X145500282Y-47581118D01*
X145371118Y-47710282D01*
X145219240Y-47811764D01*
X145050483Y-47881665D01*
X144871332Y-47917300D01*
X144688668Y-47917300D01*
X144509517Y-47881665D01*
X144340760Y-47811764D01*
X144188882Y-47710282D01*
X144059718Y-47581118D01*
X143958236Y-47429240D01*
X143888335Y-47260483D01*
X143852700Y-47081332D01*
X143852700Y-46898668D01*
X143888335Y-46719517D01*
X143958236Y-46550760D01*
X144059718Y-46398882D01*
X144188882Y-46269718D01*
X144340760Y-46168236D01*
X144509517Y-46098335D01*
X144688668Y-46062700D01*
X144871332Y-46062700D01*
X145050483Y-46098335D01*
X145050483Y-46098335D01*
G37*
G36*
X85949549Y-44114866D02*
G01*
X86060734Y-44136982D01*
X86270203Y-44223747D01*
X86458720Y-44349710D01*
X86619040Y-44510030D01*
X86639955Y-44541332D01*
X86745004Y-44698549D01*
X86770416Y-44759900D01*
X86831513Y-44907400D01*
X86831768Y-44908017D01*
X86876000Y-45130385D01*
X86876000Y-45357115D01*
X86860850Y-45433277D01*
X86831768Y-45579484D01*
X86745003Y-45788953D01*
X86619040Y-45977470D01*
X86458720Y-46137790D01*
X86270203Y-46263753D01*
X86270202Y-46263754D01*
X86270201Y-46263754D01*
X86255800Y-46269719D01*
X86060734Y-46350518D01*
X85949549Y-46372634D01*
X85838365Y-46394750D01*
X85611635Y-46394750D01*
X85500451Y-46372634D01*
X85389266Y-46350518D01*
X85194200Y-46269719D01*
X85179799Y-46263754D01*
X85179798Y-46263754D01*
X85179797Y-46263753D01*
X84991280Y-46137790D01*
X84830960Y-45977470D01*
X84704997Y-45788953D01*
X84618232Y-45579484D01*
X84589150Y-45433277D01*
X84574000Y-45357115D01*
X84574000Y-45130385D01*
X84618232Y-44908017D01*
X84618488Y-44907400D01*
X84679584Y-44759900D01*
X84704996Y-44698549D01*
X84810045Y-44541332D01*
X84830960Y-44510030D01*
X84991280Y-44349710D01*
X85179797Y-44223747D01*
X85389266Y-44136982D01*
X85500451Y-44114866D01*
X85611635Y-44092750D01*
X85838365Y-44092750D01*
X85949549Y-44114866D01*
X85949549Y-44114866D01*
G37*
G36*
X80358276Y-43936884D02*
G01*
X80575569Y-44026890D01*
X80575571Y-44026891D01*
X80771130Y-44157560D01*
X80937440Y-44323870D01*
X81061829Y-44510030D01*
X81068110Y-44519431D01*
X81158116Y-44736724D01*
X81204000Y-44967400D01*
X81204000Y-45202600D01*
X81158116Y-45433276D01*
X81097555Y-45579483D01*
X81068109Y-45650571D01*
X80937440Y-45846130D01*
X80771130Y-46012440D01*
X80575571Y-46143109D01*
X80575570Y-46143110D01*
X80575569Y-46143110D01*
X80358276Y-46233116D01*
X80127600Y-46279000D01*
X79892400Y-46279000D01*
X79661724Y-46233116D01*
X79444431Y-46143110D01*
X79444430Y-46143110D01*
X79444429Y-46143109D01*
X79248870Y-46012440D01*
X79082560Y-45846130D01*
X78951891Y-45650571D01*
X78922445Y-45579483D01*
X78861884Y-45433276D01*
X78816000Y-45202600D01*
X78816000Y-44967400D01*
X78861884Y-44736724D01*
X78951890Y-44519431D01*
X78958172Y-44510030D01*
X79082560Y-44323870D01*
X79248870Y-44157560D01*
X79444429Y-44026891D01*
X79444431Y-44026890D01*
X79661724Y-43936884D01*
X79892400Y-43891000D01*
X80127600Y-43891000D01*
X80358276Y-43936884D01*
X80358276Y-43936884D01*
G37*
G36*
X72738276Y-43936884D02*
G01*
X72955569Y-44026890D01*
X72955571Y-44026891D01*
X73151130Y-44157560D01*
X73317440Y-44323870D01*
X73441829Y-44510030D01*
X73448110Y-44519431D01*
X73538116Y-44736724D01*
X73584000Y-44967400D01*
X73584000Y-45202600D01*
X73538116Y-45433276D01*
X73477555Y-45579483D01*
X73448109Y-45650571D01*
X73317440Y-45846130D01*
X73151130Y-46012440D01*
X72955571Y-46143109D01*
X72955570Y-46143110D01*
X72955569Y-46143110D01*
X72738276Y-46233116D01*
X72507600Y-46279000D01*
X72272400Y-46279000D01*
X72041724Y-46233116D01*
X71824431Y-46143110D01*
X71824430Y-46143110D01*
X71824429Y-46143109D01*
X71628870Y-46012440D01*
X71462560Y-45846130D01*
X71331891Y-45650571D01*
X71302445Y-45579483D01*
X71241884Y-45433276D01*
X71196000Y-45202600D01*
X71196000Y-44967400D01*
X71241884Y-44736724D01*
X71331890Y-44519431D01*
X71338172Y-44510030D01*
X71462560Y-44323870D01*
X71628870Y-44157560D01*
X71824429Y-44026891D01*
X71824431Y-44026890D01*
X72041724Y-43936884D01*
X72272400Y-43891000D01*
X72507600Y-43891000D01*
X72738276Y-43936884D01*
X72738276Y-43936884D01*
G37*
G36*
X160290483Y-43558335D02*
G01*
X160459240Y-43628236D01*
X160611118Y-43729718D01*
X160740282Y-43858882D01*
X160841764Y-44010760D01*
X160911665Y-44179517D01*
X160947300Y-44358668D01*
X160947300Y-44541332D01*
X160911665Y-44720483D01*
X160841764Y-44889240D01*
X160740282Y-45041118D01*
X160611118Y-45170282D01*
X160459240Y-45271764D01*
X160290483Y-45341665D01*
X160111332Y-45377300D01*
X159928668Y-45377300D01*
X159749517Y-45341665D01*
X159580760Y-45271764D01*
X159428882Y-45170282D01*
X159299718Y-45041118D01*
X159198236Y-44889240D01*
X159128335Y-44720483D01*
X159092700Y-44541332D01*
X159092700Y-44358668D01*
X159128335Y-44179517D01*
X159198236Y-44010760D01*
X159299718Y-43858882D01*
X159428882Y-43729718D01*
X159580760Y-43628236D01*
X159749517Y-43558335D01*
X159928668Y-43522700D01*
X160111332Y-43522700D01*
X160290483Y-43558335D01*
X160290483Y-43558335D01*
G37*
G36*
X145050483Y-43558335D02*
G01*
X145219240Y-43628236D01*
X145371118Y-43729718D01*
X145500282Y-43858882D01*
X145601764Y-44010760D01*
X145671665Y-44179517D01*
X145707300Y-44358668D01*
X145707300Y-44541332D01*
X145671665Y-44720483D01*
X145601764Y-44889240D01*
X145500282Y-45041118D01*
X145371118Y-45170282D01*
X145219240Y-45271764D01*
X145050483Y-45341665D01*
X144871332Y-45377300D01*
X144688668Y-45377300D01*
X144509517Y-45341665D01*
X144340760Y-45271764D01*
X144188882Y-45170282D01*
X144059718Y-45041118D01*
X143958236Y-44889240D01*
X143888335Y-44720483D01*
X143852700Y-44541332D01*
X143852700Y-44358668D01*
X143888335Y-44179517D01*
X143958236Y-44010760D01*
X144059718Y-43858882D01*
X144188882Y-43729718D01*
X144340760Y-43628236D01*
X144509517Y-43558335D01*
X144688668Y-43522700D01*
X144871332Y-43522700D01*
X145050483Y-43558335D01*
X145050483Y-43558335D01*
G37*
G36*
X95846474Y-40896184D02*
G01*
X96055342Y-40982700D01*
X96218623Y-41050333D01*
X96553548Y-41274123D01*
X96838377Y-41558952D01*
X97062167Y-41893877D01*
X97106676Y-42001331D01*
X97216316Y-42266026D01*
X97294900Y-42661094D01*
X97294900Y-43063906D01*
X97216316Y-43458974D01*
X97156613Y-43603109D01*
X97062167Y-43831123D01*
X96838377Y-44166048D01*
X96553548Y-44450877D01*
X96218623Y-44674667D01*
X96160971Y-44698547D01*
X95846474Y-44828816D01*
X95451406Y-44907400D01*
X95048594Y-44907400D01*
X94653526Y-44828816D01*
X94339029Y-44698547D01*
X94281377Y-44674667D01*
X93946452Y-44450877D01*
X93661623Y-44166048D01*
X93437833Y-43831123D01*
X93343387Y-43603109D01*
X93283684Y-43458974D01*
X93205100Y-43063906D01*
X93205100Y-42661094D01*
X93283684Y-42266026D01*
X93393324Y-42001331D01*
X93437833Y-41893877D01*
X93661623Y-41558952D01*
X93946452Y-41274123D01*
X94281377Y-41050333D01*
X94444658Y-40982700D01*
X94653526Y-40896184D01*
X95048594Y-40817600D01*
X95451406Y-40817600D01*
X95846474Y-40896184D01*
X95846474Y-40896184D01*
G37*
G36*
X133946474Y-40896184D02*
G01*
X134155342Y-40982700D01*
X134318623Y-41050333D01*
X134653548Y-41274123D01*
X134938377Y-41558952D01*
X135162167Y-41893877D01*
X135206676Y-42001331D01*
X135316316Y-42266026D01*
X135394900Y-42661094D01*
X135394900Y-43063906D01*
X135316316Y-43458974D01*
X135256613Y-43603109D01*
X135162167Y-43831123D01*
X134938377Y-44166048D01*
X134653548Y-44450877D01*
X134318623Y-44674667D01*
X134260971Y-44698547D01*
X133946474Y-44828816D01*
X133551406Y-44907400D01*
X133148594Y-44907400D01*
X132753526Y-44828816D01*
X132439029Y-44698547D01*
X132381377Y-44674667D01*
X132046452Y-44450877D01*
X131761623Y-44166048D01*
X131537833Y-43831123D01*
X131443387Y-43603109D01*
X131383684Y-43458974D01*
X131305100Y-43063906D01*
X131305100Y-42661094D01*
X131383684Y-42266026D01*
X131493324Y-42001331D01*
X131537833Y-41893877D01*
X131761623Y-41558952D01*
X132046452Y-41274123D01*
X132381377Y-41050333D01*
X132544658Y-40982700D01*
X132753526Y-40896184D01*
X133148594Y-40817600D01*
X133551406Y-40817600D01*
X133946474Y-40896184D01*
X133946474Y-40896184D01*
G37*
G36*
X138605952Y-41977930D02*
G01*
X138693075Y-41995259D01*
X138802498Y-42040584D01*
X138857211Y-42063247D01*
X139003933Y-42161283D01*
X139004928Y-42161948D01*
X139130552Y-42287572D01*
X139130554Y-42287575D01*
X139229253Y-42435289D01*
X139229253Y-42435290D01*
X139297241Y-42599425D01*
X139309507Y-42661094D01*
X139323565Y-42731764D01*
X139331900Y-42773671D01*
X139331900Y-42951329D01*
X139297241Y-43125575D01*
X139251916Y-43234998D01*
X139229253Y-43289711D01*
X139218282Y-43306130D01*
X139130552Y-43437428D01*
X139004928Y-43563052D01*
X139004925Y-43563054D01*
X138857211Y-43661753D01*
X138802498Y-43684416D01*
X138693075Y-43729741D01*
X138605952Y-43747070D01*
X138518831Y-43764400D01*
X138341169Y-43764400D01*
X138254048Y-43747071D01*
X138166925Y-43729741D01*
X138057502Y-43684416D01*
X138002789Y-43661753D01*
X137855075Y-43563054D01*
X137855072Y-43563052D01*
X137729448Y-43437428D01*
X137641718Y-43306130D01*
X137630747Y-43289711D01*
X137608084Y-43234998D01*
X137562759Y-43125575D01*
X137528100Y-42951329D01*
X137528100Y-42773671D01*
X137536436Y-42731764D01*
X137550493Y-42661094D01*
X137562759Y-42599425D01*
X137630747Y-42435290D01*
X137630747Y-42435289D01*
X137729446Y-42287575D01*
X137729448Y-42287572D01*
X137855072Y-42161948D01*
X137856067Y-42161283D01*
X138002789Y-42063247D01*
X138057502Y-42040584D01*
X138166925Y-41995259D01*
X138254048Y-41977930D01*
X138341169Y-41960600D01*
X138518831Y-41960600D01*
X138605952Y-41977930D01*
X138605952Y-41977930D01*
G37*
G36*
X128445952Y-41977930D02*
G01*
X128533075Y-41995259D01*
X128642498Y-42040584D01*
X128697211Y-42063247D01*
X128843933Y-42161283D01*
X128844928Y-42161948D01*
X128970552Y-42287572D01*
X128970554Y-42287575D01*
X129069253Y-42435289D01*
X129069253Y-42435290D01*
X129137241Y-42599425D01*
X129149507Y-42661094D01*
X129163565Y-42731764D01*
X129171900Y-42773671D01*
X129171900Y-42951329D01*
X129137241Y-43125575D01*
X129091916Y-43234998D01*
X129069253Y-43289711D01*
X129058282Y-43306130D01*
X128970552Y-43437428D01*
X128844928Y-43563052D01*
X128844925Y-43563054D01*
X128697211Y-43661753D01*
X128642498Y-43684416D01*
X128533075Y-43729741D01*
X128445952Y-43747070D01*
X128358831Y-43764400D01*
X128181169Y-43764400D01*
X128094048Y-43747071D01*
X128006925Y-43729741D01*
X127897502Y-43684416D01*
X127842789Y-43661753D01*
X127695075Y-43563054D01*
X127695072Y-43563052D01*
X127569448Y-43437428D01*
X127481718Y-43306130D01*
X127470747Y-43289711D01*
X127448084Y-43234998D01*
X127402759Y-43125575D01*
X127368100Y-42951329D01*
X127368100Y-42773671D01*
X127376436Y-42731764D01*
X127390493Y-42661094D01*
X127402759Y-42599425D01*
X127470747Y-42435290D01*
X127470747Y-42435289D01*
X127569446Y-42287575D01*
X127569448Y-42287572D01*
X127695072Y-42161948D01*
X127696067Y-42161283D01*
X127842789Y-42063247D01*
X127897502Y-42040584D01*
X128006925Y-41995259D01*
X128094048Y-41977930D01*
X128181169Y-41960600D01*
X128358831Y-41960600D01*
X128445952Y-41977930D01*
X128445952Y-41977930D01*
G37*
G36*
X100505952Y-41977930D02*
G01*
X100593075Y-41995259D01*
X100702498Y-42040584D01*
X100757211Y-42063247D01*
X100903933Y-42161283D01*
X100904928Y-42161948D01*
X101030552Y-42287572D01*
X101030554Y-42287575D01*
X101129253Y-42435289D01*
X101129253Y-42435290D01*
X101197241Y-42599425D01*
X101209507Y-42661094D01*
X101223565Y-42731764D01*
X101231900Y-42773671D01*
X101231900Y-42951329D01*
X101197241Y-43125575D01*
X101151916Y-43234998D01*
X101129253Y-43289711D01*
X101118282Y-43306130D01*
X101030552Y-43437428D01*
X100904928Y-43563052D01*
X100904925Y-43563054D01*
X100757211Y-43661753D01*
X100702498Y-43684416D01*
X100593075Y-43729741D01*
X100505952Y-43747070D01*
X100418831Y-43764400D01*
X100241169Y-43764400D01*
X100154048Y-43747071D01*
X100066925Y-43729741D01*
X99957502Y-43684416D01*
X99902789Y-43661753D01*
X99755075Y-43563054D01*
X99755072Y-43563052D01*
X99629448Y-43437428D01*
X99541718Y-43306130D01*
X99530747Y-43289711D01*
X99508084Y-43234998D01*
X99462759Y-43125575D01*
X99428100Y-42951329D01*
X99428100Y-42773671D01*
X99436436Y-42731764D01*
X99450493Y-42661094D01*
X99462759Y-42599425D01*
X99530747Y-42435290D01*
X99530747Y-42435289D01*
X99629446Y-42287575D01*
X99629448Y-42287572D01*
X99755072Y-42161948D01*
X99756067Y-42161283D01*
X99902789Y-42063247D01*
X99957502Y-42040584D01*
X100066925Y-41995259D01*
X100154048Y-41977930D01*
X100241169Y-41960600D01*
X100418831Y-41960600D01*
X100505952Y-41977930D01*
X100505952Y-41977930D01*
G37*
G36*
X90345952Y-41977930D02*
G01*
X90433075Y-41995259D01*
X90542498Y-42040584D01*
X90597211Y-42063247D01*
X90743933Y-42161283D01*
X90744928Y-42161948D01*
X90870552Y-42287572D01*
X90870554Y-42287575D01*
X90969253Y-42435289D01*
X90969253Y-42435290D01*
X91037241Y-42599425D01*
X91049507Y-42661094D01*
X91063565Y-42731764D01*
X91071900Y-42773671D01*
X91071900Y-42951329D01*
X91037241Y-43125575D01*
X90991916Y-43234998D01*
X90969253Y-43289711D01*
X90958282Y-43306130D01*
X90870552Y-43437428D01*
X90744928Y-43563052D01*
X90744925Y-43563054D01*
X90597211Y-43661753D01*
X90542498Y-43684416D01*
X90433075Y-43729741D01*
X90345952Y-43747070D01*
X90258831Y-43764400D01*
X90081169Y-43764400D01*
X89994048Y-43747071D01*
X89906925Y-43729741D01*
X89797502Y-43684416D01*
X89742789Y-43661753D01*
X89595075Y-43563054D01*
X89595072Y-43563052D01*
X89469448Y-43437428D01*
X89381718Y-43306130D01*
X89370747Y-43289711D01*
X89348084Y-43234998D01*
X89302759Y-43125575D01*
X89268100Y-42951329D01*
X89268100Y-42773671D01*
X89276436Y-42731764D01*
X89290493Y-42661094D01*
X89302759Y-42599425D01*
X89370747Y-42435290D01*
X89370747Y-42435289D01*
X89469446Y-42287575D01*
X89469448Y-42287572D01*
X89595072Y-42161948D01*
X89596067Y-42161283D01*
X89742789Y-42063247D01*
X89797502Y-42040584D01*
X89906925Y-41995259D01*
X89994048Y-41977930D01*
X90081169Y-41960600D01*
X90258831Y-41960600D01*
X90345952Y-41977930D01*
X90345952Y-41977930D01*
G37*
G36*
X74008276Y-41396884D02*
G01*
X74225569Y-41486890D01*
X74225571Y-41486891D01*
X74421130Y-41617560D01*
X74587440Y-41783870D01*
X74705528Y-41960600D01*
X74718110Y-41979431D01*
X74808116Y-42196724D01*
X74854000Y-42427400D01*
X74854000Y-42662600D01*
X74808116Y-42893276D01*
X74718110Y-43110569D01*
X74718109Y-43110571D01*
X74587440Y-43306130D01*
X74421130Y-43472440D01*
X74225571Y-43603109D01*
X74225570Y-43603110D01*
X74225569Y-43603110D01*
X74008276Y-43693116D01*
X73777600Y-43739000D01*
X73542400Y-43739000D01*
X73311724Y-43693116D01*
X73094431Y-43603110D01*
X73094430Y-43603110D01*
X73094429Y-43603109D01*
X72898870Y-43472440D01*
X72732560Y-43306130D01*
X72601891Y-43110571D01*
X72601890Y-43110569D01*
X72511884Y-42893276D01*
X72466000Y-42662600D01*
X72466000Y-42427400D01*
X72511884Y-42196724D01*
X72601890Y-41979431D01*
X72614473Y-41960600D01*
X72732560Y-41783870D01*
X72898870Y-41617560D01*
X73094429Y-41486891D01*
X73094431Y-41486890D01*
X73311724Y-41396884D01*
X73542400Y-41351000D01*
X73777600Y-41351000D01*
X74008276Y-41396884D01*
X74008276Y-41396884D01*
G37*
G36*
X79088276Y-41396884D02*
G01*
X79305569Y-41486890D01*
X79305571Y-41486891D01*
X79501130Y-41617560D01*
X79667440Y-41783870D01*
X79785528Y-41960600D01*
X79798110Y-41979431D01*
X79888116Y-42196724D01*
X79934000Y-42427400D01*
X79934000Y-42662600D01*
X79888116Y-42893276D01*
X79798110Y-43110569D01*
X79798109Y-43110571D01*
X79667440Y-43306130D01*
X79501130Y-43472440D01*
X79305571Y-43603109D01*
X79305570Y-43603110D01*
X79305569Y-43603110D01*
X79088276Y-43693116D01*
X78857600Y-43739000D01*
X78622400Y-43739000D01*
X78391724Y-43693116D01*
X78174431Y-43603110D01*
X78174430Y-43603110D01*
X78174429Y-43603109D01*
X77978870Y-43472440D01*
X77812560Y-43306130D01*
X77681891Y-43110571D01*
X77681890Y-43110569D01*
X77591884Y-42893276D01*
X77546000Y-42662600D01*
X77546000Y-42427400D01*
X77591884Y-42196724D01*
X77681890Y-41979431D01*
X77694473Y-41960600D01*
X77812560Y-41783870D01*
X77978870Y-41617560D01*
X78174429Y-41486891D01*
X78174431Y-41486890D01*
X78391724Y-41396884D01*
X78622400Y-41351000D01*
X78857600Y-41351000D01*
X79088276Y-41396884D01*
X79088276Y-41396884D01*
G37*
G36*
X160290483Y-41018335D02*
G01*
X160459240Y-41088236D01*
X160611118Y-41189718D01*
X160740282Y-41318882D01*
X160841764Y-41470760D01*
X160911665Y-41639517D01*
X160947300Y-41818668D01*
X160947300Y-42001332D01*
X160911665Y-42180483D01*
X160841764Y-42349240D01*
X160740282Y-42501118D01*
X160611118Y-42630282D01*
X160459240Y-42731764D01*
X160290483Y-42801665D01*
X160111332Y-42837300D01*
X159928668Y-42837300D01*
X159749517Y-42801665D01*
X159580760Y-42731764D01*
X159428882Y-42630282D01*
X159299718Y-42501118D01*
X159198236Y-42349240D01*
X159128335Y-42180483D01*
X159092700Y-42001332D01*
X159092700Y-41818668D01*
X159128335Y-41639517D01*
X159198236Y-41470760D01*
X159299718Y-41318882D01*
X159428882Y-41189718D01*
X159580760Y-41088236D01*
X159749517Y-41018335D01*
X159928668Y-40982700D01*
X160111332Y-40982700D01*
X160290483Y-41018335D01*
X160290483Y-41018335D01*
G37*
G36*
X145050483Y-41018335D02*
G01*
X145219240Y-41088236D01*
X145371118Y-41189718D01*
X145500282Y-41318882D01*
X145601764Y-41470760D01*
X145671665Y-41639517D01*
X145707300Y-41818668D01*
X145707300Y-42001332D01*
X145671665Y-42180483D01*
X145601764Y-42349240D01*
X145500282Y-42501118D01*
X145371118Y-42630282D01*
X145219240Y-42731764D01*
X145050483Y-42801665D01*
X144871332Y-42837300D01*
X144688668Y-42837300D01*
X144509517Y-42801665D01*
X144340760Y-42731764D01*
X144188882Y-42630282D01*
X144059718Y-42501118D01*
X143958236Y-42349240D01*
X143888335Y-42180483D01*
X143852700Y-42001332D01*
X143852700Y-41818668D01*
X143888335Y-41639517D01*
X143958236Y-41470760D01*
X144059718Y-41318882D01*
X144188882Y-41189718D01*
X144340760Y-41088236D01*
X144509517Y-41018335D01*
X144688668Y-40982700D01*
X144871332Y-40982700D01*
X145050483Y-41018335D01*
X145050483Y-41018335D01*
G37*
G36*
X124049549Y-39352366D02*
G01*
X124160734Y-39374482D01*
X124370203Y-39461247D01*
X124558720Y-39587210D01*
X124719040Y-39747530D01*
X124829047Y-39912167D01*
X124845004Y-39936049D01*
X124870416Y-39997400D01*
X124931513Y-40144900D01*
X124931768Y-40145517D01*
X124976000Y-40367885D01*
X124976000Y-40594615D01*
X124960850Y-40670777D01*
X124931768Y-40816984D01*
X124845003Y-41026453D01*
X124719040Y-41214970D01*
X124558720Y-41375290D01*
X124370203Y-41501253D01*
X124160734Y-41588018D01*
X124049549Y-41610134D01*
X123938365Y-41632250D01*
X123711635Y-41632250D01*
X123600451Y-41610134D01*
X123489266Y-41588018D01*
X123279797Y-41501253D01*
X123091280Y-41375290D01*
X122930960Y-41214970D01*
X122804997Y-41026453D01*
X122718232Y-40816984D01*
X122689150Y-40670777D01*
X122674000Y-40594615D01*
X122674000Y-40367885D01*
X122718232Y-40145517D01*
X122718488Y-40144900D01*
X122779584Y-39997400D01*
X122804996Y-39936049D01*
X122820953Y-39912167D01*
X122930960Y-39747530D01*
X123091280Y-39587210D01*
X123279797Y-39461247D01*
X123489266Y-39374482D01*
X123600451Y-39352366D01*
X123711635Y-39330250D01*
X123938365Y-39330250D01*
X124049549Y-39352366D01*
X124049549Y-39352366D01*
G37*
G36*
X91788276Y-39174384D02*
G01*
X92005569Y-39264390D01*
X92005571Y-39264391D01*
X92201130Y-39395060D01*
X92367440Y-39561370D01*
X92491829Y-39747530D01*
X92498110Y-39756931D01*
X92588116Y-39974224D01*
X92634000Y-40204900D01*
X92634000Y-40440100D01*
X92588116Y-40670776D01*
X92527555Y-40816983D01*
X92498109Y-40888071D01*
X92367440Y-41083630D01*
X92201130Y-41249940D01*
X92005571Y-41380609D01*
X92005570Y-41380610D01*
X92005569Y-41380610D01*
X91788276Y-41470616D01*
X91557600Y-41516500D01*
X91322400Y-41516500D01*
X91091724Y-41470616D01*
X90874431Y-41380610D01*
X90874430Y-41380610D01*
X90874429Y-41380609D01*
X90678870Y-41249940D01*
X90512560Y-41083630D01*
X90381891Y-40888071D01*
X90352445Y-40816983D01*
X90291884Y-40670776D01*
X90246000Y-40440100D01*
X90246000Y-40204900D01*
X90291884Y-39974224D01*
X90381890Y-39756931D01*
X90388172Y-39747530D01*
X90512560Y-39561370D01*
X90678870Y-39395060D01*
X90874429Y-39264391D01*
X90874431Y-39264390D01*
X91091724Y-39174384D01*
X91322400Y-39128500D01*
X91557600Y-39128500D01*
X91788276Y-39174384D01*
X91788276Y-39174384D01*
G37*
G36*
X99408276Y-39174384D02*
G01*
X99625569Y-39264390D01*
X99625571Y-39264391D01*
X99821130Y-39395060D01*
X99987440Y-39561370D01*
X100111829Y-39747530D01*
X100118110Y-39756931D01*
X100208116Y-39974224D01*
X100254000Y-40204900D01*
X100254000Y-40440100D01*
X100208116Y-40670776D01*
X100147555Y-40816983D01*
X100118109Y-40888071D01*
X99987440Y-41083630D01*
X99821130Y-41249940D01*
X99625571Y-41380609D01*
X99625570Y-41380610D01*
X99625569Y-41380610D01*
X99408276Y-41470616D01*
X99177600Y-41516500D01*
X98942400Y-41516500D01*
X98711724Y-41470616D01*
X98494431Y-41380610D01*
X98494430Y-41380610D01*
X98494429Y-41380609D01*
X98298870Y-41249940D01*
X98132560Y-41083630D01*
X98001891Y-40888071D01*
X97972445Y-40816983D01*
X97911884Y-40670776D01*
X97866000Y-40440100D01*
X97866000Y-40204900D01*
X97911884Y-39974224D01*
X98001890Y-39756931D01*
X98008172Y-39747530D01*
X98132560Y-39561370D01*
X98298870Y-39395060D01*
X98494429Y-39264391D01*
X98494431Y-39264390D01*
X98711724Y-39174384D01*
X98942400Y-39128500D01*
X99177600Y-39128500D01*
X99408276Y-39174384D01*
X99408276Y-39174384D01*
G37*
G36*
X129888276Y-39174384D02*
G01*
X130105569Y-39264390D01*
X130105571Y-39264391D01*
X130301130Y-39395060D01*
X130467440Y-39561370D01*
X130591829Y-39747530D01*
X130598110Y-39756931D01*
X130688116Y-39974224D01*
X130734000Y-40204900D01*
X130734000Y-40440100D01*
X130688116Y-40670776D01*
X130627555Y-40816983D01*
X130598109Y-40888071D01*
X130467440Y-41083630D01*
X130301130Y-41249940D01*
X130105571Y-41380609D01*
X130105570Y-41380610D01*
X130105569Y-41380610D01*
X129888276Y-41470616D01*
X129657600Y-41516500D01*
X129422400Y-41516500D01*
X129191724Y-41470616D01*
X128974431Y-41380610D01*
X128974430Y-41380610D01*
X128974429Y-41380609D01*
X128778870Y-41249940D01*
X128612560Y-41083630D01*
X128481891Y-40888071D01*
X128452445Y-40816983D01*
X128391884Y-40670776D01*
X128346000Y-40440100D01*
X128346000Y-40204900D01*
X128391884Y-39974224D01*
X128481890Y-39756931D01*
X128488172Y-39747530D01*
X128612560Y-39561370D01*
X128778870Y-39395060D01*
X128974429Y-39264391D01*
X128974431Y-39264390D01*
X129191724Y-39174384D01*
X129422400Y-39128500D01*
X129657600Y-39128500D01*
X129888276Y-39174384D01*
X129888276Y-39174384D01*
G37*
G36*
X137508276Y-39174384D02*
G01*
X137725569Y-39264390D01*
X137725571Y-39264391D01*
X137921130Y-39395060D01*
X138087440Y-39561370D01*
X138211829Y-39747530D01*
X138218110Y-39756931D01*
X138308116Y-39974224D01*
X138354000Y-40204900D01*
X138354000Y-40440100D01*
X138308116Y-40670776D01*
X138247555Y-40816983D01*
X138218109Y-40888071D01*
X138087440Y-41083630D01*
X137921130Y-41249940D01*
X137725571Y-41380609D01*
X137725570Y-41380610D01*
X137725569Y-41380610D01*
X137508276Y-41470616D01*
X137277600Y-41516500D01*
X137042400Y-41516500D01*
X136811724Y-41470616D01*
X136594431Y-41380610D01*
X136594430Y-41380610D01*
X136594429Y-41380609D01*
X136398870Y-41249940D01*
X136232560Y-41083630D01*
X136101891Y-40888071D01*
X136072445Y-40816983D01*
X136011884Y-40670776D01*
X135966000Y-40440100D01*
X135966000Y-40204900D01*
X136011884Y-39974224D01*
X136101890Y-39756931D01*
X136108172Y-39747530D01*
X136232560Y-39561370D01*
X136398870Y-39395060D01*
X136594429Y-39264391D01*
X136594431Y-39264390D01*
X136811724Y-39174384D01*
X137042400Y-39128500D01*
X137277600Y-39128500D01*
X137508276Y-39174384D01*
X137508276Y-39174384D01*
G37*
G36*
X160290483Y-38478335D02*
G01*
X160459240Y-38548236D01*
X160611118Y-38649718D01*
X160740282Y-38778882D01*
X160841764Y-38930760D01*
X160911665Y-39099517D01*
X160947300Y-39278668D01*
X160947300Y-39461332D01*
X160911665Y-39640483D01*
X160841764Y-39809240D01*
X160740282Y-39961118D01*
X160611118Y-40090282D01*
X160459240Y-40191764D01*
X160290483Y-40261665D01*
X160111332Y-40297300D01*
X159928668Y-40297300D01*
X159749517Y-40261665D01*
X159580760Y-40191764D01*
X159428882Y-40090282D01*
X159299718Y-39961118D01*
X159198236Y-39809240D01*
X159128335Y-39640483D01*
X159092700Y-39461332D01*
X159092700Y-39278668D01*
X159128335Y-39099517D01*
X159198236Y-38930760D01*
X159299718Y-38778882D01*
X159428882Y-38649718D01*
X159580760Y-38548236D01*
X159749517Y-38478335D01*
X159928668Y-38442700D01*
X160111332Y-38442700D01*
X160290483Y-38478335D01*
X160290483Y-38478335D01*
G37*
G36*
X145050483Y-38478335D02*
G01*
X145219240Y-38548236D01*
X145371118Y-38649718D01*
X145500282Y-38778882D01*
X145601764Y-38930760D01*
X145671665Y-39099517D01*
X145707300Y-39278668D01*
X145707300Y-39461332D01*
X145671665Y-39640483D01*
X145601764Y-39809240D01*
X145500282Y-39961118D01*
X145371118Y-40090282D01*
X145219240Y-40191764D01*
X145050483Y-40261665D01*
X144871332Y-40297300D01*
X144688668Y-40297300D01*
X144509517Y-40261665D01*
X144340760Y-40191764D01*
X144188882Y-40090282D01*
X144059718Y-39961118D01*
X143958236Y-39809240D01*
X143888335Y-39640483D01*
X143852700Y-39461332D01*
X143852700Y-39278668D01*
X143888335Y-39099517D01*
X143958236Y-38930760D01*
X144059718Y-38778882D01*
X144188882Y-38649718D01*
X144340760Y-38548236D01*
X144509517Y-38478335D01*
X144688668Y-38442700D01*
X144871332Y-38442700D01*
X145050483Y-38478335D01*
X145050483Y-38478335D01*
G37*
G36*
X114896474Y-36133684D02*
G01*
X115114474Y-36223983D01*
X115268623Y-36287833D01*
X115603548Y-36511623D01*
X115888377Y-36796452D01*
X116112167Y-37131377D01*
X116160888Y-37249000D01*
X116266316Y-37503526D01*
X116344900Y-37898594D01*
X116344900Y-38301406D01*
X116266316Y-38696474D01*
X116206613Y-38840609D01*
X116112167Y-39068623D01*
X115888377Y-39403548D01*
X115603548Y-39688377D01*
X115268623Y-39912167D01*
X115210971Y-39936047D01*
X114896474Y-40066316D01*
X114501406Y-40144900D01*
X114098594Y-40144900D01*
X113703526Y-40066316D01*
X113389029Y-39936047D01*
X113331377Y-39912167D01*
X112996452Y-39688377D01*
X112711623Y-39403548D01*
X112487833Y-39068623D01*
X112393387Y-38840609D01*
X112333684Y-38696474D01*
X112255100Y-38301406D01*
X112255100Y-37898594D01*
X112333684Y-37503526D01*
X112439112Y-37249000D01*
X112487833Y-37131377D01*
X112711623Y-36796452D01*
X112996452Y-36511623D01*
X113331377Y-36287833D01*
X113485526Y-36223983D01*
X113703526Y-36133684D01*
X114098594Y-36055100D01*
X114501406Y-36055100D01*
X114896474Y-36133684D01*
X114896474Y-36133684D01*
G37*
G36*
X119555952Y-37215430D02*
G01*
X119643075Y-37232759D01*
X119731149Y-37269241D01*
X119807211Y-37300747D01*
X119939284Y-37388995D01*
X119954928Y-37399448D01*
X120080552Y-37525072D01*
X120080554Y-37525075D01*
X120179253Y-37672789D01*
X120179253Y-37672790D01*
X120247241Y-37836925D01*
X120281900Y-38011171D01*
X120281900Y-38188829D01*
X120247241Y-38363075D01*
X120214259Y-38442700D01*
X120179253Y-38527211D01*
X120147269Y-38575078D01*
X120080552Y-38674928D01*
X119954928Y-38800552D01*
X119954925Y-38800554D01*
X119807211Y-38899253D01*
X119752498Y-38921916D01*
X119643075Y-38967241D01*
X119555952Y-38984570D01*
X119468831Y-39001900D01*
X119291169Y-39001900D01*
X119204048Y-38984570D01*
X119116925Y-38967241D01*
X119007502Y-38921916D01*
X118952789Y-38899253D01*
X118805075Y-38800554D01*
X118805072Y-38800552D01*
X118679448Y-38674928D01*
X118612731Y-38575078D01*
X118580747Y-38527211D01*
X118545741Y-38442700D01*
X118512759Y-38363075D01*
X118478100Y-38188829D01*
X118478100Y-38011171D01*
X118512759Y-37836925D01*
X118580747Y-37672790D01*
X118580747Y-37672789D01*
X118679446Y-37525075D01*
X118679448Y-37525072D01*
X118805072Y-37399448D01*
X118820716Y-37388995D01*
X118952789Y-37300747D01*
X119028851Y-37269241D01*
X119116925Y-37232759D01*
X119204048Y-37215430D01*
X119291169Y-37198100D01*
X119468831Y-37198100D01*
X119555952Y-37215430D01*
X119555952Y-37215430D01*
G37*
G36*
X109395952Y-37215430D02*
G01*
X109483075Y-37232759D01*
X109571149Y-37269241D01*
X109647211Y-37300747D01*
X109779284Y-37388995D01*
X109794928Y-37399448D01*
X109920552Y-37525072D01*
X109920554Y-37525075D01*
X110019253Y-37672789D01*
X110019253Y-37672790D01*
X110087241Y-37836925D01*
X110121900Y-38011171D01*
X110121900Y-38188829D01*
X110087241Y-38363075D01*
X110054259Y-38442700D01*
X110019253Y-38527211D01*
X109987269Y-38575078D01*
X109920552Y-38674928D01*
X109794928Y-38800552D01*
X109794925Y-38800554D01*
X109647211Y-38899253D01*
X109592498Y-38921916D01*
X109483075Y-38967241D01*
X109395952Y-38984570D01*
X109308831Y-39001900D01*
X109131169Y-39001900D01*
X109044048Y-38984570D01*
X108956925Y-38967241D01*
X108847502Y-38921916D01*
X108792789Y-38899253D01*
X108645075Y-38800554D01*
X108645072Y-38800552D01*
X108519448Y-38674928D01*
X108452731Y-38575078D01*
X108420747Y-38527211D01*
X108385741Y-38442700D01*
X108352759Y-38363075D01*
X108318100Y-38188829D01*
X108318100Y-38011171D01*
X108352759Y-37836925D01*
X108420747Y-37672790D01*
X108420747Y-37672789D01*
X108519446Y-37525075D01*
X108519448Y-37525072D01*
X108645072Y-37399448D01*
X108660716Y-37388995D01*
X108792789Y-37300747D01*
X108868851Y-37269241D01*
X108956925Y-37232759D01*
X109044048Y-37215430D01*
X109131169Y-37198100D01*
X109308831Y-37198100D01*
X109395952Y-37215430D01*
X109395952Y-37215430D01*
G37*
G36*
X131158276Y-36634384D02*
G01*
X131336280Y-36708116D01*
X131375571Y-36724391D01*
X131571130Y-36855060D01*
X131737440Y-37021370D01*
X131855528Y-37198100D01*
X131868110Y-37216931D01*
X131958116Y-37434224D01*
X132004000Y-37664900D01*
X132004000Y-37900100D01*
X131958116Y-38130776D01*
X131868110Y-38348069D01*
X131868109Y-38348071D01*
X131737440Y-38543630D01*
X131571130Y-38709940D01*
X131375571Y-38840609D01*
X131375570Y-38840610D01*
X131375569Y-38840610D01*
X131158276Y-38930616D01*
X130927600Y-38976500D01*
X130692400Y-38976500D01*
X130461724Y-38930616D01*
X130244431Y-38840610D01*
X130244430Y-38840610D01*
X130244429Y-38840609D01*
X130048870Y-38709940D01*
X129882560Y-38543630D01*
X129751891Y-38348071D01*
X129751890Y-38348069D01*
X129661884Y-38130776D01*
X129616000Y-37900100D01*
X129616000Y-37664900D01*
X129661884Y-37434224D01*
X129751890Y-37216931D01*
X129764473Y-37198100D01*
X129882560Y-37021370D01*
X130048870Y-36855060D01*
X130244429Y-36724391D01*
X130283720Y-36708116D01*
X130461724Y-36634384D01*
X130692400Y-36588500D01*
X130927600Y-36588500D01*
X131158276Y-36634384D01*
X131158276Y-36634384D01*
G37*
G36*
X93058276Y-36634384D02*
G01*
X93236280Y-36708116D01*
X93275571Y-36724391D01*
X93471130Y-36855060D01*
X93637440Y-37021370D01*
X93755528Y-37198100D01*
X93768110Y-37216931D01*
X93858116Y-37434224D01*
X93904000Y-37664900D01*
X93904000Y-37900100D01*
X93858116Y-38130776D01*
X93768110Y-38348069D01*
X93768109Y-38348071D01*
X93637440Y-38543630D01*
X93471130Y-38709940D01*
X93275571Y-38840609D01*
X93275570Y-38840610D01*
X93275569Y-38840610D01*
X93058276Y-38930616D01*
X92827600Y-38976500D01*
X92592400Y-38976500D01*
X92361724Y-38930616D01*
X92144431Y-38840610D01*
X92144430Y-38840610D01*
X92144429Y-38840609D01*
X91948870Y-38709940D01*
X91782560Y-38543630D01*
X91651891Y-38348071D01*
X91651890Y-38348069D01*
X91561884Y-38130776D01*
X91516000Y-37900100D01*
X91516000Y-37664900D01*
X91561884Y-37434224D01*
X91651890Y-37216931D01*
X91664473Y-37198100D01*
X91782560Y-37021370D01*
X91948870Y-36855060D01*
X92144429Y-36724391D01*
X92183720Y-36708116D01*
X92361724Y-36634384D01*
X92592400Y-36588500D01*
X92827600Y-36588500D01*
X93058276Y-36634384D01*
X93058276Y-36634384D01*
G37*
G36*
X136238276Y-36634384D02*
G01*
X136416280Y-36708116D01*
X136455571Y-36724391D01*
X136651130Y-36855060D01*
X136817440Y-37021370D01*
X136935528Y-37198100D01*
X136948110Y-37216931D01*
X137038116Y-37434224D01*
X137084000Y-37664900D01*
X137084000Y-37900100D01*
X137038116Y-38130776D01*
X136948110Y-38348069D01*
X136948109Y-38348071D01*
X136817440Y-38543630D01*
X136651130Y-38709940D01*
X136455571Y-38840609D01*
X136455570Y-38840610D01*
X136455569Y-38840610D01*
X136238276Y-38930616D01*
X136007600Y-38976500D01*
X135772400Y-38976500D01*
X135541724Y-38930616D01*
X135324431Y-38840610D01*
X135324430Y-38840610D01*
X135324429Y-38840609D01*
X135128870Y-38709940D01*
X134962560Y-38543630D01*
X134831891Y-38348071D01*
X134831890Y-38348069D01*
X134741884Y-38130776D01*
X134696000Y-37900100D01*
X134696000Y-37664900D01*
X134741884Y-37434224D01*
X134831890Y-37216931D01*
X134844473Y-37198100D01*
X134962560Y-37021370D01*
X135128870Y-36855060D01*
X135324429Y-36724391D01*
X135363720Y-36708116D01*
X135541724Y-36634384D01*
X135772400Y-36588500D01*
X136007600Y-36588500D01*
X136238276Y-36634384D01*
X136238276Y-36634384D01*
G37*
G36*
X98138276Y-36634384D02*
G01*
X98316280Y-36708116D01*
X98355571Y-36724391D01*
X98551130Y-36855060D01*
X98717440Y-37021370D01*
X98835528Y-37198100D01*
X98848110Y-37216931D01*
X98938116Y-37434224D01*
X98984000Y-37664900D01*
X98984000Y-37900100D01*
X98938116Y-38130776D01*
X98848110Y-38348069D01*
X98848109Y-38348071D01*
X98717440Y-38543630D01*
X98551130Y-38709940D01*
X98355571Y-38840609D01*
X98355570Y-38840610D01*
X98355569Y-38840610D01*
X98138276Y-38930616D01*
X97907600Y-38976500D01*
X97672400Y-38976500D01*
X97441724Y-38930616D01*
X97224431Y-38840610D01*
X97224430Y-38840610D01*
X97224429Y-38840609D01*
X97028870Y-38709940D01*
X96862560Y-38543630D01*
X96731891Y-38348071D01*
X96731890Y-38348069D01*
X96641884Y-38130776D01*
X96596000Y-37900100D01*
X96596000Y-37664900D01*
X96641884Y-37434224D01*
X96731890Y-37216931D01*
X96744473Y-37198100D01*
X96862560Y-37021370D01*
X97028870Y-36855060D01*
X97224429Y-36724391D01*
X97263720Y-36708116D01*
X97441724Y-36634384D01*
X97672400Y-36588500D01*
X97907600Y-36588500D01*
X98138276Y-36634384D01*
X98138276Y-36634384D01*
G37*
G36*
X81605573Y-37261313D02*
G01*
X81765992Y-37309976D01*
X81898656Y-37380886D01*
X81913828Y-37388996D01*
X82043409Y-37495341D01*
X82149754Y-37624922D01*
X82149755Y-37624924D01*
X82228774Y-37772758D01*
X82277437Y-37933177D01*
X82293867Y-38100000D01*
X82277437Y-38266823D01*
X82228774Y-38427242D01*
X82201464Y-38478335D01*
X82149754Y-38575078D01*
X82043409Y-38704659D01*
X81913828Y-38811004D01*
X81913826Y-38811005D01*
X81765992Y-38890024D01*
X81605573Y-38938687D01*
X81480554Y-38951000D01*
X81396946Y-38951000D01*
X81271927Y-38938687D01*
X81111508Y-38890024D01*
X80963674Y-38811005D01*
X80963672Y-38811004D01*
X80834091Y-38704659D01*
X80727746Y-38575078D01*
X80676036Y-38478335D01*
X80648726Y-38427242D01*
X80600063Y-38266823D01*
X80583633Y-38100000D01*
X80600063Y-37933177D01*
X80648726Y-37772758D01*
X80727745Y-37624924D01*
X80727746Y-37624922D01*
X80834091Y-37495341D01*
X80963672Y-37388996D01*
X80978844Y-37380886D01*
X81111508Y-37309976D01*
X81271927Y-37261313D01*
X81396946Y-37249000D01*
X81480554Y-37249000D01*
X81605573Y-37261313D01*
X81605573Y-37261313D01*
G37*
G36*
X74669750Y-38951000D02*
G01*
X72967750Y-38951000D01*
X72967750Y-37249000D01*
X74669750Y-37249000D01*
X74669750Y-38951000D01*
X74669750Y-38951000D01*
G37*
G36*
X145050483Y-35938335D02*
G01*
X145219240Y-36008236D01*
X145371118Y-36109718D01*
X145500282Y-36238882D01*
X145601764Y-36390760D01*
X145671665Y-36559517D01*
X145707300Y-36738668D01*
X145707300Y-36921332D01*
X145671665Y-37100483D01*
X145601764Y-37269240D01*
X145500282Y-37421118D01*
X145371118Y-37550282D01*
X145219240Y-37651764D01*
X145050483Y-37721665D01*
X144871332Y-37757300D01*
X144688668Y-37757300D01*
X144509517Y-37721665D01*
X144340760Y-37651764D01*
X144188882Y-37550282D01*
X144059718Y-37421118D01*
X143958236Y-37269240D01*
X143888335Y-37100483D01*
X143852700Y-36921332D01*
X143852700Y-36738668D01*
X143888335Y-36559517D01*
X143958236Y-36390760D01*
X144059718Y-36238882D01*
X144188882Y-36109718D01*
X144340760Y-36008236D01*
X144509517Y-35938335D01*
X144688668Y-35902700D01*
X144871332Y-35902700D01*
X145050483Y-35938335D01*
X145050483Y-35938335D01*
G37*
G36*
X160290483Y-35938335D02*
G01*
X160459240Y-36008236D01*
X160611118Y-36109718D01*
X160740282Y-36238882D01*
X160841764Y-36390760D01*
X160911665Y-36559517D01*
X160947300Y-36738668D01*
X160947300Y-36921332D01*
X160911665Y-37100483D01*
X160841764Y-37269240D01*
X160740282Y-37421118D01*
X160611118Y-37550282D01*
X160459240Y-37651764D01*
X160290483Y-37721665D01*
X160111332Y-37757300D01*
X159928668Y-37757300D01*
X159749517Y-37721665D01*
X159580760Y-37651764D01*
X159428882Y-37550282D01*
X159299718Y-37421118D01*
X159198236Y-37269240D01*
X159128335Y-37100483D01*
X159092700Y-36921332D01*
X159092700Y-36738668D01*
X159128335Y-36559517D01*
X159198236Y-36390760D01*
X159299718Y-36238882D01*
X159428882Y-36109718D01*
X159580760Y-36008236D01*
X159749517Y-35938335D01*
X159928668Y-35902700D01*
X160111332Y-35902700D01*
X160290483Y-35938335D01*
X160290483Y-35938335D01*
G37*
G36*
X110838276Y-34411884D02*
G01*
X111055569Y-34501890D01*
X111055571Y-34501891D01*
X111251130Y-34632560D01*
X111417440Y-34798870D01*
X111472397Y-34881118D01*
X111548110Y-34994431D01*
X111638116Y-35211724D01*
X111684000Y-35442400D01*
X111684000Y-35677600D01*
X111638116Y-35908276D01*
X111577299Y-36055100D01*
X111548109Y-36125571D01*
X111417440Y-36321130D01*
X111251130Y-36487440D01*
X111055571Y-36618109D01*
X111055570Y-36618110D01*
X111055569Y-36618110D01*
X110838276Y-36708116D01*
X110607600Y-36754000D01*
X110372400Y-36754000D01*
X110141724Y-36708116D01*
X109924431Y-36618110D01*
X109924430Y-36618110D01*
X109924429Y-36618109D01*
X109728870Y-36487440D01*
X109562560Y-36321130D01*
X109431891Y-36125571D01*
X109402701Y-36055100D01*
X109341884Y-35908276D01*
X109296000Y-35677600D01*
X109296000Y-35442400D01*
X109341884Y-35211724D01*
X109431890Y-34994431D01*
X109507604Y-34881118D01*
X109562560Y-34798870D01*
X109728870Y-34632560D01*
X109924429Y-34501891D01*
X109924431Y-34501890D01*
X110141724Y-34411884D01*
X110372400Y-34366000D01*
X110607600Y-34366000D01*
X110838276Y-34411884D01*
X110838276Y-34411884D01*
G37*
G36*
X118458276Y-34411884D02*
G01*
X118675569Y-34501890D01*
X118675571Y-34501891D01*
X118871130Y-34632560D01*
X119037440Y-34798870D01*
X119092397Y-34881118D01*
X119168110Y-34994431D01*
X119258116Y-35211724D01*
X119304000Y-35442400D01*
X119304000Y-35677600D01*
X119258116Y-35908276D01*
X119197299Y-36055100D01*
X119168109Y-36125571D01*
X119037440Y-36321130D01*
X118871130Y-36487440D01*
X118675571Y-36618109D01*
X118675570Y-36618110D01*
X118675569Y-36618110D01*
X118458276Y-36708116D01*
X118227600Y-36754000D01*
X117992400Y-36754000D01*
X117761724Y-36708116D01*
X117544431Y-36618110D01*
X117544430Y-36618110D01*
X117544429Y-36618109D01*
X117348870Y-36487440D01*
X117182560Y-36321130D01*
X117051891Y-36125571D01*
X117022701Y-36055100D01*
X116961884Y-35908276D01*
X116916000Y-35677600D01*
X116916000Y-35442400D01*
X116961884Y-35211724D01*
X117051890Y-34994431D01*
X117127604Y-34881118D01*
X117182560Y-34798870D01*
X117348870Y-34632560D01*
X117544429Y-34501891D01*
X117544431Y-34501890D01*
X117761724Y-34411884D01*
X117992400Y-34366000D01*
X118227600Y-34366000D01*
X118458276Y-34411884D01*
X118458276Y-34411884D01*
G37*
G36*
X160290483Y-33398335D02*
G01*
X160459240Y-33468236D01*
X160611118Y-33569718D01*
X160740282Y-33698882D01*
X160841764Y-33850760D01*
X160911665Y-34019517D01*
X160947300Y-34198668D01*
X160947300Y-34381332D01*
X160911665Y-34560483D01*
X160841764Y-34729240D01*
X160740282Y-34881118D01*
X160611118Y-35010282D01*
X160459240Y-35111764D01*
X160290483Y-35181665D01*
X160111332Y-35217300D01*
X159928668Y-35217300D01*
X159749517Y-35181665D01*
X159580760Y-35111764D01*
X159428882Y-35010282D01*
X159299718Y-34881118D01*
X159198236Y-34729240D01*
X159128335Y-34560483D01*
X159092700Y-34381332D01*
X159092700Y-34198668D01*
X159128335Y-34019517D01*
X159198236Y-33850760D01*
X159299718Y-33698882D01*
X159428882Y-33569718D01*
X159580760Y-33468236D01*
X159749517Y-33398335D01*
X159928668Y-33362700D01*
X160111332Y-33362700D01*
X160290483Y-33398335D01*
X160290483Y-33398335D01*
G37*
G36*
X145050483Y-33398335D02*
G01*
X145219240Y-33468236D01*
X145371118Y-33569718D01*
X145500282Y-33698882D01*
X145601764Y-33850760D01*
X145671665Y-34019517D01*
X145707300Y-34198668D01*
X145707300Y-34381332D01*
X145671665Y-34560483D01*
X145601764Y-34729240D01*
X145500282Y-34881118D01*
X145371118Y-35010282D01*
X145219240Y-35111764D01*
X145050483Y-35181665D01*
X144871332Y-35217300D01*
X144688668Y-35217300D01*
X144509517Y-35181665D01*
X144340760Y-35111764D01*
X144188882Y-35010282D01*
X144059718Y-34881118D01*
X143958236Y-34729240D01*
X143888335Y-34560483D01*
X143852700Y-34381332D01*
X143852700Y-34198668D01*
X143888335Y-34019517D01*
X143958236Y-33850760D01*
X144059718Y-33698882D01*
X144188882Y-33569718D01*
X144340760Y-33468236D01*
X144509517Y-33398335D01*
X144688668Y-33362700D01*
X144871332Y-33362700D01*
X145050483Y-33398335D01*
X145050483Y-33398335D01*
G37*
G36*
X117188276Y-31871884D02*
G01*
X117405569Y-31961890D01*
X117405571Y-31961891D01*
X117601130Y-32092560D01*
X117767440Y-32258870D01*
X117822397Y-32341118D01*
X117898110Y-32454431D01*
X117988116Y-32671724D01*
X118034000Y-32902400D01*
X118034000Y-33137600D01*
X117988116Y-33368276D01*
X117931763Y-33504323D01*
X117898109Y-33585571D01*
X117767440Y-33781130D01*
X117601130Y-33947440D01*
X117405571Y-34078109D01*
X117405570Y-34078110D01*
X117405569Y-34078110D01*
X117188276Y-34168116D01*
X116957600Y-34214000D01*
X116722400Y-34214000D01*
X116491724Y-34168116D01*
X116274431Y-34078110D01*
X116274430Y-34078110D01*
X116274429Y-34078109D01*
X116078870Y-33947440D01*
X115912560Y-33781130D01*
X115781891Y-33585571D01*
X115748237Y-33504323D01*
X115691884Y-33368276D01*
X115646000Y-33137600D01*
X115646000Y-32902400D01*
X115691884Y-32671724D01*
X115781890Y-32454431D01*
X115857604Y-32341118D01*
X115912560Y-32258870D01*
X116078870Y-32092560D01*
X116274429Y-31961891D01*
X116274431Y-31961890D01*
X116491724Y-31871884D01*
X116722400Y-31826000D01*
X116957600Y-31826000D01*
X117188276Y-31871884D01*
X117188276Y-31871884D01*
G37*
G36*
X112108276Y-31871884D02*
G01*
X112325569Y-31961890D01*
X112325571Y-31961891D01*
X112521130Y-32092560D01*
X112687440Y-32258870D01*
X112742397Y-32341118D01*
X112818110Y-32454431D01*
X112908116Y-32671724D01*
X112954000Y-32902400D01*
X112954000Y-33137600D01*
X112908116Y-33368276D01*
X112851763Y-33504323D01*
X112818109Y-33585571D01*
X112687440Y-33781130D01*
X112521130Y-33947440D01*
X112325571Y-34078109D01*
X112325570Y-34078110D01*
X112325569Y-34078110D01*
X112108276Y-34168116D01*
X111877600Y-34214000D01*
X111642400Y-34214000D01*
X111411724Y-34168116D01*
X111194431Y-34078110D01*
X111194430Y-34078110D01*
X111194429Y-34078109D01*
X110998870Y-33947440D01*
X110832560Y-33781130D01*
X110701891Y-33585571D01*
X110668237Y-33504323D01*
X110611884Y-33368276D01*
X110566000Y-33137600D01*
X110566000Y-32902400D01*
X110611884Y-32671724D01*
X110701890Y-32454431D01*
X110777604Y-32341118D01*
X110832560Y-32258870D01*
X110998870Y-32092560D01*
X111194429Y-31961891D01*
X111194431Y-31961890D01*
X111411724Y-31871884D01*
X111642400Y-31826000D01*
X111877600Y-31826000D01*
X112108276Y-31871884D01*
X112108276Y-31871884D01*
G37*
G36*
X138755573Y-32498813D02*
G01*
X138915992Y-32547476D01*
X139048656Y-32618386D01*
X139063828Y-32626496D01*
X139193409Y-32732841D01*
X139299754Y-32862422D01*
X139299755Y-32862424D01*
X139378774Y-33010258D01*
X139427437Y-33170677D01*
X139443867Y-33337500D01*
X139427437Y-33504323D01*
X139378774Y-33664742D01*
X139316563Y-33781130D01*
X139299754Y-33812578D01*
X139193409Y-33942159D01*
X139063828Y-34048504D01*
X139063826Y-34048505D01*
X138915992Y-34127524D01*
X138755573Y-34176187D01*
X138630554Y-34188500D01*
X138546946Y-34188500D01*
X138421927Y-34176187D01*
X138261508Y-34127524D01*
X138113674Y-34048505D01*
X138113672Y-34048504D01*
X137984091Y-33942159D01*
X137877746Y-33812578D01*
X137860937Y-33781130D01*
X137798726Y-33664742D01*
X137750063Y-33504323D01*
X137733633Y-33337500D01*
X137750063Y-33170677D01*
X137798726Y-33010258D01*
X137877745Y-32862424D01*
X137877746Y-32862422D01*
X137984091Y-32732841D01*
X138113672Y-32626496D01*
X138128844Y-32618386D01*
X138261508Y-32547476D01*
X138421927Y-32498813D01*
X138546946Y-32486500D01*
X138630554Y-32486500D01*
X138755573Y-32498813D01*
X138755573Y-32498813D01*
G37*
G36*
X131819750Y-34188500D02*
G01*
X130117750Y-34188500D01*
X130117750Y-32486500D01*
X131819750Y-32486500D01*
X131819750Y-34188500D01*
X131819750Y-34188500D01*
G37*
G36*
X93719750Y-34188500D02*
G01*
X92017750Y-34188500D01*
X92017750Y-32486500D01*
X93719750Y-32486500D01*
X93719750Y-34188500D01*
X93719750Y-34188500D01*
G37*
G36*
X100655573Y-32498813D02*
G01*
X100815992Y-32547476D01*
X100948656Y-32618386D01*
X100963828Y-32626496D01*
X101093409Y-32732841D01*
X101199754Y-32862422D01*
X101199755Y-32862424D01*
X101278774Y-33010258D01*
X101327437Y-33170677D01*
X101343867Y-33337500D01*
X101327437Y-33504323D01*
X101278774Y-33664742D01*
X101216563Y-33781130D01*
X101199754Y-33812578D01*
X101093409Y-33942159D01*
X100963828Y-34048504D01*
X100963826Y-34048505D01*
X100815992Y-34127524D01*
X100655573Y-34176187D01*
X100530554Y-34188500D01*
X100446946Y-34188500D01*
X100321927Y-34176187D01*
X100161508Y-34127524D01*
X100013674Y-34048505D01*
X100013672Y-34048504D01*
X99884091Y-33942159D01*
X99777746Y-33812578D01*
X99760937Y-33781130D01*
X99698726Y-33664742D01*
X99650063Y-33504323D01*
X99633633Y-33337500D01*
X99650063Y-33170677D01*
X99698726Y-33010258D01*
X99777745Y-32862424D01*
X99777746Y-32862422D01*
X99884091Y-32732841D01*
X100013672Y-32626496D01*
X100028844Y-32618386D01*
X100161508Y-32547476D01*
X100321927Y-32498813D01*
X100446946Y-32486500D01*
X100530554Y-32486500D01*
X100655573Y-32498813D01*
X100655573Y-32498813D01*
G37*
G36*
X160290483Y-30858335D02*
G01*
X160459240Y-30928236D01*
X160611118Y-31029718D01*
X160740282Y-31158882D01*
X160841764Y-31310760D01*
X160911665Y-31479517D01*
X160947300Y-31658668D01*
X160947300Y-31841332D01*
X160911665Y-32020483D01*
X160841764Y-32189240D01*
X160740282Y-32341118D01*
X160611118Y-32470282D01*
X160459240Y-32571764D01*
X160290483Y-32641665D01*
X160111332Y-32677300D01*
X159928668Y-32677300D01*
X159749517Y-32641665D01*
X159580760Y-32571764D01*
X159428882Y-32470282D01*
X159299718Y-32341118D01*
X159198236Y-32189240D01*
X159128335Y-32020483D01*
X159092700Y-31841332D01*
X159092700Y-31658668D01*
X159128335Y-31479517D01*
X159198236Y-31310760D01*
X159299718Y-31158882D01*
X159428882Y-31029718D01*
X159580760Y-30928236D01*
X159749517Y-30858335D01*
X159928668Y-30822700D01*
X160111332Y-30822700D01*
X160290483Y-30858335D01*
X160290483Y-30858335D01*
G37*
G36*
X145050483Y-30858335D02*
G01*
X145219240Y-30928236D01*
X145371118Y-31029718D01*
X145500282Y-31158882D01*
X145601764Y-31310760D01*
X145671665Y-31479517D01*
X145707300Y-31658668D01*
X145707300Y-31841332D01*
X145671665Y-32020483D01*
X145601764Y-32189240D01*
X145500282Y-32341118D01*
X145371118Y-32470282D01*
X145219240Y-32571764D01*
X145050483Y-32641665D01*
X144871332Y-32677300D01*
X144688668Y-32677300D01*
X144509517Y-32641665D01*
X144340760Y-32571764D01*
X144188882Y-32470282D01*
X144059718Y-32341118D01*
X143958236Y-32189240D01*
X143888335Y-32020483D01*
X143852700Y-31841332D01*
X143852700Y-31658668D01*
X143888335Y-31479517D01*
X143958236Y-31310760D01*
X144059718Y-31158882D01*
X144188882Y-31029718D01*
X144340760Y-30928236D01*
X144509517Y-30858335D01*
X144688668Y-30822700D01*
X144871332Y-30822700D01*
X145050483Y-30858335D01*
X145050483Y-30858335D01*
G37*
G36*
X76796474Y-26608684D02*
G01*
X77014474Y-26698983D01*
X77168623Y-26762833D01*
X77503548Y-26986623D01*
X77788377Y-27271452D01*
X78012167Y-27606377D01*
X78060888Y-27724000D01*
X78166316Y-27978526D01*
X78244900Y-28373594D01*
X78244900Y-28776406D01*
X78166316Y-29171474D01*
X78112527Y-29301331D01*
X78012167Y-29543623D01*
X77788377Y-29878548D01*
X77503548Y-30163377D01*
X77168623Y-30387167D01*
X77014474Y-30451017D01*
X76796474Y-30541316D01*
X76401406Y-30619900D01*
X75998594Y-30619900D01*
X75603526Y-30541316D01*
X75385526Y-30451017D01*
X75231377Y-30387167D01*
X74896452Y-30163377D01*
X74611623Y-29878548D01*
X74387833Y-29543623D01*
X74287473Y-29301331D01*
X74233684Y-29171474D01*
X74155100Y-28776406D01*
X74155100Y-28373594D01*
X74233684Y-27978526D01*
X74339112Y-27724000D01*
X74387833Y-27606377D01*
X74611623Y-27271452D01*
X74896452Y-26986623D01*
X75231377Y-26762833D01*
X75385526Y-26698983D01*
X75603526Y-26608684D01*
X75998594Y-26530100D01*
X76401406Y-26530100D01*
X76796474Y-26608684D01*
X76796474Y-26608684D01*
G37*
G36*
X145050483Y-28318335D02*
G01*
X145219240Y-28388236D01*
X145371118Y-28489718D01*
X145500282Y-28618882D01*
X145601764Y-28770760D01*
X145671665Y-28939517D01*
X145707300Y-29118668D01*
X145707300Y-29301332D01*
X145671665Y-29480483D01*
X145601764Y-29649240D01*
X145500282Y-29801118D01*
X145371118Y-29930282D01*
X145219240Y-30031764D01*
X145050483Y-30101665D01*
X144871332Y-30137300D01*
X144688668Y-30137300D01*
X144509517Y-30101665D01*
X144340760Y-30031764D01*
X144188882Y-29930282D01*
X144059718Y-29801118D01*
X143958236Y-29649240D01*
X143888335Y-29480483D01*
X143852700Y-29301332D01*
X143852700Y-29118668D01*
X143888335Y-28939517D01*
X143958236Y-28770760D01*
X144059718Y-28618882D01*
X144188882Y-28489718D01*
X144340760Y-28388236D01*
X144509517Y-28318335D01*
X144688668Y-28282700D01*
X144871332Y-28282700D01*
X145050483Y-28318335D01*
X145050483Y-28318335D01*
G37*
G36*
X160290483Y-28318335D02*
G01*
X160459240Y-28388236D01*
X160611118Y-28489718D01*
X160740282Y-28618882D01*
X160841764Y-28770760D01*
X160911665Y-28939517D01*
X160947300Y-29118668D01*
X160947300Y-29301332D01*
X160911665Y-29480483D01*
X160841764Y-29649240D01*
X160740282Y-29801118D01*
X160611118Y-29930282D01*
X160459240Y-30031764D01*
X160290483Y-30101665D01*
X160111332Y-30137300D01*
X159928668Y-30137300D01*
X159749517Y-30101665D01*
X159580760Y-30031764D01*
X159428882Y-29930282D01*
X159299718Y-29801118D01*
X159198236Y-29649240D01*
X159128335Y-29480483D01*
X159092700Y-29301332D01*
X159092700Y-29118668D01*
X159128335Y-28939517D01*
X159198236Y-28770760D01*
X159299718Y-28618882D01*
X159428882Y-28489718D01*
X159580760Y-28388236D01*
X159749517Y-28318335D01*
X159928668Y-28282700D01*
X160111332Y-28282700D01*
X160290483Y-28318335D01*
X160290483Y-28318335D01*
G37*
G36*
X71295952Y-27690429D02*
G01*
X71383075Y-27707759D01*
X71492498Y-27753084D01*
X71547211Y-27775747D01*
X71679284Y-27863995D01*
X71694928Y-27874448D01*
X71820552Y-28000072D01*
X71820554Y-28000075D01*
X71919253Y-28147789D01*
X71919253Y-28147790D01*
X71987241Y-28311925D01*
X72021900Y-28486171D01*
X72021900Y-28663829D01*
X71987241Y-28838075D01*
X71945222Y-28939517D01*
X71919253Y-29002211D01*
X71821217Y-29148933D01*
X71820552Y-29149928D01*
X71694928Y-29275552D01*
X71694925Y-29275554D01*
X71547211Y-29374253D01*
X71492498Y-29396916D01*
X71383075Y-29442241D01*
X71295952Y-29459571D01*
X71208831Y-29476900D01*
X71031169Y-29476900D01*
X70944048Y-29459571D01*
X70856925Y-29442241D01*
X70747502Y-29396916D01*
X70692789Y-29374253D01*
X70545075Y-29275554D01*
X70545072Y-29275552D01*
X70419448Y-29149928D01*
X70418783Y-29148933D01*
X70320747Y-29002211D01*
X70294778Y-28939517D01*
X70252759Y-28838075D01*
X70218100Y-28663829D01*
X70218100Y-28486171D01*
X70252759Y-28311925D01*
X70320747Y-28147790D01*
X70320747Y-28147789D01*
X70419446Y-28000075D01*
X70419448Y-28000072D01*
X70545072Y-27874448D01*
X70560716Y-27863995D01*
X70692789Y-27775747D01*
X70747502Y-27753084D01*
X70856925Y-27707759D01*
X70944048Y-27690429D01*
X71031169Y-27673100D01*
X71208831Y-27673100D01*
X71295952Y-27690429D01*
X71295952Y-27690429D01*
G37*
G36*
X81455952Y-27690429D02*
G01*
X81543075Y-27707759D01*
X81652498Y-27753084D01*
X81707211Y-27775747D01*
X81839284Y-27863995D01*
X81854928Y-27874448D01*
X81980552Y-28000072D01*
X81980554Y-28000075D01*
X82079253Y-28147789D01*
X82079253Y-28147790D01*
X82147241Y-28311925D01*
X82181900Y-28486171D01*
X82181900Y-28663829D01*
X82147241Y-28838075D01*
X82105222Y-28939517D01*
X82079253Y-29002211D01*
X81981217Y-29148933D01*
X81980552Y-29149928D01*
X81854928Y-29275552D01*
X81854925Y-29275554D01*
X81707211Y-29374253D01*
X81652498Y-29396916D01*
X81543075Y-29442241D01*
X81455952Y-29459571D01*
X81368831Y-29476900D01*
X81191169Y-29476900D01*
X81104048Y-29459571D01*
X81016925Y-29442241D01*
X80907502Y-29396916D01*
X80852789Y-29374253D01*
X80705075Y-29275554D01*
X80705072Y-29275552D01*
X80579448Y-29149928D01*
X80578783Y-29148933D01*
X80480747Y-29002211D01*
X80454778Y-28939517D01*
X80412759Y-28838075D01*
X80378100Y-28663829D01*
X80378100Y-28486171D01*
X80412759Y-28311925D01*
X80480747Y-28147790D01*
X80480747Y-28147789D01*
X80579446Y-28000075D01*
X80579448Y-28000072D01*
X80705072Y-27874448D01*
X80720716Y-27863995D01*
X80852789Y-27775747D01*
X80907502Y-27753084D01*
X81016925Y-27707759D01*
X81104048Y-27690429D01*
X81191169Y-27673100D01*
X81368831Y-27673100D01*
X81455952Y-27690429D01*
X81455952Y-27690429D01*
G37*
G36*
X112769750Y-29426000D02*
G01*
X111067750Y-29426000D01*
X111067750Y-27724000D01*
X112769750Y-27724000D01*
X112769750Y-29426000D01*
X112769750Y-29426000D01*
G37*
G36*
X119705573Y-27736313D02*
G01*
X119865992Y-27784976D01*
X119998656Y-27855886D01*
X120013828Y-27863996D01*
X120143409Y-27970341D01*
X120249754Y-28099922D01*
X120249755Y-28099924D01*
X120328774Y-28247758D01*
X120377437Y-28408177D01*
X120393867Y-28575000D01*
X120377437Y-28741823D01*
X120328774Y-28902242D01*
X120308850Y-28939517D01*
X120249754Y-29050078D01*
X120143409Y-29179659D01*
X120013828Y-29286004D01*
X120013826Y-29286005D01*
X119865992Y-29365024D01*
X119705573Y-29413687D01*
X119580554Y-29426000D01*
X119496946Y-29426000D01*
X119371927Y-29413687D01*
X119211508Y-29365024D01*
X119063674Y-29286005D01*
X119063672Y-29286004D01*
X118934091Y-29179659D01*
X118827746Y-29050078D01*
X118768650Y-28939517D01*
X118748726Y-28902242D01*
X118700063Y-28741823D01*
X118683633Y-28575000D01*
X118700063Y-28408177D01*
X118748726Y-28247758D01*
X118827745Y-28099924D01*
X118827746Y-28099922D01*
X118934091Y-27970341D01*
X119063672Y-27863996D01*
X119078844Y-27855886D01*
X119211508Y-27784976D01*
X119371927Y-27736313D01*
X119496946Y-27724000D01*
X119580554Y-27724000D01*
X119705573Y-27736313D01*
X119705573Y-27736313D01*
G37*
G36*
X160290483Y-25778335D02*
G01*
X160459240Y-25848236D01*
X160611118Y-25949718D01*
X160740282Y-26078882D01*
X160841764Y-26230760D01*
X160911665Y-26399517D01*
X160947300Y-26578668D01*
X160947300Y-26761332D01*
X160911665Y-26940483D01*
X160841764Y-27109240D01*
X160740282Y-27261118D01*
X160611118Y-27390282D01*
X160459240Y-27491764D01*
X160290483Y-27561665D01*
X160111332Y-27597300D01*
X159928668Y-27597300D01*
X159749517Y-27561665D01*
X159580760Y-27491764D01*
X159428882Y-27390282D01*
X159299718Y-27261118D01*
X159198236Y-27109240D01*
X159128335Y-26940483D01*
X159092700Y-26761332D01*
X159092700Y-26578668D01*
X159128335Y-26399517D01*
X159198236Y-26230760D01*
X159299718Y-26078882D01*
X159428882Y-25949718D01*
X159580760Y-25848236D01*
X159749517Y-25778335D01*
X159928668Y-25742700D01*
X160111332Y-25742700D01*
X160290483Y-25778335D01*
X160290483Y-25778335D01*
G37*
G36*
X145050483Y-25778335D02*
G01*
X145219240Y-25848236D01*
X145371118Y-25949718D01*
X145500282Y-26078882D01*
X145601764Y-26230760D01*
X145671665Y-26399517D01*
X145707300Y-26578668D01*
X145707300Y-26761332D01*
X145671665Y-26940483D01*
X145601764Y-27109240D01*
X145500282Y-27261118D01*
X145371118Y-27390282D01*
X145219240Y-27491764D01*
X145050483Y-27561665D01*
X144871332Y-27597300D01*
X144688668Y-27597300D01*
X144509517Y-27561665D01*
X144340760Y-27491764D01*
X144188882Y-27390282D01*
X144059718Y-27261118D01*
X143958236Y-27109240D01*
X143888335Y-26940483D01*
X143852700Y-26761332D01*
X143852700Y-26578668D01*
X143888335Y-26399517D01*
X143958236Y-26230760D01*
X144059718Y-26078882D01*
X144188882Y-25949718D01*
X144340760Y-25848236D01*
X144509517Y-25778335D01*
X144688668Y-25742700D01*
X144871332Y-25742700D01*
X145050483Y-25778335D01*
X145050483Y-25778335D01*
G37*
G36*
X85911512Y-25057300D02*
G01*
X86060734Y-25086982D01*
X86270203Y-25173747D01*
X86458720Y-25299710D01*
X86619040Y-25460030D01*
X86729047Y-25624667D01*
X86745004Y-25648549D01*
X86770416Y-25709900D01*
X86831513Y-25857400D01*
X86831768Y-25858017D01*
X86876000Y-26080385D01*
X86876000Y-26307115D01*
X86860850Y-26383277D01*
X86831768Y-26529484D01*
X86745003Y-26738953D01*
X86619040Y-26927470D01*
X86458720Y-27087790D01*
X86270203Y-27213753D01*
X86060734Y-27300518D01*
X85949549Y-27322634D01*
X85838365Y-27344750D01*
X85611635Y-27344750D01*
X85500451Y-27322634D01*
X85389266Y-27300518D01*
X85179797Y-27213753D01*
X84991280Y-27087790D01*
X84830960Y-26927470D01*
X84704997Y-26738953D01*
X84618232Y-26529484D01*
X84589150Y-26383277D01*
X84574000Y-26307115D01*
X84574000Y-26080385D01*
X84618232Y-25858017D01*
X84618488Y-25857400D01*
X84679584Y-25709900D01*
X84704996Y-25648549D01*
X84720953Y-25624667D01*
X84830960Y-25460030D01*
X84991280Y-25299710D01*
X85179797Y-25173747D01*
X85389266Y-25086982D01*
X85538488Y-25057300D01*
X85611635Y-25042750D01*
X85838365Y-25042750D01*
X85911512Y-25057300D01*
X85911512Y-25057300D01*
G37*
G36*
X72738276Y-24886884D02*
G01*
X72955569Y-24976890D01*
X72955571Y-24976891D01*
X73151130Y-25107560D01*
X73317440Y-25273870D01*
X73441829Y-25460030D01*
X73448110Y-25469431D01*
X73538116Y-25686724D01*
X73584000Y-25917400D01*
X73584000Y-26152600D01*
X73538116Y-26383276D01*
X73477555Y-26529483D01*
X73448109Y-26600571D01*
X73317440Y-26796130D01*
X73151130Y-26962440D01*
X72955571Y-27093109D01*
X72955570Y-27093110D01*
X72955569Y-27093110D01*
X72738276Y-27183116D01*
X72507600Y-27229000D01*
X72272400Y-27229000D01*
X72041724Y-27183116D01*
X71824431Y-27093110D01*
X71824430Y-27093110D01*
X71824429Y-27093109D01*
X71628870Y-26962440D01*
X71462560Y-26796130D01*
X71331891Y-26600571D01*
X71302445Y-26529483D01*
X71241884Y-26383276D01*
X71196000Y-26152600D01*
X71196000Y-25917400D01*
X71241884Y-25686724D01*
X71331890Y-25469431D01*
X71338172Y-25460030D01*
X71462560Y-25273870D01*
X71628870Y-25107560D01*
X71824429Y-24976891D01*
X71824431Y-24976890D01*
X72041724Y-24886884D01*
X72272400Y-24841000D01*
X72507600Y-24841000D01*
X72738276Y-24886884D01*
X72738276Y-24886884D01*
G37*
G36*
X80358276Y-24886884D02*
G01*
X80575569Y-24976890D01*
X80575571Y-24976891D01*
X80771130Y-25107560D01*
X80937440Y-25273870D01*
X81061829Y-25460030D01*
X81068110Y-25469431D01*
X81158116Y-25686724D01*
X81204000Y-25917400D01*
X81204000Y-26152600D01*
X81158116Y-26383276D01*
X81097555Y-26529483D01*
X81068109Y-26600571D01*
X80937440Y-26796130D01*
X80771130Y-26962440D01*
X80575571Y-27093109D01*
X80575570Y-27093110D01*
X80575569Y-27093110D01*
X80358276Y-27183116D01*
X80127600Y-27229000D01*
X79892400Y-27229000D01*
X79661724Y-27183116D01*
X79444431Y-27093110D01*
X79444430Y-27093110D01*
X79444429Y-27093109D01*
X79248870Y-26962440D01*
X79082560Y-26796130D01*
X78951891Y-26600571D01*
X78922445Y-26529483D01*
X78861884Y-26383276D01*
X78816000Y-26152600D01*
X78816000Y-25917400D01*
X78861884Y-25686724D01*
X78951890Y-25469431D01*
X78958172Y-25460030D01*
X79082560Y-25273870D01*
X79248870Y-25107560D01*
X79444429Y-24976891D01*
X79444431Y-24976890D01*
X79661724Y-24886884D01*
X79892400Y-24841000D01*
X80127600Y-24841000D01*
X80358276Y-24886884D01*
X80358276Y-24886884D01*
G37*
G36*
X95846474Y-21846184D02*
G01*
X96064474Y-21936483D01*
X96218623Y-22000333D01*
X96553548Y-22224123D01*
X96838377Y-22508952D01*
X97062167Y-22843877D01*
X97126017Y-22998026D01*
X97216316Y-23216026D01*
X97294900Y-23611094D01*
X97294900Y-24013906D01*
X97216316Y-24408974D01*
X97149931Y-24569241D01*
X97062167Y-24781123D01*
X96838377Y-25116048D01*
X96553548Y-25400877D01*
X96218623Y-25624667D01*
X96160971Y-25648547D01*
X95846474Y-25778816D01*
X95451406Y-25857400D01*
X95048594Y-25857400D01*
X94653526Y-25778816D01*
X94339029Y-25648547D01*
X94281377Y-25624667D01*
X93946452Y-25400877D01*
X93661623Y-25116048D01*
X93437833Y-24781123D01*
X93350069Y-24569241D01*
X93283684Y-24408974D01*
X93205100Y-24013906D01*
X93205100Y-23611094D01*
X93283684Y-23216026D01*
X93373983Y-22998026D01*
X93437833Y-22843877D01*
X93661623Y-22508952D01*
X93946452Y-22224123D01*
X94281377Y-22000333D01*
X94435526Y-21936483D01*
X94653526Y-21846184D01*
X95048594Y-21767600D01*
X95451406Y-21767600D01*
X95846474Y-21846184D01*
X95846474Y-21846184D01*
G37*
G36*
X133946474Y-21846184D02*
G01*
X134164474Y-21936483D01*
X134318623Y-22000333D01*
X134653548Y-22224123D01*
X134938377Y-22508952D01*
X135162167Y-22843877D01*
X135226017Y-22998026D01*
X135316316Y-23216026D01*
X135394900Y-23611094D01*
X135394900Y-24013906D01*
X135316316Y-24408974D01*
X135249931Y-24569241D01*
X135162167Y-24781123D01*
X134938377Y-25116048D01*
X134653548Y-25400877D01*
X134318623Y-25624667D01*
X134260971Y-25648547D01*
X133946474Y-25778816D01*
X133551406Y-25857400D01*
X133148594Y-25857400D01*
X132753526Y-25778816D01*
X132439029Y-25648547D01*
X132381377Y-25624667D01*
X132046452Y-25400877D01*
X131761623Y-25116048D01*
X131537833Y-24781123D01*
X131450069Y-24569241D01*
X131383684Y-24408974D01*
X131305100Y-24013906D01*
X131305100Y-23611094D01*
X131383684Y-23216026D01*
X131473983Y-22998026D01*
X131537833Y-22843877D01*
X131761623Y-22508952D01*
X132046452Y-22224123D01*
X132381377Y-22000333D01*
X132535526Y-21936483D01*
X132753526Y-21846184D01*
X133148594Y-21767600D01*
X133551406Y-21767600D01*
X133946474Y-21846184D01*
X133946474Y-21846184D01*
G37*
G36*
X160290483Y-23238335D02*
G01*
X160459240Y-23308236D01*
X160611118Y-23409718D01*
X160740282Y-23538882D01*
X160841764Y-23690760D01*
X160911665Y-23859517D01*
X160947300Y-24038668D01*
X160947300Y-24221332D01*
X160911665Y-24400483D01*
X160841764Y-24569240D01*
X160740282Y-24721118D01*
X160611118Y-24850282D01*
X160459240Y-24951764D01*
X160290483Y-25021665D01*
X160111332Y-25057300D01*
X159928668Y-25057300D01*
X159749517Y-25021665D01*
X159580760Y-24951764D01*
X159428882Y-24850282D01*
X159299718Y-24721118D01*
X159198236Y-24569240D01*
X159128335Y-24400483D01*
X159092700Y-24221332D01*
X159092700Y-24038668D01*
X159128335Y-23859517D01*
X159198236Y-23690760D01*
X159299718Y-23538882D01*
X159428882Y-23409718D01*
X159580760Y-23308236D01*
X159749517Y-23238335D01*
X159928668Y-23202700D01*
X160111332Y-23202700D01*
X160290483Y-23238335D01*
X160290483Y-23238335D01*
G37*
G36*
X145707300Y-25057300D02*
G01*
X143852700Y-25057300D01*
X143852700Y-23202700D01*
X145707300Y-23202700D01*
X145707300Y-25057300D01*
X145707300Y-25057300D01*
G37*
G36*
X138605952Y-22927930D02*
G01*
X138693075Y-22945259D01*
X138802498Y-22990584D01*
X138857211Y-23013247D01*
X139003933Y-23111283D01*
X139004928Y-23111948D01*
X139130552Y-23237572D01*
X139130554Y-23237575D01*
X139229253Y-23385289D01*
X139229253Y-23385290D01*
X139297241Y-23549425D01*
X139331900Y-23723671D01*
X139331900Y-23901329D01*
X139297241Y-24075575D01*
X139251916Y-24184998D01*
X139229253Y-24239711D01*
X139218282Y-24256130D01*
X139130552Y-24387428D01*
X139004928Y-24513052D01*
X139004925Y-24513054D01*
X138857211Y-24611753D01*
X138802498Y-24634416D01*
X138693075Y-24679741D01*
X138605952Y-24697070D01*
X138518831Y-24714400D01*
X138341169Y-24714400D01*
X138254048Y-24697071D01*
X138166925Y-24679741D01*
X138057502Y-24634416D01*
X138002789Y-24611753D01*
X137855075Y-24513054D01*
X137855072Y-24513052D01*
X137729448Y-24387428D01*
X137641718Y-24256130D01*
X137630747Y-24239711D01*
X137608084Y-24184998D01*
X137562759Y-24075575D01*
X137528100Y-23901329D01*
X137528100Y-23723671D01*
X137562759Y-23549425D01*
X137630747Y-23385290D01*
X137630747Y-23385289D01*
X137729446Y-23237575D01*
X137729448Y-23237572D01*
X137855072Y-23111948D01*
X137856067Y-23111283D01*
X138002789Y-23013247D01*
X138057502Y-22990584D01*
X138166925Y-22945259D01*
X138254048Y-22927930D01*
X138341169Y-22910600D01*
X138518831Y-22910600D01*
X138605952Y-22927930D01*
X138605952Y-22927930D01*
G37*
G36*
X100505952Y-22927930D02*
G01*
X100593075Y-22945259D01*
X100702498Y-22990584D01*
X100757211Y-23013247D01*
X100903933Y-23111283D01*
X100904928Y-23111948D01*
X101030552Y-23237572D01*
X101030554Y-23237575D01*
X101129253Y-23385289D01*
X101129253Y-23385290D01*
X101197241Y-23549425D01*
X101231900Y-23723671D01*
X101231900Y-23901329D01*
X101197241Y-24075575D01*
X101151916Y-24184998D01*
X101129253Y-24239711D01*
X101118282Y-24256130D01*
X101030552Y-24387428D01*
X100904928Y-24513052D01*
X100904925Y-24513054D01*
X100757211Y-24611753D01*
X100702498Y-24634416D01*
X100593075Y-24679741D01*
X100505952Y-24697070D01*
X100418831Y-24714400D01*
X100241169Y-24714400D01*
X100154048Y-24697071D01*
X100066925Y-24679741D01*
X99957502Y-24634416D01*
X99902789Y-24611753D01*
X99755075Y-24513054D01*
X99755072Y-24513052D01*
X99629448Y-24387428D01*
X99541718Y-24256130D01*
X99530747Y-24239711D01*
X99508084Y-24184998D01*
X99462759Y-24075575D01*
X99428100Y-23901329D01*
X99428100Y-23723671D01*
X99462759Y-23549425D01*
X99530747Y-23385290D01*
X99530747Y-23385289D01*
X99629446Y-23237575D01*
X99629448Y-23237572D01*
X99755072Y-23111948D01*
X99756067Y-23111283D01*
X99902789Y-23013247D01*
X99957502Y-22990584D01*
X100066925Y-22945259D01*
X100154048Y-22927930D01*
X100241169Y-22910600D01*
X100418831Y-22910600D01*
X100505952Y-22927930D01*
X100505952Y-22927930D01*
G37*
G36*
X90345952Y-22927930D02*
G01*
X90433075Y-22945259D01*
X90542498Y-22990584D01*
X90597211Y-23013247D01*
X90743933Y-23111283D01*
X90744928Y-23111948D01*
X90870552Y-23237572D01*
X90870554Y-23237575D01*
X90969253Y-23385289D01*
X90969253Y-23385290D01*
X91037241Y-23549425D01*
X91071900Y-23723671D01*
X91071900Y-23901329D01*
X91037241Y-24075575D01*
X90991916Y-24184998D01*
X90969253Y-24239711D01*
X90958282Y-24256130D01*
X90870552Y-24387428D01*
X90744928Y-24513052D01*
X90744925Y-24513054D01*
X90597211Y-24611753D01*
X90542498Y-24634416D01*
X90433075Y-24679741D01*
X90345952Y-24697070D01*
X90258831Y-24714400D01*
X90081169Y-24714400D01*
X89994048Y-24697071D01*
X89906925Y-24679741D01*
X89797502Y-24634416D01*
X89742789Y-24611753D01*
X89595075Y-24513054D01*
X89595072Y-24513052D01*
X89469448Y-24387428D01*
X89381718Y-24256130D01*
X89370747Y-24239711D01*
X89348084Y-24184998D01*
X89302759Y-24075575D01*
X89268100Y-23901329D01*
X89268100Y-23723671D01*
X89302759Y-23549425D01*
X89370747Y-23385290D01*
X89370747Y-23385289D01*
X89469446Y-23237575D01*
X89469448Y-23237572D01*
X89595072Y-23111948D01*
X89596067Y-23111283D01*
X89742789Y-23013247D01*
X89797502Y-22990584D01*
X89906925Y-22945259D01*
X89994048Y-22927930D01*
X90081169Y-22910600D01*
X90258831Y-22910600D01*
X90345952Y-22927930D01*
X90345952Y-22927930D01*
G37*
G36*
X128445952Y-22927930D02*
G01*
X128533075Y-22945259D01*
X128642498Y-22990584D01*
X128697211Y-23013247D01*
X128843933Y-23111283D01*
X128844928Y-23111948D01*
X128970552Y-23237572D01*
X128970554Y-23237575D01*
X129069253Y-23385289D01*
X129069253Y-23385290D01*
X129137241Y-23549425D01*
X129171900Y-23723671D01*
X129171900Y-23901329D01*
X129137241Y-24075575D01*
X129091916Y-24184998D01*
X129069253Y-24239711D01*
X129058282Y-24256130D01*
X128970552Y-24387428D01*
X128844928Y-24513052D01*
X128844925Y-24513054D01*
X128697211Y-24611753D01*
X128642498Y-24634416D01*
X128533075Y-24679741D01*
X128445952Y-24697070D01*
X128358831Y-24714400D01*
X128181169Y-24714400D01*
X128094048Y-24697071D01*
X128006925Y-24679741D01*
X127897502Y-24634416D01*
X127842789Y-24611753D01*
X127695075Y-24513054D01*
X127695072Y-24513052D01*
X127569448Y-24387428D01*
X127481718Y-24256130D01*
X127470747Y-24239711D01*
X127448084Y-24184998D01*
X127402759Y-24075575D01*
X127368100Y-23901329D01*
X127368100Y-23723671D01*
X127402759Y-23549425D01*
X127470747Y-23385290D01*
X127470747Y-23385289D01*
X127569446Y-23237575D01*
X127569448Y-23237572D01*
X127695072Y-23111948D01*
X127696067Y-23111283D01*
X127842789Y-23013247D01*
X127897502Y-22990584D01*
X128006925Y-22945259D01*
X128094048Y-22927930D01*
X128181169Y-22910600D01*
X128358831Y-22910600D01*
X128445952Y-22927930D01*
X128445952Y-22927930D01*
G37*
G36*
X79088276Y-22346884D02*
G01*
X79266280Y-22420616D01*
X79305571Y-22436891D01*
X79501130Y-22567560D01*
X79667440Y-22733870D01*
X79785528Y-22910600D01*
X79798110Y-22929431D01*
X79888116Y-23146724D01*
X79934000Y-23377400D01*
X79934000Y-23612600D01*
X79888116Y-23843276D01*
X79807182Y-24038668D01*
X79798109Y-24060571D01*
X79667440Y-24256130D01*
X79501130Y-24422440D01*
X79305571Y-24553109D01*
X79305570Y-24553110D01*
X79305569Y-24553110D01*
X79088276Y-24643116D01*
X78857600Y-24689000D01*
X78622400Y-24689000D01*
X78391724Y-24643116D01*
X78174431Y-24553110D01*
X78174430Y-24553110D01*
X78174429Y-24553109D01*
X77978870Y-24422440D01*
X77812560Y-24256130D01*
X77681891Y-24060571D01*
X77672818Y-24038668D01*
X77591884Y-23843276D01*
X77546000Y-23612600D01*
X77546000Y-23377400D01*
X77591884Y-23146724D01*
X77681890Y-22929431D01*
X77694473Y-22910600D01*
X77812560Y-22733870D01*
X77978870Y-22567560D01*
X78174429Y-22436891D01*
X78213720Y-22420616D01*
X78391724Y-22346884D01*
X78622400Y-22301000D01*
X78857600Y-22301000D01*
X79088276Y-22346884D01*
X79088276Y-22346884D01*
G37*
G36*
X74008276Y-22346884D02*
G01*
X74186280Y-22420616D01*
X74225571Y-22436891D01*
X74421130Y-22567560D01*
X74587440Y-22733870D01*
X74705528Y-22910600D01*
X74718110Y-22929431D01*
X74808116Y-23146724D01*
X74854000Y-23377400D01*
X74854000Y-23612600D01*
X74808116Y-23843276D01*
X74727182Y-24038668D01*
X74718109Y-24060571D01*
X74587440Y-24256130D01*
X74421130Y-24422440D01*
X74225571Y-24553109D01*
X74225570Y-24553110D01*
X74225569Y-24553110D01*
X74008276Y-24643116D01*
X73777600Y-24689000D01*
X73542400Y-24689000D01*
X73311724Y-24643116D01*
X73094431Y-24553110D01*
X73094430Y-24553110D01*
X73094429Y-24553109D01*
X72898870Y-24422440D01*
X72732560Y-24256130D01*
X72601891Y-24060571D01*
X72592818Y-24038668D01*
X72511884Y-23843276D01*
X72466000Y-23612600D01*
X72466000Y-23377400D01*
X72511884Y-23146724D01*
X72601890Y-22929431D01*
X72614473Y-22910600D01*
X72732560Y-22733870D01*
X72898870Y-22567560D01*
X73094429Y-22436891D01*
X73133720Y-22420616D01*
X73311724Y-22346884D01*
X73542400Y-22301000D01*
X73777600Y-22301000D01*
X74008276Y-22346884D01*
X74008276Y-22346884D01*
G37*
G36*
X124049549Y-20302366D02*
G01*
X124160734Y-20324482D01*
X124370203Y-20411247D01*
X124558720Y-20537210D01*
X124719040Y-20697530D01*
X124829047Y-20862167D01*
X124845004Y-20886049D01*
X124870416Y-20947400D01*
X124931513Y-21094900D01*
X124931768Y-21095517D01*
X124976000Y-21317885D01*
X124976000Y-21544615D01*
X124960850Y-21620777D01*
X124931768Y-21766984D01*
X124845003Y-21976453D01*
X124719040Y-22164970D01*
X124558720Y-22325290D01*
X124370203Y-22451253D01*
X124160734Y-22538018D01*
X124049549Y-22560134D01*
X123938365Y-22582250D01*
X123711635Y-22582250D01*
X123600451Y-22560134D01*
X123489266Y-22538018D01*
X123279797Y-22451253D01*
X123091280Y-22325290D01*
X122930960Y-22164970D01*
X122804997Y-21976453D01*
X122718232Y-21766984D01*
X122689150Y-21620777D01*
X122674000Y-21544615D01*
X122674000Y-21317885D01*
X122718232Y-21095517D01*
X122718488Y-21094900D01*
X122779584Y-20947400D01*
X122804996Y-20886049D01*
X122820953Y-20862167D01*
X122930960Y-20697530D01*
X123091280Y-20537210D01*
X123279797Y-20411247D01*
X123489266Y-20324482D01*
X123600451Y-20302366D01*
X123711635Y-20280250D01*
X123938365Y-20280250D01*
X124049549Y-20302366D01*
X124049549Y-20302366D01*
G37*
G36*
X99408276Y-20124384D02*
G01*
X99625569Y-20214390D01*
X99625571Y-20214391D01*
X99821130Y-20345060D01*
X99987440Y-20511370D01*
X100111829Y-20697530D01*
X100118110Y-20706931D01*
X100208116Y-20924224D01*
X100254000Y-21154900D01*
X100254000Y-21390100D01*
X100208116Y-21620776D01*
X100147555Y-21766983D01*
X100118109Y-21838071D01*
X99987440Y-22033630D01*
X99821130Y-22199940D01*
X99625571Y-22330609D01*
X99625570Y-22330610D01*
X99625569Y-22330610D01*
X99408276Y-22420616D01*
X99177600Y-22466500D01*
X98942400Y-22466500D01*
X98711724Y-22420616D01*
X98494431Y-22330610D01*
X98494430Y-22330610D01*
X98494429Y-22330609D01*
X98298870Y-22199940D01*
X98132560Y-22033630D01*
X98001891Y-21838071D01*
X97972445Y-21766983D01*
X97911884Y-21620776D01*
X97866000Y-21390100D01*
X97866000Y-21154900D01*
X97911884Y-20924224D01*
X98001890Y-20706931D01*
X98008172Y-20697530D01*
X98132560Y-20511370D01*
X98298870Y-20345060D01*
X98494429Y-20214391D01*
X98494431Y-20214390D01*
X98711724Y-20124384D01*
X98942400Y-20078500D01*
X99177600Y-20078500D01*
X99408276Y-20124384D01*
X99408276Y-20124384D01*
G37*
G36*
X91788276Y-20124384D02*
G01*
X92005569Y-20214390D01*
X92005571Y-20214391D01*
X92201130Y-20345060D01*
X92367440Y-20511370D01*
X92491829Y-20697530D01*
X92498110Y-20706931D01*
X92588116Y-20924224D01*
X92634000Y-21154900D01*
X92634000Y-21390100D01*
X92588116Y-21620776D01*
X92527555Y-21766983D01*
X92498109Y-21838071D01*
X92367440Y-22033630D01*
X92201130Y-22199940D01*
X92005571Y-22330609D01*
X92005570Y-22330610D01*
X92005569Y-22330610D01*
X91788276Y-22420616D01*
X91557600Y-22466500D01*
X91322400Y-22466500D01*
X91091724Y-22420616D01*
X90874431Y-22330610D01*
X90874430Y-22330610D01*
X90874429Y-22330609D01*
X90678870Y-22199940D01*
X90512560Y-22033630D01*
X90381891Y-21838071D01*
X90352445Y-21766983D01*
X90291884Y-21620776D01*
X90246000Y-21390100D01*
X90246000Y-21154900D01*
X90291884Y-20924224D01*
X90381890Y-20706931D01*
X90388172Y-20697530D01*
X90512560Y-20511370D01*
X90678870Y-20345060D01*
X90874429Y-20214391D01*
X90874431Y-20214390D01*
X91091724Y-20124384D01*
X91322400Y-20078500D01*
X91557600Y-20078500D01*
X91788276Y-20124384D01*
X91788276Y-20124384D01*
G37*
G36*
X137508276Y-20124384D02*
G01*
X137725569Y-20214390D01*
X137725571Y-20214391D01*
X137921130Y-20345060D01*
X138087440Y-20511370D01*
X138211829Y-20697530D01*
X138218110Y-20706931D01*
X138308116Y-20924224D01*
X138354000Y-21154900D01*
X138354000Y-21390100D01*
X138308116Y-21620776D01*
X138247555Y-21766983D01*
X138218109Y-21838071D01*
X138087440Y-22033630D01*
X137921130Y-22199940D01*
X137725571Y-22330609D01*
X137725570Y-22330610D01*
X137725569Y-22330610D01*
X137508276Y-22420616D01*
X137277600Y-22466500D01*
X137042400Y-22466500D01*
X136811724Y-22420616D01*
X136594431Y-22330610D01*
X136594430Y-22330610D01*
X136594429Y-22330609D01*
X136398870Y-22199940D01*
X136232560Y-22033630D01*
X136101891Y-21838071D01*
X136072445Y-21766983D01*
X136011884Y-21620776D01*
X135966000Y-21390100D01*
X135966000Y-21154900D01*
X136011884Y-20924224D01*
X136101890Y-20706931D01*
X136108172Y-20697530D01*
X136232560Y-20511370D01*
X136398870Y-20345060D01*
X136594429Y-20214391D01*
X136594431Y-20214390D01*
X136811724Y-20124384D01*
X137042400Y-20078500D01*
X137277600Y-20078500D01*
X137508276Y-20124384D01*
X137508276Y-20124384D01*
G37*
G36*
X129888276Y-20124384D02*
G01*
X130105569Y-20214390D01*
X130105571Y-20214391D01*
X130301130Y-20345060D01*
X130467440Y-20511370D01*
X130591829Y-20697530D01*
X130598110Y-20706931D01*
X130688116Y-20924224D01*
X130734000Y-21154900D01*
X130734000Y-21390100D01*
X130688116Y-21620776D01*
X130627555Y-21766983D01*
X130598109Y-21838071D01*
X130467440Y-22033630D01*
X130301130Y-22199940D01*
X130105571Y-22330609D01*
X130105570Y-22330610D01*
X130105569Y-22330610D01*
X129888276Y-22420616D01*
X129657600Y-22466500D01*
X129422400Y-22466500D01*
X129191724Y-22420616D01*
X128974431Y-22330610D01*
X128974430Y-22330610D01*
X128974429Y-22330609D01*
X128778870Y-22199940D01*
X128612560Y-22033630D01*
X128481891Y-21838071D01*
X128452445Y-21766983D01*
X128391884Y-21620776D01*
X128346000Y-21390100D01*
X128346000Y-21154900D01*
X128391884Y-20924224D01*
X128481890Y-20706931D01*
X128488172Y-20697530D01*
X128612560Y-20511370D01*
X128778870Y-20345060D01*
X128974429Y-20214391D01*
X128974431Y-20214390D01*
X129191724Y-20124384D01*
X129422400Y-20078500D01*
X129657600Y-20078500D01*
X129888276Y-20124384D01*
X129888276Y-20124384D01*
G37*
G36*
X114896474Y-17083684D02*
G01*
X115114474Y-17173983D01*
X115268623Y-17237833D01*
X115603548Y-17461623D01*
X115888377Y-17746452D01*
X116112167Y-18081377D01*
X116176017Y-18235526D01*
X116266316Y-18453526D01*
X116344900Y-18848594D01*
X116344900Y-19251406D01*
X116266316Y-19646474D01*
X116206613Y-19790609D01*
X116112167Y-20018623D01*
X115888377Y-20353548D01*
X115603548Y-20638377D01*
X115268623Y-20862167D01*
X115210971Y-20886047D01*
X114896474Y-21016316D01*
X114501406Y-21094900D01*
X114098594Y-21094900D01*
X113703526Y-21016316D01*
X113389029Y-20886047D01*
X113331377Y-20862167D01*
X112996452Y-20638377D01*
X112711623Y-20353548D01*
X112487833Y-20018623D01*
X112393387Y-19790609D01*
X112333684Y-19646474D01*
X112255100Y-19251406D01*
X112255100Y-18848594D01*
X112333684Y-18453526D01*
X112423983Y-18235526D01*
X112487833Y-18081377D01*
X112711623Y-17746452D01*
X112996452Y-17461623D01*
X113331377Y-17237833D01*
X113485526Y-17173983D01*
X113703526Y-17083684D01*
X114098594Y-17005100D01*
X114501406Y-17005100D01*
X114896474Y-17083684D01*
X114896474Y-17083684D01*
G37*
G36*
X119555952Y-18165430D02*
G01*
X119643075Y-18182759D01*
X119752498Y-18228084D01*
X119807211Y-18250747D01*
X119953933Y-18348783D01*
X119954928Y-18349448D01*
X120080552Y-18475072D01*
X120080554Y-18475075D01*
X120179253Y-18622789D01*
X120179253Y-18622790D01*
X120247241Y-18786925D01*
X120281900Y-18961171D01*
X120281900Y-19138829D01*
X120247241Y-19313075D01*
X120201916Y-19422498D01*
X120179253Y-19477211D01*
X120168282Y-19493630D01*
X120080552Y-19624928D01*
X119954928Y-19750552D01*
X119954925Y-19750554D01*
X119807211Y-19849253D01*
X119752498Y-19871916D01*
X119643075Y-19917241D01*
X119555952Y-19934570D01*
X119468831Y-19951900D01*
X119291169Y-19951900D01*
X119204048Y-19934570D01*
X119116925Y-19917241D01*
X119007502Y-19871916D01*
X118952789Y-19849253D01*
X118805075Y-19750554D01*
X118805072Y-19750552D01*
X118679448Y-19624928D01*
X118591718Y-19493630D01*
X118580747Y-19477211D01*
X118558084Y-19422498D01*
X118512759Y-19313075D01*
X118478100Y-19138829D01*
X118478100Y-18961171D01*
X118512759Y-18786925D01*
X118580747Y-18622790D01*
X118580747Y-18622789D01*
X118679446Y-18475075D01*
X118679448Y-18475072D01*
X118805072Y-18349448D01*
X118806067Y-18348783D01*
X118952789Y-18250747D01*
X119007502Y-18228084D01*
X119116925Y-18182759D01*
X119204048Y-18165430D01*
X119291169Y-18148100D01*
X119468831Y-18148100D01*
X119555952Y-18165430D01*
X119555952Y-18165430D01*
G37*
G36*
X109395952Y-18165430D02*
G01*
X109483075Y-18182759D01*
X109592498Y-18228084D01*
X109647211Y-18250747D01*
X109793933Y-18348783D01*
X109794928Y-18349448D01*
X109920552Y-18475072D01*
X109920554Y-18475075D01*
X110019253Y-18622789D01*
X110019253Y-18622790D01*
X110087241Y-18786925D01*
X110121900Y-18961171D01*
X110121900Y-19138829D01*
X110087241Y-19313075D01*
X110041916Y-19422498D01*
X110019253Y-19477211D01*
X110008282Y-19493630D01*
X109920552Y-19624928D01*
X109794928Y-19750552D01*
X109794925Y-19750554D01*
X109647211Y-19849253D01*
X109592498Y-19871916D01*
X109483075Y-19917241D01*
X109395952Y-19934570D01*
X109308831Y-19951900D01*
X109131169Y-19951900D01*
X109044048Y-19934570D01*
X108956925Y-19917241D01*
X108847502Y-19871916D01*
X108792789Y-19849253D01*
X108645075Y-19750554D01*
X108645072Y-19750552D01*
X108519448Y-19624928D01*
X108431718Y-19493630D01*
X108420747Y-19477211D01*
X108398084Y-19422498D01*
X108352759Y-19313075D01*
X108318100Y-19138829D01*
X108318100Y-18961171D01*
X108352759Y-18786925D01*
X108420747Y-18622790D01*
X108420747Y-18622789D01*
X108519446Y-18475075D01*
X108519448Y-18475072D01*
X108645072Y-18349448D01*
X108646067Y-18348783D01*
X108792789Y-18250747D01*
X108847502Y-18228084D01*
X108956925Y-18182759D01*
X109044048Y-18165430D01*
X109131169Y-18148100D01*
X109308831Y-18148100D01*
X109395952Y-18165430D01*
X109395952Y-18165430D01*
G37*
G36*
X136238276Y-17584384D02*
G01*
X136416280Y-17658116D01*
X136455571Y-17674391D01*
X136651130Y-17805060D01*
X136817440Y-17971370D01*
X136935528Y-18148100D01*
X136948110Y-18166931D01*
X137038116Y-18384224D01*
X137084000Y-18614900D01*
X137084000Y-18850100D01*
X137038116Y-19080776D01*
X136948110Y-19298069D01*
X136948109Y-19298071D01*
X136817440Y-19493630D01*
X136651130Y-19659940D01*
X136455571Y-19790609D01*
X136455570Y-19790610D01*
X136455569Y-19790610D01*
X136238276Y-19880616D01*
X136007600Y-19926500D01*
X135772400Y-19926500D01*
X135541724Y-19880616D01*
X135324431Y-19790610D01*
X135324430Y-19790610D01*
X135324429Y-19790609D01*
X135128870Y-19659940D01*
X134962560Y-19493630D01*
X134831891Y-19298071D01*
X134831890Y-19298069D01*
X134741884Y-19080776D01*
X134696000Y-18850100D01*
X134696000Y-18614900D01*
X134741884Y-18384224D01*
X134831890Y-18166931D01*
X134844473Y-18148100D01*
X134962560Y-17971370D01*
X135128870Y-17805060D01*
X135324429Y-17674391D01*
X135363720Y-17658116D01*
X135541724Y-17584384D01*
X135772400Y-17538500D01*
X136007600Y-17538500D01*
X136238276Y-17584384D01*
X136238276Y-17584384D01*
G37*
G36*
X131158276Y-17584384D02*
G01*
X131336280Y-17658116D01*
X131375571Y-17674391D01*
X131571130Y-17805060D01*
X131737440Y-17971370D01*
X131855528Y-18148100D01*
X131868110Y-18166931D01*
X131958116Y-18384224D01*
X132004000Y-18614900D01*
X132004000Y-18850100D01*
X131958116Y-19080776D01*
X131868110Y-19298069D01*
X131868109Y-19298071D01*
X131737440Y-19493630D01*
X131571130Y-19659940D01*
X131375571Y-19790609D01*
X131375570Y-19790610D01*
X131375569Y-19790610D01*
X131158276Y-19880616D01*
X130927600Y-19926500D01*
X130692400Y-19926500D01*
X130461724Y-19880616D01*
X130244431Y-19790610D01*
X130244430Y-19790610D01*
X130244429Y-19790609D01*
X130048870Y-19659940D01*
X129882560Y-19493630D01*
X129751891Y-19298071D01*
X129751890Y-19298069D01*
X129661884Y-19080776D01*
X129616000Y-18850100D01*
X129616000Y-18614900D01*
X129661884Y-18384224D01*
X129751890Y-18166931D01*
X129764473Y-18148100D01*
X129882560Y-17971370D01*
X130048870Y-17805060D01*
X130244429Y-17674391D01*
X130283720Y-17658116D01*
X130461724Y-17584384D01*
X130692400Y-17538500D01*
X130927600Y-17538500D01*
X131158276Y-17584384D01*
X131158276Y-17584384D01*
G37*
G36*
X98138276Y-17584384D02*
G01*
X98316280Y-17658116D01*
X98355571Y-17674391D01*
X98551130Y-17805060D01*
X98717440Y-17971370D01*
X98835528Y-18148100D01*
X98848110Y-18166931D01*
X98938116Y-18384224D01*
X98984000Y-18614900D01*
X98984000Y-18850100D01*
X98938116Y-19080776D01*
X98848110Y-19298069D01*
X98848109Y-19298071D01*
X98717440Y-19493630D01*
X98551130Y-19659940D01*
X98355571Y-19790609D01*
X98355570Y-19790610D01*
X98355569Y-19790610D01*
X98138276Y-19880616D01*
X97907600Y-19926500D01*
X97672400Y-19926500D01*
X97441724Y-19880616D01*
X97224431Y-19790610D01*
X97224430Y-19790610D01*
X97224429Y-19790609D01*
X97028870Y-19659940D01*
X96862560Y-19493630D01*
X96731891Y-19298071D01*
X96731890Y-19298069D01*
X96641884Y-19080776D01*
X96596000Y-18850100D01*
X96596000Y-18614900D01*
X96641884Y-18384224D01*
X96731890Y-18166931D01*
X96744473Y-18148100D01*
X96862560Y-17971370D01*
X97028870Y-17805060D01*
X97224429Y-17674391D01*
X97263720Y-17658116D01*
X97441724Y-17584384D01*
X97672400Y-17538500D01*
X97907600Y-17538500D01*
X98138276Y-17584384D01*
X98138276Y-17584384D01*
G37*
G36*
X93058276Y-17584384D02*
G01*
X93236280Y-17658116D01*
X93275571Y-17674391D01*
X93471130Y-17805060D01*
X93637440Y-17971370D01*
X93755528Y-18148100D01*
X93768110Y-18166931D01*
X93858116Y-18384224D01*
X93904000Y-18614900D01*
X93904000Y-18850100D01*
X93858116Y-19080776D01*
X93768110Y-19298069D01*
X93768109Y-19298071D01*
X93637440Y-19493630D01*
X93471130Y-19659940D01*
X93275571Y-19790609D01*
X93275570Y-19790610D01*
X93275569Y-19790610D01*
X93058276Y-19880616D01*
X92827600Y-19926500D01*
X92592400Y-19926500D01*
X92361724Y-19880616D01*
X92144431Y-19790610D01*
X92144430Y-19790610D01*
X92144429Y-19790609D01*
X91948870Y-19659940D01*
X91782560Y-19493630D01*
X91651891Y-19298071D01*
X91651890Y-19298069D01*
X91561884Y-19080776D01*
X91516000Y-18850100D01*
X91516000Y-18614900D01*
X91561884Y-18384224D01*
X91651890Y-18166931D01*
X91664473Y-18148100D01*
X91782560Y-17971370D01*
X91948870Y-17805060D01*
X92144429Y-17674391D01*
X92183720Y-17658116D01*
X92361724Y-17584384D01*
X92592400Y-17538500D01*
X92827600Y-17538500D01*
X93058276Y-17584384D01*
X93058276Y-17584384D01*
G37*
G36*
X118458276Y-15361884D02*
G01*
X118675569Y-15451890D01*
X118675571Y-15451891D01*
X118871130Y-15582560D01*
X119037440Y-15748870D01*
X119168110Y-15944431D01*
X119258116Y-16161724D01*
X119304000Y-16392400D01*
X119304000Y-16627600D01*
X119258116Y-16858276D01*
X119197299Y-17005100D01*
X119168109Y-17075571D01*
X119037440Y-17271130D01*
X118871130Y-17437440D01*
X118675571Y-17568109D01*
X118675570Y-17568110D01*
X118675569Y-17568110D01*
X118458276Y-17658116D01*
X118227600Y-17704000D01*
X117992400Y-17704000D01*
X117761724Y-17658116D01*
X117544431Y-17568110D01*
X117544430Y-17568110D01*
X117544429Y-17568109D01*
X117348870Y-17437440D01*
X117182560Y-17271130D01*
X117051891Y-17075571D01*
X117022701Y-17005100D01*
X116961884Y-16858276D01*
X116916000Y-16627600D01*
X116916000Y-16392400D01*
X116961884Y-16161724D01*
X117051890Y-15944431D01*
X117182560Y-15748870D01*
X117348870Y-15582560D01*
X117544429Y-15451891D01*
X117544431Y-15451890D01*
X117761724Y-15361884D01*
X117992400Y-15316000D01*
X118227600Y-15316000D01*
X118458276Y-15361884D01*
X118458276Y-15361884D01*
G37*
G36*
X110838276Y-15361884D02*
G01*
X111055569Y-15451890D01*
X111055571Y-15451891D01*
X111251130Y-15582560D01*
X111417440Y-15748870D01*
X111548110Y-15944431D01*
X111638116Y-16161724D01*
X111684000Y-16392400D01*
X111684000Y-16627600D01*
X111638116Y-16858276D01*
X111577299Y-17005100D01*
X111548109Y-17075571D01*
X111417440Y-17271130D01*
X111251130Y-17437440D01*
X111055571Y-17568109D01*
X111055570Y-17568110D01*
X111055569Y-17568110D01*
X110838276Y-17658116D01*
X110607600Y-17704000D01*
X110372400Y-17704000D01*
X110141724Y-17658116D01*
X109924431Y-17568110D01*
X109924430Y-17568110D01*
X109924429Y-17568109D01*
X109728870Y-17437440D01*
X109562560Y-17271130D01*
X109431891Y-17075571D01*
X109402701Y-17005100D01*
X109341884Y-16858276D01*
X109296000Y-16627600D01*
X109296000Y-16392400D01*
X109341884Y-16161724D01*
X109431890Y-15944431D01*
X109562560Y-15748870D01*
X109728870Y-15582560D01*
X109924429Y-15451891D01*
X109924431Y-15451890D01*
X110141724Y-15361884D01*
X110372400Y-15316000D01*
X110607600Y-15316000D01*
X110838276Y-15361884D01*
X110838276Y-15361884D01*
G37*
G36*
X117188276Y-12821884D02*
G01*
X117405569Y-12911890D01*
X117405571Y-12911891D01*
X117601130Y-13042560D01*
X117767440Y-13208870D01*
X117898110Y-13404431D01*
X117988116Y-13621724D01*
X118034000Y-13852400D01*
X118034000Y-14087600D01*
X117988116Y-14318276D01*
X117898110Y-14535569D01*
X117898109Y-14535571D01*
X117767440Y-14731130D01*
X117601130Y-14897440D01*
X117405571Y-15028109D01*
X117405570Y-15028110D01*
X117405569Y-15028110D01*
X117188276Y-15118116D01*
X116957600Y-15164000D01*
X116722400Y-15164000D01*
X116491724Y-15118116D01*
X116274431Y-15028110D01*
X116274430Y-15028110D01*
X116274429Y-15028109D01*
X116078870Y-14897440D01*
X115912560Y-14731130D01*
X115781891Y-14535571D01*
X115781890Y-14535569D01*
X115691884Y-14318276D01*
X115646000Y-14087600D01*
X115646000Y-13852400D01*
X115691884Y-13621724D01*
X115781890Y-13404431D01*
X115912560Y-13208870D01*
X116078870Y-13042560D01*
X116274429Y-12911891D01*
X116274431Y-12911890D01*
X116491724Y-12821884D01*
X116722400Y-12776000D01*
X116957600Y-12776000D01*
X117188276Y-12821884D01*
X117188276Y-12821884D01*
G37*
G36*
X112108276Y-12821884D02*
G01*
X112325569Y-12911890D01*
X112325571Y-12911891D01*
X112521130Y-13042560D01*
X112687440Y-13208870D01*
X112818110Y-13404431D01*
X112908116Y-13621724D01*
X112954000Y-13852400D01*
X112954000Y-14087600D01*
X112908116Y-14318276D01*
X112818110Y-14535569D01*
X112818109Y-14535571D01*
X112687440Y-14731130D01*
X112521130Y-14897440D01*
X112325571Y-15028109D01*
X112325570Y-15028110D01*
X112325569Y-15028110D01*
X112108276Y-15118116D01*
X111877600Y-15164000D01*
X111642400Y-15164000D01*
X111411724Y-15118116D01*
X111194431Y-15028110D01*
X111194430Y-15028110D01*
X111194429Y-15028109D01*
X110998870Y-14897440D01*
X110832560Y-14731130D01*
X110701891Y-14535571D01*
X110701890Y-14535569D01*
X110611884Y-14318276D01*
X110566000Y-14087600D01*
X110566000Y-13852400D01*
X110611884Y-13621724D01*
X110701890Y-13404431D01*
X110832560Y-13208870D01*
X110998870Y-13042560D01*
X111194429Y-12911891D01*
X111194431Y-12911890D01*
X111411724Y-12821884D01*
X111642400Y-12776000D01*
X111877600Y-12776000D01*
X112108276Y-12821884D01*
X112108276Y-12821884D01*
G37*
M02*
