M48
; DRILL file {KiCad (5.1.0-0)} date 2019 July 24, Wednesday 22:08:05
; FORMAT={-:-/ absolute / inch / decimal}
; #@! TF.CreationDate,2019-07-24T22:08:05+02:00
; #@! TF.GenerationSoftware,Kicad,Pcbnew,(5.1.0-0)
; #@! TF.FileFunction,Plated,1,2,PTH
FMAT,2
INCH
T1C0.0315
T2C0.0430
T3C0.0590
%
G90
G05
T1
X5.4562Y-2.4375
X2.9062Y-1.5
X3.2062Y-1.5
X5.9062Y-2.4375
X6.2062Y-2.4375
X4.4062Y-1.125
X4.7062Y-1.125
X2.9062Y-2.25
X3.2062Y-2.25
X3.6562Y-1.3125
X3.9562Y-1.3125
X4.4062Y-1.875
X4.7062Y-1.875
X5.1562Y-1.3125
X5.4562Y-1.3125
X5.1562Y-2.4375
X3.6562Y-2.0625
X3.9562Y-2.0625
X5.1562Y-2.0625
X5.4562Y-2.0625
T2
X5.7Y-0.95
X5.7Y-1.05
X5.7Y-1.15
X5.7Y-1.25
X5.7Y-1.35
X5.7Y-1.45
X5.7Y-1.55
X5.7Y-1.65
X5.7Y-1.75
X5.7Y-1.85
X5.7Y-1.95
X5.7Y-2.05
X6.3Y-0.95
X6.3Y-1.05
X6.3Y-1.15
X6.3Y-1.25
X6.3Y-1.35
X6.3Y-1.45
X6.3Y-1.55
X6.3Y-1.65
X6.3Y-1.75
X6.3Y-1.85
X6.3Y-1.95
X6.3Y-2.05
T3
X3.6Y-0.8375
X3.65Y-0.7375
X3.85Y-0.7375
X3.9Y-0.8375
X5.1Y-0.8375
X5.15Y-0.7375
X5.35Y-0.7375
X5.4Y-0.8375
X4.35Y-0.65
X4.4Y-0.55
X4.6Y-0.55
X4.65Y-0.65
X5.1Y-2.7125
X5.15Y-2.6125
X5.35Y-2.6125
X5.4Y-2.7125
X5.1Y-1.5875
X5.15Y-1.4875
X5.35Y-1.4875
X5.4Y-1.5875
X3.6Y-1.5875
X3.65Y-1.4875
X3.85Y-1.4875
X3.9Y-1.5875
X5.9Y-2.6125
X6.1Y-2.6125
X6.15Y-2.7125
X4.35Y-1.4
X4.4Y-1.3
X4.6Y-1.3
X4.65Y-1.4
X2.85Y-1.775
X2.85Y-1.025
X2.9Y-0.925
X3.1Y-0.925
X3.15Y-1.025
X2.9Y-1.675
X3.1Y-1.675
X3.15Y-1.775
X5.85Y-2.7125
T0
M30
