G04 #@! TF.GenerationSoftware,KiCad,Pcbnew,(5.1.0-0)*
G04 #@! TF.CreationDate,2019-07-24T22:08:00+02:00*
G04 #@! TF.ProjectId,tutorial,7475746f-7269-4616-9c2e-6b696361645f,rev?*
G04 #@! TF.SameCoordinates,Original*
G04 #@! TF.FileFunction,Legend,Bot*
G04 #@! TF.FilePolarity,Positive*
%FSLAX46Y46*%
G04 Gerber Fmt 4.6, Leading zero omitted, Abs format (unit mm)*
G04 Created by KiCad (PCBNEW (5.1.0-0)) date 2019-07-24 22:08:00*
%MOMM*%
%LPD*%
G04 APERTURE LIST*
%ADD10C,0.475000*%
%ADD11C,0.150000*%
%ADD12C,0.381000*%
%ADD13C,1.803800*%
%ADD14C,2.388000*%
%ADD15C,4.089800*%
%ADD16O,1.702000X1.702000*%
%ADD17R,1.702000X1.702000*%
%ADD18C,1.854600*%
%ADD19R,1.854600X1.854600*%
%ADD20C,2.302000*%
G04 APERTURE END LIST*
D10*
X140953440Y-16577678D02*
X141134392Y-16449107D01*
X141224869Y-16191964D01*
X141224869Y-13877678D01*
X139958202Y-16577678D02*
X140139154Y-16449107D01*
X140229630Y-16320535D01*
X140320107Y-16063392D01*
X140320107Y-15291964D01*
X140229630Y-15034821D01*
X140139154Y-14906250D01*
X139958202Y-14777678D01*
X139686773Y-14777678D01*
X139505821Y-14906250D01*
X139415345Y-15034821D01*
X139324869Y-15291964D01*
X139324869Y-16063392D01*
X139415345Y-16320535D01*
X139505821Y-16449107D01*
X139686773Y-16577678D01*
X139958202Y-16577678D01*
X138510583Y-14777678D02*
X138510583Y-16577678D01*
X138510583Y-15034821D02*
X138420107Y-14906250D01*
X138239154Y-14777678D01*
X137967726Y-14777678D01*
X137786773Y-14906250D01*
X137696297Y-15163392D01*
X137696297Y-16577678D01*
X135977250Y-14777678D02*
X135977250Y-16963392D01*
X136067726Y-17220535D01*
X136158202Y-17349107D01*
X136339154Y-17477678D01*
X136610583Y-17477678D01*
X136791535Y-17349107D01*
X135977250Y-16449107D02*
X136158202Y-16577678D01*
X136520107Y-16577678D01*
X136701059Y-16449107D01*
X136791535Y-16320535D01*
X136882011Y-16063392D01*
X136882011Y-15291964D01*
X136791535Y-15034821D01*
X136701059Y-14906250D01*
X136520107Y-14777678D01*
X136158202Y-14777678D01*
X135977250Y-14906250D01*
X133624869Y-16577678D02*
X133624869Y-14777678D01*
X133624869Y-13877678D02*
X133715345Y-14006250D01*
X133624869Y-14134821D01*
X133534392Y-14006250D01*
X133624869Y-13877678D01*
X133624869Y-14134821D01*
X132629630Y-16449107D02*
X132629630Y-16577678D01*
X132720107Y-16834821D01*
X132810583Y-16963392D01*
X132720107Y-14906250D02*
X132629630Y-15034821D01*
X132720107Y-15163392D01*
X132810583Y-15034821D01*
X132720107Y-14906250D01*
X132720107Y-15163392D01*
X141496297Y-19302678D02*
X140772488Y-19302678D01*
X141224869Y-21102678D02*
X141224869Y-18788392D01*
X141134392Y-18531250D01*
X140953440Y-18402678D01*
X140772488Y-18402678D01*
X139867726Y-21102678D02*
X140048678Y-20974107D01*
X140139154Y-20716964D01*
X140139154Y-18402678D01*
X138872488Y-21102678D02*
X139053440Y-20974107D01*
X139143916Y-20845535D01*
X139234392Y-20588392D01*
X139234392Y-19816964D01*
X139143916Y-19559821D01*
X139053440Y-19431250D01*
X138872488Y-19302678D01*
X138601059Y-19302678D01*
X138420107Y-19431250D01*
X138329630Y-19559821D01*
X138239154Y-19816964D01*
X138239154Y-20588392D01*
X138329630Y-20845535D01*
X138420107Y-20974107D01*
X138601059Y-21102678D01*
X138872488Y-21102678D01*
X136610583Y-21102678D02*
X136610583Y-19688392D01*
X136701059Y-19431250D01*
X136882011Y-19302678D01*
X137243916Y-19302678D01*
X137424869Y-19431250D01*
X136610583Y-20974107D02*
X136791535Y-21102678D01*
X137243916Y-21102678D01*
X137424869Y-20974107D01*
X137515345Y-20716964D01*
X137515345Y-20459821D01*
X137424869Y-20202678D01*
X137243916Y-20074107D01*
X136791535Y-20074107D01*
X136610583Y-19945535D01*
X135977250Y-19302678D02*
X135253440Y-19302678D01*
X135705821Y-18402678D02*
X135705821Y-20716964D01*
X135615345Y-20974107D01*
X135434392Y-21102678D01*
X135253440Y-21102678D01*
X133353440Y-21102678D02*
X132358202Y-19302678D01*
X133353440Y-19302678D02*
X132358202Y-21102678D01*
X131724869Y-18659821D02*
X131634392Y-18531250D01*
X131453440Y-18402678D01*
X131001059Y-18402678D01*
X130820107Y-18531250D01*
X130729630Y-18659821D01*
X130639154Y-18916964D01*
X130639154Y-19174107D01*
X130729630Y-19559821D01*
X131815345Y-21102678D01*
X130639154Y-21102678D01*
X129734392Y-20974107D02*
X129734392Y-21102678D01*
X129824869Y-21359821D01*
X129915345Y-21488392D01*
X127653440Y-19302678D02*
X127201059Y-21102678D01*
X126748678Y-19302678D02*
X127201059Y-21102678D01*
X127382011Y-21745535D01*
X127472488Y-21874107D01*
X127653440Y-22002678D01*
X125934392Y-20974107D02*
X125934392Y-21102678D01*
X126024869Y-21359821D01*
X126115345Y-21488392D01*
X126024869Y-19431250D02*
X125934392Y-19559821D01*
X126024869Y-19688392D01*
X126115345Y-19559821D01*
X126024869Y-19431250D01*
X126024869Y-19688392D01*
X140410583Y-25499107D02*
X140591535Y-25627678D01*
X140953440Y-25627678D01*
X141134392Y-25499107D01*
X141224869Y-25370535D01*
X141315345Y-25113392D01*
X141315345Y-24341964D01*
X141224869Y-24084821D01*
X141134392Y-23956250D01*
X140953440Y-23827678D01*
X140591535Y-23827678D01*
X140410583Y-23956250D01*
X139324869Y-25627678D02*
X139505821Y-25499107D01*
X139596297Y-25370535D01*
X139686773Y-25113392D01*
X139686773Y-24341964D01*
X139596297Y-24084821D01*
X139505821Y-23956250D01*
X139324869Y-23827678D01*
X139053440Y-23827678D01*
X138872488Y-23956250D01*
X138782011Y-24084821D01*
X138691535Y-24341964D01*
X138691535Y-25113392D01*
X138782011Y-25370535D01*
X138872488Y-25499107D01*
X139053440Y-25627678D01*
X139324869Y-25627678D01*
X137877250Y-23827678D02*
X137877250Y-25627678D01*
X137877250Y-24084821D02*
X137786773Y-23956250D01*
X137605821Y-23827678D01*
X137334392Y-23827678D01*
X137153440Y-23956250D01*
X137062964Y-24213392D01*
X137062964Y-25627678D01*
X136248678Y-25499107D02*
X136067726Y-25627678D01*
X135705821Y-25627678D01*
X135524869Y-25499107D01*
X135434392Y-25241964D01*
X135434392Y-25113392D01*
X135524869Y-24856250D01*
X135705821Y-24727678D01*
X135977250Y-24727678D01*
X136158202Y-24599107D01*
X136248678Y-24341964D01*
X136248678Y-24213392D01*
X136158202Y-23956250D01*
X135977250Y-23827678D01*
X135705821Y-23827678D01*
X135524869Y-23956250D01*
X134891535Y-23827678D02*
X134167726Y-23827678D01*
X134620107Y-22927678D02*
X134620107Y-25241964D01*
X134529630Y-25499107D01*
X134348678Y-25627678D01*
X134167726Y-25627678D01*
X132358202Y-23827678D02*
X131634392Y-23827678D01*
X132086773Y-25627678D02*
X132086773Y-23313392D01*
X131996297Y-23056250D01*
X131815345Y-22927678D01*
X131634392Y-22927678D01*
X130729630Y-25627678D02*
X130910583Y-25499107D01*
X131001059Y-25241964D01*
X131001059Y-22927678D01*
X129734392Y-25627678D02*
X129915345Y-25499107D01*
X130005821Y-25370535D01*
X130096297Y-25113392D01*
X130096297Y-24341964D01*
X130005821Y-24084821D01*
X129915345Y-23956250D01*
X129734392Y-23827678D01*
X129462964Y-23827678D01*
X129282011Y-23956250D01*
X129191535Y-24084821D01*
X129101059Y-24341964D01*
X129101059Y-25113392D01*
X129191535Y-25370535D01*
X129282011Y-25499107D01*
X129462964Y-25627678D01*
X129734392Y-25627678D01*
X127472488Y-25627678D02*
X127472488Y-24213392D01*
X127562964Y-23956250D01*
X127743916Y-23827678D01*
X128105821Y-23827678D01*
X128286773Y-23956250D01*
X127472488Y-25499107D02*
X127653440Y-25627678D01*
X128105821Y-25627678D01*
X128286773Y-25499107D01*
X128377250Y-25241964D01*
X128377250Y-24984821D01*
X128286773Y-24727678D01*
X128105821Y-24599107D01*
X127653440Y-24599107D01*
X127472488Y-24470535D01*
X126839154Y-23827678D02*
X126115345Y-23827678D01*
X126567726Y-22927678D02*
X126567726Y-25241964D01*
X126477250Y-25499107D01*
X126296297Y-25627678D01*
X126115345Y-25627678D01*
X124305821Y-23827678D02*
X123582011Y-23827678D01*
X124034392Y-22927678D02*
X124034392Y-25241964D01*
X123943916Y-25499107D01*
X123762964Y-25627678D01*
X123582011Y-25627678D01*
X122948678Y-25627678D02*
X122948678Y-22927678D01*
X122134392Y-25627678D02*
X122134392Y-24213392D01*
X122224869Y-23956250D01*
X122405821Y-23827678D01*
X122677250Y-23827678D01*
X122858202Y-23956250D01*
X122948678Y-24084821D01*
X121229630Y-25627678D02*
X121229630Y-23827678D01*
X121229630Y-24341964D02*
X121139154Y-24084821D01*
X121048678Y-23956250D01*
X120867726Y-23827678D01*
X120686773Y-23827678D01*
X119329630Y-25499107D02*
X119510583Y-25627678D01*
X119872488Y-25627678D01*
X120053440Y-25499107D01*
X120143916Y-25241964D01*
X120143916Y-24213392D01*
X120053440Y-23956250D01*
X119872488Y-23827678D01*
X119510583Y-23827678D01*
X119329630Y-23956250D01*
X119239154Y-24213392D01*
X119239154Y-24470535D01*
X120143916Y-24727678D01*
X117701059Y-25499107D02*
X117882011Y-25627678D01*
X118243916Y-25627678D01*
X118424869Y-25499107D01*
X118515345Y-25241964D01*
X118515345Y-24213392D01*
X118424869Y-23956250D01*
X118243916Y-23827678D01*
X117882011Y-23827678D01*
X117701059Y-23956250D01*
X117610583Y-24213392D01*
X117610583Y-24470535D01*
X118515345Y-24727678D01*
X116796297Y-25627678D02*
X116796297Y-22927678D01*
X115982011Y-25627678D02*
X115982011Y-24213392D01*
X116072488Y-23956250D01*
X116253440Y-23827678D01*
X116524869Y-23827678D01*
X116705821Y-23956250D01*
X116796297Y-24084821D01*
X114262964Y-25627678D02*
X114262964Y-24213392D01*
X114353440Y-23956250D01*
X114534392Y-23827678D01*
X114896297Y-23827678D01*
X115077250Y-23956250D01*
X114262964Y-25499107D02*
X114443916Y-25627678D01*
X114896297Y-25627678D01*
X115077250Y-25499107D01*
X115167726Y-25241964D01*
X115167726Y-24984821D01*
X115077250Y-24727678D01*
X114896297Y-24599107D01*
X114443916Y-24599107D01*
X114262964Y-24470535D01*
X113086773Y-25627678D02*
X113267726Y-25499107D01*
X113358202Y-25241964D01*
X113358202Y-22927678D01*
X112634392Y-23827678D02*
X111910583Y-23827678D01*
X112362964Y-25627678D02*
X112362964Y-23313392D01*
X112272488Y-23056250D01*
X112091535Y-22927678D01*
X111910583Y-22927678D01*
X111367726Y-25499107D02*
X111186773Y-25627678D01*
X110824869Y-25627678D01*
X110643916Y-25499107D01*
X110553440Y-25241964D01*
X110553440Y-25113392D01*
X110643916Y-24856250D01*
X110824869Y-24727678D01*
X111096297Y-24727678D01*
X111277250Y-24599107D01*
X111367726Y-24341964D01*
X111367726Y-24213392D01*
X111277250Y-23956250D01*
X111096297Y-23827678D01*
X110824869Y-23827678D01*
X110643916Y-23956250D01*
X108291535Y-24213392D02*
X106843916Y-24213392D01*
X106843916Y-24984821D02*
X108291535Y-24984821D01*
X103496297Y-25627678D02*
X104582011Y-25627678D01*
X104039154Y-25627678D02*
X104039154Y-22927678D01*
X104220107Y-23313392D01*
X104401059Y-23570535D01*
X104582011Y-23699107D01*
X102682011Y-25370535D02*
X102591535Y-25499107D01*
X102682011Y-25627678D01*
X102772488Y-25499107D01*
X102682011Y-25370535D01*
X102682011Y-25627678D01*
X100872488Y-22927678D02*
X101777250Y-22927678D01*
X101867726Y-24213392D01*
X101777250Y-24084821D01*
X101596297Y-23956250D01*
X101143916Y-23956250D01*
X100962964Y-24084821D01*
X100872488Y-24213392D01*
X100782011Y-24470535D01*
X100782011Y-25113392D01*
X100872488Y-25370535D01*
X100962964Y-25499107D01*
X101143916Y-25627678D01*
X101596297Y-25627678D01*
X101777250Y-25499107D01*
X101867726Y-25370535D01*
X99334392Y-24213392D02*
X99967726Y-24213392D01*
X99967726Y-25627678D02*
X99967726Y-22927678D01*
X99062964Y-22927678D01*
X98248678Y-25499107D02*
X98248678Y-25627678D01*
X98339154Y-25884821D01*
X98429630Y-26013392D01*
X98339154Y-23956250D02*
X98248678Y-24084821D01*
X98339154Y-24213392D01*
X98429630Y-24084821D01*
X98339154Y-23956250D01*
X98339154Y-24213392D01*
X141405821Y-34677678D02*
X140410583Y-32877678D01*
X141405821Y-32877678D02*
X140410583Y-34677678D01*
X139777250Y-32234821D02*
X139686773Y-32106250D01*
X139505821Y-31977678D01*
X139053440Y-31977678D01*
X138872488Y-32106250D01*
X138782011Y-32234821D01*
X138691535Y-32491964D01*
X138691535Y-32749107D01*
X138782011Y-33134821D01*
X139867726Y-34677678D01*
X138691535Y-34677678D01*
X136429630Y-33263392D02*
X134982011Y-33263392D01*
X134982011Y-34034821D02*
X136429630Y-34034821D01*
X132629630Y-32877678D02*
X132629630Y-34677678D01*
X132629630Y-33134821D02*
X132539154Y-33006250D01*
X132358202Y-32877678D01*
X132086773Y-32877678D01*
X131905821Y-33006250D01*
X131815345Y-33263392D01*
X131815345Y-34677678D01*
X130096297Y-32877678D02*
X130096297Y-34677678D01*
X130910583Y-32877678D02*
X130910583Y-34291964D01*
X130820107Y-34549107D01*
X130639154Y-34677678D01*
X130367726Y-34677678D01*
X130186773Y-34549107D01*
X130096297Y-34420535D01*
X129191535Y-34677678D02*
X129191535Y-32877678D01*
X129191535Y-33134821D02*
X129101059Y-33006250D01*
X128920107Y-32877678D01*
X128648678Y-32877678D01*
X128467726Y-33006250D01*
X128377250Y-33263392D01*
X128377250Y-34677678D01*
X128377250Y-33263392D02*
X128286773Y-33006250D01*
X128105821Y-32877678D01*
X127834392Y-32877678D01*
X127653440Y-33006250D01*
X127562964Y-33263392D01*
X127562964Y-34677678D01*
X126658202Y-34677678D02*
X126658202Y-31977678D01*
X126658202Y-33006250D02*
X126477250Y-32877678D01*
X126115345Y-32877678D01*
X125934392Y-33006250D01*
X125843916Y-33134821D01*
X125753440Y-33391964D01*
X125753440Y-34163392D01*
X125843916Y-34420535D01*
X125934392Y-34549107D01*
X126115345Y-34677678D01*
X126477250Y-34677678D01*
X126658202Y-34549107D01*
X124215345Y-34549107D02*
X124396297Y-34677678D01*
X124758202Y-34677678D01*
X124939154Y-34549107D01*
X125029630Y-34291964D01*
X125029630Y-33263392D01*
X124939154Y-33006250D01*
X124758202Y-32877678D01*
X124396297Y-32877678D01*
X124215345Y-33006250D01*
X124124869Y-33263392D01*
X124124869Y-33520535D01*
X125029630Y-33777678D01*
X123310583Y-34677678D02*
X123310583Y-32877678D01*
X123310583Y-33391964D02*
X123220107Y-33134821D01*
X123129630Y-33006250D01*
X122948678Y-32877678D01*
X122767726Y-32877678D01*
X120415345Y-31977678D02*
X120415345Y-32620535D01*
X120867726Y-32363392D02*
X120415345Y-32620535D01*
X119962964Y-32363392D01*
X120686773Y-33134821D02*
X120415345Y-32620535D01*
X120143916Y-33134821D01*
X117429630Y-31977678D02*
X117248678Y-31977678D01*
X117067726Y-32106250D01*
X116977250Y-32234821D01*
X116886773Y-32491964D01*
X116796297Y-33006250D01*
X116796297Y-33649107D01*
X116886773Y-34163392D01*
X116977250Y-34420535D01*
X117067726Y-34549107D01*
X117248678Y-34677678D01*
X117429630Y-34677678D01*
X117610583Y-34549107D01*
X117701059Y-34420535D01*
X117791535Y-34163392D01*
X117882011Y-33649107D01*
X117882011Y-33006250D01*
X117791535Y-32491964D01*
X117701059Y-32234821D01*
X117610583Y-32106250D01*
X117429630Y-31977678D01*
X115982011Y-34420535D02*
X115891535Y-34549107D01*
X115982011Y-34677678D01*
X116072488Y-34549107D01*
X115982011Y-34420535D01*
X115982011Y-34677678D01*
X114172488Y-31977678D02*
X115077250Y-31977678D01*
X115167726Y-33263392D01*
X115077250Y-33134821D01*
X114896297Y-33006250D01*
X114443916Y-33006250D01*
X114262964Y-33134821D01*
X114172488Y-33263392D01*
X114082011Y-33520535D01*
X114082011Y-34163392D01*
X114172488Y-34420535D01*
X114262964Y-34549107D01*
X114443916Y-34677678D01*
X114896297Y-34677678D01*
X115077250Y-34549107D01*
X115167726Y-34420535D01*
X112634392Y-33263392D02*
X113267726Y-33263392D01*
X113267726Y-34677678D02*
X113267726Y-31977678D01*
X112362964Y-31977678D01*
X111548678Y-34549107D02*
X111548678Y-34677678D01*
X111639154Y-34934821D01*
X111729630Y-35063392D01*
X111639154Y-33006250D02*
X111548678Y-33134821D01*
X111639154Y-33263392D01*
X111729630Y-33134821D01*
X111639154Y-33006250D01*
X111639154Y-33263392D01*
X141405821Y-37402678D02*
X140953440Y-39202678D01*
X140501059Y-37402678D02*
X140953440Y-39202678D01*
X141134392Y-39845535D01*
X141224869Y-39974107D01*
X141405821Y-40102678D01*
X136882011Y-37788392D02*
X135434392Y-37788392D01*
X135434392Y-38559821D02*
X136882011Y-38559821D01*
X133082011Y-37402678D02*
X133082011Y-39202678D01*
X133082011Y-37659821D02*
X132991535Y-37531250D01*
X132810583Y-37402678D01*
X132539154Y-37402678D01*
X132358202Y-37531250D01*
X132267726Y-37788392D01*
X132267726Y-39202678D01*
X130548678Y-37402678D02*
X130548678Y-39202678D01*
X131362964Y-37402678D02*
X131362964Y-38816964D01*
X131272488Y-39074107D01*
X131091535Y-39202678D01*
X130820107Y-39202678D01*
X130639154Y-39074107D01*
X130548678Y-38945535D01*
X129643916Y-39202678D02*
X129643916Y-37402678D01*
X129643916Y-37659821D02*
X129553440Y-37531250D01*
X129372488Y-37402678D01*
X129101059Y-37402678D01*
X128920107Y-37531250D01*
X128829630Y-37788392D01*
X128829630Y-39202678D01*
X128829630Y-37788392D02*
X128739154Y-37531250D01*
X128558202Y-37402678D01*
X128286773Y-37402678D01*
X128105821Y-37531250D01*
X128015345Y-37788392D01*
X128015345Y-39202678D01*
X127110583Y-39202678D02*
X127110583Y-36502678D01*
X127110583Y-37531250D02*
X126929630Y-37402678D01*
X126567726Y-37402678D01*
X126386773Y-37531250D01*
X126296297Y-37659821D01*
X126205821Y-37916964D01*
X126205821Y-38688392D01*
X126296297Y-38945535D01*
X126386773Y-39074107D01*
X126567726Y-39202678D01*
X126929630Y-39202678D01*
X127110583Y-39074107D01*
X124667726Y-39074107D02*
X124848678Y-39202678D01*
X125210583Y-39202678D01*
X125391535Y-39074107D01*
X125482011Y-38816964D01*
X125482011Y-37788392D01*
X125391535Y-37531250D01*
X125210583Y-37402678D01*
X124848678Y-37402678D01*
X124667726Y-37531250D01*
X124577250Y-37788392D01*
X124577250Y-38045535D01*
X125482011Y-38302678D01*
X123762964Y-39202678D02*
X123762964Y-37402678D01*
X123762964Y-37916964D02*
X123672488Y-37659821D01*
X123582011Y-37531250D01*
X123401059Y-37402678D01*
X123220107Y-37402678D01*
X122496297Y-39074107D02*
X122496297Y-39202678D01*
X122586773Y-39459821D01*
X122677250Y-39588392D01*
X122586773Y-37531250D02*
X122496297Y-37659821D01*
X122586773Y-37788392D01*
X122677250Y-37659821D01*
X122586773Y-37531250D01*
X122586773Y-37788392D01*
X141224869Y-43727678D02*
X141224869Y-41927678D01*
X141224869Y-41027678D02*
X141315345Y-41156250D01*
X141224869Y-41284821D01*
X141134392Y-41156250D01*
X141224869Y-41027678D01*
X141224869Y-41284821D01*
X137424869Y-42313392D02*
X135977250Y-42313392D01*
X135977250Y-43084821D02*
X137424869Y-43084821D01*
X133353440Y-41027678D02*
X133353440Y-41670535D01*
X133805821Y-41413392D02*
X133353440Y-41670535D01*
X132901059Y-41413392D01*
X133624869Y-42184821D02*
X133353440Y-41670535D01*
X133082011Y-42184821D01*
X130186773Y-44756250D02*
X130277250Y-44627678D01*
X130458202Y-44241964D01*
X130548678Y-43984821D01*
X130639154Y-43599107D01*
X130729630Y-42956250D01*
X130729630Y-42441964D01*
X130639154Y-41799107D01*
X130548678Y-41413392D01*
X130458202Y-41156250D01*
X130277250Y-40770535D01*
X130186773Y-40641964D01*
X127743916Y-43727678D02*
X127924869Y-43599107D01*
X128015345Y-43341964D01*
X128015345Y-41027678D01*
X126748678Y-43727678D02*
X126929630Y-43599107D01*
X127020107Y-43470535D01*
X127110583Y-43213392D01*
X127110583Y-42441964D01*
X127020107Y-42184821D01*
X126929630Y-42056250D01*
X126748678Y-41927678D01*
X126477250Y-41927678D01*
X126296297Y-42056250D01*
X126205821Y-42184821D01*
X126115345Y-42441964D01*
X126115345Y-43213392D01*
X126205821Y-43470535D01*
X126296297Y-43599107D01*
X126477250Y-43727678D01*
X126748678Y-43727678D01*
X125301059Y-41927678D02*
X125301059Y-43727678D01*
X125301059Y-42184821D02*
X125210583Y-42056250D01*
X125029630Y-41927678D01*
X124758202Y-41927678D01*
X124577250Y-42056250D01*
X124486773Y-42313392D01*
X124486773Y-43727678D01*
X122767726Y-41927678D02*
X122767726Y-44113392D01*
X122858202Y-44370535D01*
X122948678Y-44499107D01*
X123129630Y-44627678D01*
X123401059Y-44627678D01*
X123582011Y-44499107D01*
X122767726Y-43599107D02*
X122948678Y-43727678D01*
X123310583Y-43727678D01*
X123491535Y-43599107D01*
X123582011Y-43470535D01*
X123672488Y-43213392D01*
X123672488Y-42441964D01*
X123582011Y-42184821D01*
X123491535Y-42056250D01*
X123310583Y-41927678D01*
X122948678Y-41927678D01*
X122767726Y-42056250D01*
X120143916Y-41027678D02*
X120143916Y-41670535D01*
X120596297Y-41413392D02*
X120143916Y-41670535D01*
X119691535Y-41413392D01*
X120415345Y-42184821D02*
X120143916Y-41670535D01*
X119872488Y-42184821D01*
X117701059Y-44756250D02*
X117610583Y-44627678D01*
X117429630Y-44241964D01*
X117339154Y-43984821D01*
X117248678Y-43599107D01*
X117158202Y-42956250D01*
X117158202Y-42441964D01*
X117248678Y-41799107D01*
X117339154Y-41413392D01*
X117429630Y-41156250D01*
X117610583Y-40770535D01*
X117701059Y-40641964D01*
X113267726Y-43727678D02*
X113358202Y-43727678D01*
X113539154Y-43599107D01*
X113810583Y-43213392D01*
X114262964Y-42441964D01*
X114443916Y-42056250D01*
X114534392Y-41670535D01*
X114534392Y-41413392D01*
X114443916Y-41156250D01*
X114262964Y-41027678D01*
X114172488Y-41027678D01*
X113991535Y-41156250D01*
X113901059Y-41413392D01*
X113901059Y-41541964D01*
X113991535Y-41799107D01*
X114082011Y-41927678D01*
X114624869Y-42441964D01*
X114715345Y-42570535D01*
X114805821Y-42827678D01*
X114805821Y-43213392D01*
X114715345Y-43470535D01*
X114624869Y-43599107D01*
X114443916Y-43727678D01*
X114172488Y-43727678D01*
X113991535Y-43599107D01*
X113901059Y-43470535D01*
X113629630Y-42956250D01*
X113539154Y-42570535D01*
X113539154Y-42313392D01*
X112634392Y-41927678D02*
X112182011Y-43727678D01*
X111729630Y-41927678D02*
X112182011Y-43727678D01*
X112362964Y-44370535D01*
X112453440Y-44499107D01*
X112634392Y-44627678D01*
X110915345Y-43599107D02*
X110915345Y-43727678D01*
X111005821Y-43984821D01*
X111096297Y-44113392D01*
X111005821Y-42056250D02*
X110915345Y-42184821D01*
X111005821Y-42313392D01*
X111096297Y-42184821D01*
X111005821Y-42056250D01*
X111005821Y-42313392D01*
X141224869Y-48252678D02*
X141224869Y-46452678D01*
X141224869Y-45552678D02*
X141315345Y-45681250D01*
X141224869Y-45809821D01*
X141134392Y-45681250D01*
X141224869Y-45552678D01*
X141224869Y-45809821D01*
X137424869Y-46838392D02*
X135977250Y-46838392D01*
X135977250Y-47609821D02*
X137424869Y-47609821D01*
X133262964Y-45552678D02*
X133082011Y-45552678D01*
X132901059Y-45681250D01*
X132810583Y-45809821D01*
X132720107Y-46066964D01*
X132629630Y-46581250D01*
X132629630Y-47224107D01*
X132720107Y-47738392D01*
X132810583Y-47995535D01*
X132901059Y-48124107D01*
X133082011Y-48252678D01*
X133262964Y-48252678D01*
X133443916Y-48124107D01*
X133534392Y-47995535D01*
X133624869Y-47738392D01*
X133715345Y-47224107D01*
X133715345Y-46581250D01*
X133624869Y-46066964D01*
X133534392Y-45809821D01*
X133443916Y-45681250D01*
X133262964Y-45552678D01*
X131996297Y-48252678D02*
X131001059Y-46452678D01*
X131996297Y-46452678D02*
X131001059Y-48252678D01*
X129372488Y-45552678D02*
X130277250Y-45552678D01*
X130367726Y-46838392D01*
X130277250Y-46709821D01*
X130096297Y-46581250D01*
X129643916Y-46581250D01*
X129462964Y-46709821D01*
X129372488Y-46838392D01*
X129282011Y-47095535D01*
X129282011Y-47738392D01*
X129372488Y-47995535D01*
X129462964Y-48124107D01*
X129643916Y-48252678D01*
X130096297Y-48252678D01*
X130277250Y-48124107D01*
X130367726Y-47995535D01*
X128739154Y-46452678D02*
X128015345Y-46452678D01*
X128467726Y-48252678D02*
X128467726Y-45938392D01*
X128377250Y-45681250D01*
X128196297Y-45552678D01*
X128015345Y-45552678D01*
X127562964Y-45552678D02*
X126386773Y-45552678D01*
X127020107Y-46581250D01*
X126748678Y-46581250D01*
X126567726Y-46709821D01*
X126477250Y-46838392D01*
X126386773Y-47095535D01*
X126386773Y-47738392D01*
X126477250Y-47995535D01*
X126567726Y-48124107D01*
X126748678Y-48252678D01*
X127291535Y-48252678D01*
X127472488Y-48124107D01*
X127562964Y-47995535D01*
X125753440Y-45552678D02*
X124486773Y-45552678D01*
X125301059Y-48252678D01*
X122858202Y-45552678D02*
X123762964Y-45552678D01*
X123853440Y-46838392D01*
X123762964Y-46709821D01*
X123582011Y-46581250D01*
X123129630Y-46581250D01*
X122948678Y-46709821D01*
X122858202Y-46838392D01*
X122767726Y-47095535D01*
X122767726Y-47738392D01*
X122858202Y-47995535D01*
X122948678Y-48124107D01*
X123129630Y-48252678D01*
X123582011Y-48252678D01*
X123762964Y-48124107D01*
X123853440Y-47995535D01*
X121862964Y-48252678D02*
X121501059Y-48252678D01*
X121320107Y-48124107D01*
X121229630Y-47995535D01*
X121048678Y-47609821D01*
X120958202Y-47095535D01*
X120958202Y-46066964D01*
X121048678Y-45809821D01*
X121139154Y-45681250D01*
X121320107Y-45552678D01*
X121682011Y-45552678D01*
X121862964Y-45681250D01*
X121953440Y-45809821D01*
X122043916Y-46066964D01*
X122043916Y-46709821D01*
X121953440Y-46966964D01*
X121862964Y-47095535D01*
X121682011Y-47224107D01*
X121320107Y-47224107D01*
X121139154Y-47095535D01*
X121048678Y-46966964D01*
X120958202Y-46709821D01*
X119329630Y-48252678D02*
X119329630Y-45552678D01*
X119329630Y-48124107D02*
X119510583Y-48252678D01*
X119872488Y-48252678D01*
X120053440Y-48124107D01*
X120143916Y-47995535D01*
X120234392Y-47738392D01*
X120234392Y-46966964D01*
X120143916Y-46709821D01*
X120053440Y-46581250D01*
X119872488Y-46452678D01*
X119510583Y-46452678D01*
X119329630Y-46581250D01*
X118696297Y-46452678D02*
X117972488Y-46452678D01*
X118424869Y-48252678D02*
X118424869Y-45938392D01*
X118334392Y-45681250D01*
X118153440Y-45552678D01*
X117972488Y-45552678D01*
X115891535Y-47224107D02*
X114443916Y-47224107D01*
X111548678Y-49281250D02*
X111639154Y-49152678D01*
X111820107Y-48766964D01*
X111910583Y-48509821D01*
X112001059Y-48124107D01*
X112091535Y-47481250D01*
X112091535Y-46966964D01*
X112001059Y-46324107D01*
X111910583Y-45938392D01*
X111820107Y-45681250D01*
X111639154Y-45295535D01*
X111548678Y-45166964D01*
X109377250Y-48252678D02*
X109377250Y-46452678D01*
X109377250Y-45552678D02*
X109467726Y-45681250D01*
X109377250Y-45809821D01*
X109286773Y-45681250D01*
X109377250Y-45552678D01*
X109377250Y-45809821D01*
X107024869Y-46452678D02*
X105577250Y-47224107D01*
X107024869Y-47995535D01*
X104672488Y-46452678D02*
X103224869Y-47224107D01*
X104672488Y-47995535D01*
X99877250Y-48252678D02*
X100962964Y-48252678D01*
X100420107Y-48252678D02*
X100420107Y-45552678D01*
X100601059Y-45938392D01*
X100782011Y-46195535D01*
X100962964Y-46324107D01*
X97796297Y-49281250D02*
X97705821Y-49152678D01*
X97524869Y-48766964D01*
X97434392Y-48509821D01*
X97343916Y-48124107D01*
X97253440Y-47481250D01*
X97253440Y-46966964D01*
X97343916Y-46324107D01*
X97434392Y-45938392D01*
X97524869Y-45681250D01*
X97705821Y-45295535D01*
X97796297Y-45166964D01*
X96258202Y-48124107D02*
X96258202Y-48252678D01*
X96348678Y-48509821D01*
X96439154Y-48638392D01*
X96348678Y-46581250D02*
X96258202Y-46709821D01*
X96348678Y-46838392D01*
X96439154Y-46709821D01*
X96348678Y-46581250D01*
X96348678Y-46838392D01*
X92639154Y-45424107D02*
X94267726Y-48895535D01*
X90648678Y-45424107D02*
X92277250Y-48895535D01*
X88748678Y-46452678D02*
X88386773Y-48252678D01*
X88024869Y-46966964D01*
X87662964Y-48252678D01*
X87301059Y-46452678D01*
X86577250Y-48252678D02*
X86577250Y-45552678D01*
X85762964Y-48252678D02*
X85762964Y-46838392D01*
X85853440Y-46581250D01*
X86034392Y-46452678D01*
X86305821Y-46452678D01*
X86486773Y-46581250D01*
X86577250Y-46709821D01*
X84043916Y-48252678D02*
X84043916Y-46838392D01*
X84134392Y-46581250D01*
X84315345Y-46452678D01*
X84677250Y-46452678D01*
X84858202Y-46581250D01*
X84043916Y-48124107D02*
X84224869Y-48252678D01*
X84677250Y-48252678D01*
X84858202Y-48124107D01*
X84948678Y-47866964D01*
X84948678Y-47609821D01*
X84858202Y-47352678D01*
X84677250Y-47224107D01*
X84224869Y-47224107D01*
X84043916Y-47095535D01*
X83410583Y-46452678D02*
X82686773Y-46452678D01*
X83139154Y-45552678D02*
X83139154Y-47866964D01*
X83048678Y-48124107D01*
X82867726Y-48252678D01*
X82686773Y-48252678D01*
X80877250Y-46452678D02*
X80153440Y-46452678D01*
X80605821Y-45552678D02*
X80605821Y-47866964D01*
X80515345Y-48124107D01*
X80334392Y-48252678D01*
X80153440Y-48252678D01*
X79520107Y-48252678D02*
X79520107Y-45552678D01*
X78705821Y-48252678D02*
X78705821Y-46838392D01*
X78796297Y-46581250D01*
X78977250Y-46452678D01*
X79248678Y-46452678D01*
X79429630Y-46581250D01*
X79520107Y-46709821D01*
X77077250Y-48124107D02*
X77258202Y-48252678D01*
X77620107Y-48252678D01*
X77801059Y-48124107D01*
X77891535Y-47866964D01*
X77891535Y-46838392D01*
X77801059Y-46581250D01*
X77620107Y-46452678D01*
X77258202Y-46452678D01*
X77077250Y-46581250D01*
X76986773Y-46838392D01*
X76986773Y-47095535D01*
X77891535Y-47352678D01*
X74996297Y-46452678D02*
X74272488Y-46452678D01*
X74724869Y-48252678D02*
X74724869Y-45938392D01*
X74634392Y-45681250D01*
X74453440Y-45552678D01*
X74272488Y-45552678D01*
X72824869Y-46452678D02*
X72824869Y-48252678D01*
X73639154Y-46452678D02*
X73639154Y-47866964D01*
X73548678Y-48124107D01*
X73367726Y-48252678D01*
X73096297Y-48252678D01*
X72915345Y-48124107D01*
X72824869Y-47995535D01*
X71105821Y-48124107D02*
X71286773Y-48252678D01*
X71648678Y-48252678D01*
X71829630Y-48124107D01*
X71920107Y-47995535D01*
X72010583Y-47738392D01*
X72010583Y-46966964D01*
X71920107Y-46709821D01*
X71829630Y-46581250D01*
X71648678Y-46452678D01*
X71286773Y-46452678D01*
X71105821Y-46581250D01*
X70291535Y-48252678D02*
X70291535Y-45552678D01*
X70110583Y-47224107D02*
X69567726Y-48252678D01*
X69567726Y-46452678D02*
X70291535Y-47481250D01*
X68482011Y-47995535D02*
X68391535Y-48124107D01*
X68482011Y-48252678D01*
X68572488Y-48124107D01*
X68482011Y-47995535D01*
X68482011Y-48252678D01*
X68843916Y-45681250D02*
X68662964Y-45552678D01*
X68210583Y-45552678D01*
X68029630Y-45681250D01*
X67939154Y-45938392D01*
X67939154Y-46195535D01*
X68029630Y-46452678D01*
X68120107Y-46581250D01*
X68301059Y-46709821D01*
X68391535Y-46838392D01*
X68482011Y-47095535D01*
X68482011Y-47224107D01*
X141405821Y-50977678D02*
X140953440Y-52777678D01*
X140501059Y-50977678D02*
X140953440Y-52777678D01*
X141134392Y-53420535D01*
X141224869Y-53549107D01*
X141405821Y-53677678D01*
X136882011Y-51363392D02*
X135434392Y-51363392D01*
X135434392Y-52134821D02*
X136882011Y-52134821D01*
X132810583Y-50077678D02*
X132810583Y-50720535D01*
X133262964Y-50463392D02*
X132810583Y-50720535D01*
X132358202Y-50463392D01*
X133082011Y-51234821D02*
X132810583Y-50720535D01*
X132539154Y-51234821D01*
X129643916Y-53806250D02*
X129734392Y-53677678D01*
X129915345Y-53291964D01*
X130005821Y-53034821D01*
X130096297Y-52649107D01*
X130186773Y-52006250D01*
X130186773Y-51491964D01*
X130096297Y-50849107D01*
X130005821Y-50463392D01*
X129915345Y-50206250D01*
X129734392Y-49820535D01*
X129643916Y-49691964D01*
X127743916Y-50977678D02*
X127020107Y-50977678D01*
X127472488Y-52777678D02*
X127472488Y-50463392D01*
X127382011Y-50206250D01*
X127201059Y-50077678D01*
X127020107Y-50077678D01*
X126115345Y-52777678D02*
X126296297Y-52649107D01*
X126386773Y-52391964D01*
X126386773Y-50077678D01*
X125120107Y-52777678D02*
X125301059Y-52649107D01*
X125391535Y-52520535D01*
X125482011Y-52263392D01*
X125482011Y-51491964D01*
X125391535Y-51234821D01*
X125301059Y-51106250D01*
X125120107Y-50977678D01*
X124848678Y-50977678D01*
X124667726Y-51106250D01*
X124577250Y-51234821D01*
X124486773Y-51491964D01*
X124486773Y-52263392D01*
X124577250Y-52520535D01*
X124667726Y-52649107D01*
X124848678Y-52777678D01*
X125120107Y-52777678D01*
X122858202Y-52777678D02*
X122858202Y-51363392D01*
X122948678Y-51106250D01*
X123129630Y-50977678D01*
X123491535Y-50977678D01*
X123672488Y-51106250D01*
X122858202Y-52649107D02*
X123039154Y-52777678D01*
X123491535Y-52777678D01*
X123672488Y-52649107D01*
X123762964Y-52391964D01*
X123762964Y-52134821D01*
X123672488Y-51877678D01*
X123491535Y-51749107D01*
X123039154Y-51749107D01*
X122858202Y-51620535D01*
X122224869Y-50977678D02*
X121501059Y-50977678D01*
X121953440Y-50077678D02*
X121953440Y-52391964D01*
X121862964Y-52649107D01*
X121682011Y-52777678D01*
X121501059Y-52777678D01*
X119148678Y-50077678D02*
X119148678Y-50720535D01*
X119601059Y-50463392D02*
X119148678Y-50720535D01*
X118696297Y-50463392D01*
X119420107Y-51234821D02*
X119148678Y-50720535D01*
X118877250Y-51234821D01*
X116705821Y-53806250D02*
X116615345Y-53677678D01*
X116434392Y-53291964D01*
X116343916Y-53034821D01*
X116253440Y-52649107D01*
X116162964Y-52006250D01*
X116162964Y-51491964D01*
X116253440Y-50849107D01*
X116343916Y-50463392D01*
X116434392Y-50206250D01*
X116615345Y-49820535D01*
X116705821Y-49691964D01*
X112272488Y-52777678D02*
X112362964Y-52777678D01*
X112543916Y-52649107D01*
X112815345Y-52263392D01*
X113267726Y-51491964D01*
X113448678Y-51106250D01*
X113539154Y-50720535D01*
X113539154Y-50463392D01*
X113448678Y-50206250D01*
X113267726Y-50077678D01*
X113177250Y-50077678D01*
X112996297Y-50206250D01*
X112905821Y-50463392D01*
X112905821Y-50591964D01*
X112996297Y-50849107D01*
X113086773Y-50977678D01*
X113629630Y-51491964D01*
X113720107Y-51620535D01*
X113810583Y-51877678D01*
X113810583Y-52263392D01*
X113720107Y-52520535D01*
X113629630Y-52649107D01*
X113448678Y-52777678D01*
X113177250Y-52777678D01*
X112996297Y-52649107D01*
X112905821Y-52520535D01*
X112634392Y-52006250D01*
X112543916Y-51620535D01*
X112543916Y-51363392D01*
X111458202Y-52777678D02*
X111458202Y-50977678D01*
X111458202Y-50077678D02*
X111548678Y-50206250D01*
X111458202Y-50334821D01*
X111367726Y-50206250D01*
X111458202Y-50077678D01*
X111458202Y-50334821D01*
X110462964Y-52649107D02*
X110462964Y-52777678D01*
X110553440Y-53034821D01*
X110643916Y-53163392D01*
X110553440Y-51106250D02*
X110462964Y-51234821D01*
X110553440Y-51363392D01*
X110643916Y-51234821D01*
X110553440Y-51106250D01*
X110553440Y-51363392D01*
X141405821Y-55502678D02*
X140953440Y-57302678D01*
X140501059Y-55502678D02*
X140953440Y-57302678D01*
X141134392Y-57945535D01*
X141224869Y-58074107D01*
X141405821Y-58202678D01*
X136882011Y-55888392D02*
X135434392Y-55888392D01*
X135434392Y-56659821D02*
X136882011Y-56659821D01*
X133262964Y-55502678D02*
X132810583Y-57302678D01*
X132358202Y-55502678D02*
X132810583Y-57302678D01*
X132991535Y-57945535D01*
X133082011Y-58074107D01*
X133262964Y-58202678D01*
X129915345Y-54602678D02*
X129915345Y-55245535D01*
X130367726Y-54988392D02*
X129915345Y-55245535D01*
X129462964Y-54988392D01*
X130186773Y-55759821D02*
X129915345Y-55245535D01*
X129643916Y-55759821D01*
X126748678Y-58331250D02*
X126839154Y-58202678D01*
X127020107Y-57816964D01*
X127110583Y-57559821D01*
X127201059Y-57174107D01*
X127291535Y-56531250D01*
X127291535Y-56016964D01*
X127201059Y-55374107D01*
X127110583Y-54988392D01*
X127020107Y-54731250D01*
X126839154Y-54345535D01*
X126748678Y-54216964D01*
X124848678Y-55502678D02*
X124124869Y-55502678D01*
X124577250Y-54602678D02*
X124577250Y-56916964D01*
X124486773Y-57174107D01*
X124305821Y-57302678D01*
X124124869Y-57302678D01*
X123491535Y-57302678D02*
X123491535Y-54602678D01*
X122677250Y-57302678D02*
X122677250Y-55888392D01*
X122767726Y-55631250D01*
X122948678Y-55502678D01*
X123220107Y-55502678D01*
X123401059Y-55631250D01*
X123491535Y-55759821D01*
X121772488Y-57302678D02*
X121772488Y-55502678D01*
X121772488Y-56016964D02*
X121682011Y-55759821D01*
X121591535Y-55631250D01*
X121410583Y-55502678D01*
X121229630Y-55502678D01*
X119872488Y-57174107D02*
X120053440Y-57302678D01*
X120415345Y-57302678D01*
X120596297Y-57174107D01*
X120686773Y-56916964D01*
X120686773Y-55888392D01*
X120596297Y-55631250D01*
X120415345Y-55502678D01*
X120053440Y-55502678D01*
X119872488Y-55631250D01*
X119782011Y-55888392D01*
X119782011Y-56145535D01*
X120686773Y-56402678D01*
X118243916Y-57174107D02*
X118424869Y-57302678D01*
X118786773Y-57302678D01*
X118967726Y-57174107D01*
X119058202Y-56916964D01*
X119058202Y-55888392D01*
X118967726Y-55631250D01*
X118786773Y-55502678D01*
X118424869Y-55502678D01*
X118243916Y-55631250D01*
X118153440Y-55888392D01*
X118153440Y-56145535D01*
X119058202Y-56402678D01*
X117339154Y-57302678D02*
X117339154Y-54602678D01*
X116524869Y-57302678D02*
X116524869Y-55888392D01*
X116615345Y-55631250D01*
X116796297Y-55502678D01*
X117067726Y-55502678D01*
X117248678Y-55631250D01*
X117339154Y-55759821D01*
X114805821Y-57302678D02*
X114805821Y-55888392D01*
X114896297Y-55631250D01*
X115077250Y-55502678D01*
X115439154Y-55502678D01*
X115620107Y-55631250D01*
X114805821Y-57174107D02*
X114986773Y-57302678D01*
X115439154Y-57302678D01*
X115620107Y-57174107D01*
X115710583Y-56916964D01*
X115710583Y-56659821D01*
X115620107Y-56402678D01*
X115439154Y-56274107D01*
X114986773Y-56274107D01*
X114805821Y-56145535D01*
X113629630Y-57302678D02*
X113810583Y-57174107D01*
X113901059Y-56916964D01*
X113901059Y-54602678D01*
X113177250Y-55502678D02*
X112453440Y-55502678D01*
X112905821Y-57302678D02*
X112905821Y-54988392D01*
X112815345Y-54731250D01*
X112634392Y-54602678D01*
X112453440Y-54602678D01*
X111910583Y-57174107D02*
X111729630Y-57302678D01*
X111367726Y-57302678D01*
X111186773Y-57174107D01*
X111096297Y-56916964D01*
X111096297Y-56788392D01*
X111186773Y-56531250D01*
X111367726Y-56402678D01*
X111639154Y-56402678D01*
X111820107Y-56274107D01*
X111910583Y-56016964D01*
X111910583Y-55888392D01*
X111820107Y-55631250D01*
X111639154Y-55502678D01*
X111367726Y-55502678D01*
X111186773Y-55631250D01*
X108834392Y-56274107D02*
X107386773Y-56274107D01*
X104491535Y-58331250D02*
X104582011Y-58202678D01*
X104762964Y-57816964D01*
X104853440Y-57559821D01*
X104943916Y-57174107D01*
X105034392Y-56531250D01*
X105034392Y-56016964D01*
X104943916Y-55374107D01*
X104853440Y-54988392D01*
X104762964Y-54731250D01*
X104582011Y-54345535D01*
X104491535Y-54216964D01*
X102501059Y-57302678D02*
X101505821Y-55502678D01*
X102501059Y-55502678D02*
X101505821Y-57302678D01*
X100872488Y-54859821D02*
X100782011Y-54731250D01*
X100601059Y-54602678D01*
X100148678Y-54602678D01*
X99967726Y-54731250D01*
X99877250Y-54859821D01*
X99786773Y-55116964D01*
X99786773Y-55374107D01*
X99877250Y-55759821D01*
X100962964Y-57302678D01*
X99786773Y-57302678D01*
X97253440Y-54602678D02*
X97253440Y-55245535D01*
X97705821Y-54988392D02*
X97253440Y-55245535D01*
X96801059Y-54988392D01*
X97524869Y-55759821D02*
X97253440Y-55245535D01*
X96982011Y-55759821D01*
X94810583Y-55502678D02*
X94358202Y-57302678D01*
X93905821Y-55502678D02*
X94358202Y-57302678D01*
X94539154Y-57945535D01*
X94629630Y-58074107D01*
X94810583Y-58202678D01*
X91462964Y-54602678D02*
X91462964Y-55245535D01*
X91915345Y-54988392D02*
X91462964Y-55245535D01*
X91010583Y-54988392D01*
X91734392Y-55759821D02*
X91462964Y-55245535D01*
X91191535Y-55759821D01*
X89020107Y-55502678D02*
X88567726Y-57302678D01*
X88115345Y-55502678D02*
X88567726Y-57302678D01*
X88748678Y-57945535D01*
X88839154Y-58074107D01*
X89020107Y-58202678D01*
X86124869Y-58331250D02*
X86034392Y-58202678D01*
X85853440Y-57816964D01*
X85762964Y-57559821D01*
X85672488Y-57174107D01*
X85582011Y-56531250D01*
X85582011Y-56016964D01*
X85672488Y-55374107D01*
X85762964Y-54988392D01*
X85853440Y-54731250D01*
X86034392Y-54345535D01*
X86124869Y-54216964D01*
X83410583Y-58331250D02*
X83320107Y-58202678D01*
X83139154Y-57816964D01*
X83048678Y-57559821D01*
X82958202Y-57174107D01*
X82867726Y-56531250D01*
X82867726Y-56016964D01*
X82958202Y-55374107D01*
X83048678Y-54988392D01*
X83139154Y-54731250D01*
X83320107Y-54345535D01*
X83410583Y-54216964D01*
X81872488Y-57174107D02*
X81872488Y-57302678D01*
X81962964Y-57559821D01*
X82053440Y-57688392D01*
X81962964Y-55631250D02*
X81872488Y-55759821D01*
X81962964Y-55888392D01*
X82053440Y-55759821D01*
X81962964Y-55631250D01*
X81962964Y-55888392D01*
D11*
X152921428Y-52249428D02*
X154421428Y-52249428D01*
X154421428Y-51792285D01*
X154350000Y-51678000D01*
X154278571Y-51620857D01*
X154135714Y-51563714D01*
X153921428Y-51563714D01*
X153778571Y-51620857D01*
X153707142Y-51678000D01*
X153635714Y-51792285D01*
X153635714Y-52249428D01*
X152921428Y-51049428D02*
X153921428Y-51049428D01*
X153635714Y-51049428D02*
X153778571Y-50992285D01*
X153850000Y-50935142D01*
X153921428Y-50820857D01*
X153921428Y-50706571D01*
X152921428Y-50135142D02*
X152992857Y-50249428D01*
X153064285Y-50306571D01*
X153207142Y-50363714D01*
X153635714Y-50363714D01*
X153778571Y-50306571D01*
X153850000Y-50249428D01*
X153921428Y-50135142D01*
X153921428Y-49963714D01*
X153850000Y-49849428D01*
X153778571Y-49792285D01*
X153635714Y-49735142D01*
X153207142Y-49735142D01*
X153064285Y-49792285D01*
X152992857Y-49849428D01*
X152921428Y-49963714D01*
X152921428Y-50135142D01*
X152921428Y-48306571D02*
X154421428Y-48306571D01*
X153350000Y-47906571D01*
X154421428Y-47506571D01*
X152921428Y-47506571D01*
X152921428Y-46935142D02*
X153921428Y-46935142D01*
X154421428Y-46935142D02*
X154350000Y-46992285D01*
X154278571Y-46935142D01*
X154350000Y-46878000D01*
X154421428Y-46935142D01*
X154278571Y-46935142D01*
X152992857Y-45849428D02*
X152921428Y-45963714D01*
X152921428Y-46192285D01*
X152992857Y-46306571D01*
X153064285Y-46363714D01*
X153207142Y-46420857D01*
X153635714Y-46420857D01*
X153778571Y-46363714D01*
X153850000Y-46306571D01*
X153921428Y-46192285D01*
X153921428Y-45963714D01*
X153850000Y-45849428D01*
X152921428Y-45335142D02*
X153921428Y-45335142D01*
X153635714Y-45335142D02*
X153778571Y-45278000D01*
X153850000Y-45220857D01*
X153921428Y-45106571D01*
X153921428Y-44992285D01*
X152921428Y-44420857D02*
X152992857Y-44535142D01*
X153064285Y-44592285D01*
X153207142Y-44649428D01*
X153635714Y-44649428D01*
X153778571Y-44592285D01*
X153850000Y-44535142D01*
X153921428Y-44420857D01*
X153921428Y-44249428D01*
X153850000Y-44135142D01*
X153778571Y-44078000D01*
X153635714Y-44020857D01*
X153207142Y-44020857D01*
X153064285Y-44078000D01*
X152992857Y-44135142D01*
X152921428Y-44249428D01*
X152921428Y-44420857D01*
X152921428Y-42592285D02*
X154421428Y-42592285D01*
X152921428Y-42078000D02*
X153707142Y-42078000D01*
X153850000Y-42135142D01*
X153921428Y-42249428D01*
X153921428Y-42420857D01*
X153850000Y-42535142D01*
X153778571Y-42592285D01*
X152992857Y-41049428D02*
X152921428Y-41163714D01*
X152921428Y-41392285D01*
X152992857Y-41506571D01*
X153135714Y-41563714D01*
X153707142Y-41563714D01*
X153850000Y-41506571D01*
X153921428Y-41392285D01*
X153921428Y-41163714D01*
X153850000Y-41049428D01*
X153707142Y-40992285D01*
X153564285Y-40992285D01*
X153421428Y-41563714D01*
X152921428Y-40478000D02*
X153921428Y-40478000D01*
X153635714Y-40478000D02*
X153778571Y-40420857D01*
X153850000Y-40363714D01*
X153921428Y-40249428D01*
X153921428Y-40135142D01*
X152992857Y-39278000D02*
X152921428Y-39392285D01*
X152921428Y-39620857D01*
X152992857Y-39735142D01*
X153135714Y-39792285D01*
X153707142Y-39792285D01*
X153850000Y-39735142D01*
X153921428Y-39620857D01*
X153921428Y-39392285D01*
X153850000Y-39278000D01*
X153707142Y-39220857D01*
X153564285Y-39220857D01*
X153421428Y-39792285D01*
X152350000Y-37449428D02*
X152421428Y-37506571D01*
X152635714Y-37620857D01*
X152778571Y-37678000D01*
X152992857Y-37735142D01*
X153350000Y-37792285D01*
X153635714Y-37792285D01*
X153992857Y-37735142D01*
X154207142Y-37678000D01*
X154350000Y-37620857D01*
X154564285Y-37506571D01*
X154635714Y-37449428D01*
X153921428Y-37163714D02*
X153921428Y-36706571D01*
X152921428Y-36992285D02*
X154207142Y-36992285D01*
X154350000Y-36935142D01*
X154421428Y-36820857D01*
X154421428Y-36706571D01*
X152921428Y-35792285D02*
X153707142Y-35792285D01*
X153850000Y-35849428D01*
X153921428Y-35963714D01*
X153921428Y-36192285D01*
X153850000Y-36306571D01*
X152992857Y-35792285D02*
X152921428Y-35906571D01*
X152921428Y-36192285D01*
X152992857Y-36306571D01*
X153135714Y-36363714D01*
X153278571Y-36363714D01*
X153421428Y-36306571D01*
X153492857Y-36192285D01*
X153492857Y-35906571D01*
X153564285Y-35792285D01*
X152992857Y-34706571D02*
X152921428Y-34820857D01*
X152921428Y-35049428D01*
X152992857Y-35163714D01*
X153064285Y-35220857D01*
X153207142Y-35278000D01*
X153635714Y-35278000D01*
X153778571Y-35220857D01*
X153850000Y-35163714D01*
X153921428Y-35049428D01*
X153921428Y-34820857D01*
X153850000Y-34706571D01*
X152992857Y-33735142D02*
X152921428Y-33849428D01*
X152921428Y-34078000D01*
X152992857Y-34192285D01*
X153135714Y-34249428D01*
X153707142Y-34249428D01*
X153850000Y-34192285D01*
X153921428Y-34078000D01*
X153921428Y-33849428D01*
X153850000Y-33735142D01*
X153707142Y-33678000D01*
X153564285Y-33678000D01*
X153421428Y-34249428D01*
X152921428Y-31735142D02*
X154421428Y-31735142D01*
X152992857Y-31735142D02*
X152921428Y-31849428D01*
X152921428Y-32078000D01*
X152992857Y-32192285D01*
X153064285Y-32249428D01*
X153207142Y-32306571D01*
X153635714Y-32306571D01*
X153778571Y-32249428D01*
X153850000Y-32192285D01*
X153921428Y-32078000D01*
X153921428Y-31849428D01*
X153850000Y-31735142D01*
X152921428Y-30992285D02*
X152992857Y-31106571D01*
X153064285Y-31163714D01*
X153207142Y-31220857D01*
X153635714Y-31220857D01*
X153778571Y-31163714D01*
X153850000Y-31106571D01*
X153921428Y-30992285D01*
X153921428Y-30820857D01*
X153850000Y-30706571D01*
X153778571Y-30649428D01*
X153635714Y-30592285D01*
X153207142Y-30592285D01*
X153064285Y-30649428D01*
X152992857Y-30706571D01*
X152921428Y-30820857D01*
X152921428Y-30992285D01*
X153921428Y-30192285D02*
X152921428Y-29963714D01*
X153635714Y-29735142D01*
X152921428Y-29506571D01*
X153921428Y-29278000D01*
X153921428Y-28820857D02*
X152921428Y-28820857D01*
X153778571Y-28820857D02*
X153850000Y-28763714D01*
X153921428Y-28649428D01*
X153921428Y-28478000D01*
X153850000Y-28363714D01*
X153707142Y-28306571D01*
X152921428Y-28306571D01*
X152350000Y-27849428D02*
X152421428Y-27792285D01*
X152635714Y-27678000D01*
X152778571Y-27620857D01*
X152992857Y-27563714D01*
X153350000Y-27506571D01*
X153635714Y-27506571D01*
X153992857Y-27563714D01*
X154207142Y-27620857D01*
X154350000Y-27678000D01*
X154564285Y-27792285D01*
X154635714Y-27849428D01*
X151521428Y-50535142D02*
X151521428Y-50078000D01*
X150521428Y-50363714D02*
X151807142Y-50363714D01*
X151950000Y-50306571D01*
X152021428Y-50192285D01*
X152021428Y-50078000D01*
X150521428Y-49506571D02*
X150592857Y-49620857D01*
X150664285Y-49678000D01*
X150807142Y-49735142D01*
X151235714Y-49735142D01*
X151378571Y-49678000D01*
X151450000Y-49620857D01*
X151521428Y-49506571D01*
X151521428Y-49335142D01*
X151450000Y-49220857D01*
X151378571Y-49163714D01*
X151235714Y-49106571D01*
X150807142Y-49106571D01*
X150664285Y-49163714D01*
X150592857Y-49220857D01*
X150521428Y-49335142D01*
X150521428Y-49506571D01*
X150521428Y-48592285D02*
X151521428Y-48592285D01*
X151235714Y-48592285D02*
X151378571Y-48535142D01*
X151450000Y-48478000D01*
X151521428Y-48363714D01*
X151521428Y-48249428D01*
X150521428Y-46363714D02*
X150521428Y-46935142D01*
X152021428Y-46935142D01*
X151307142Y-45963714D02*
X151307142Y-45563714D01*
X150521428Y-45392285D02*
X150521428Y-45963714D01*
X152021428Y-45963714D01*
X152021428Y-45392285D01*
X151307142Y-44478000D02*
X151307142Y-44878000D01*
X150521428Y-44878000D02*
X152021428Y-44878000D01*
X152021428Y-44306571D01*
X152021428Y-44020857D02*
X152021428Y-43335142D01*
X150521428Y-43678000D02*
X152021428Y-43678000D01*
X150521428Y-42020857D02*
X152021428Y-42020857D01*
X151307142Y-42020857D02*
X151307142Y-41335142D01*
X150521428Y-41335142D02*
X152021428Y-41335142D01*
X150950000Y-40820857D02*
X150950000Y-40249428D01*
X150521428Y-40935142D02*
X152021428Y-40535142D01*
X150521428Y-40135142D01*
X150521428Y-39735142D02*
X152021428Y-39735142D01*
X150521428Y-39049428D01*
X152021428Y-39049428D01*
X150521428Y-38478000D02*
X152021428Y-38478000D01*
X152021428Y-38192285D01*
X151950000Y-38020857D01*
X151807142Y-37906571D01*
X151664285Y-37849428D01*
X151378571Y-37792285D01*
X151164285Y-37792285D01*
X150878571Y-37849428D01*
X150735714Y-37906571D01*
X150592857Y-38020857D01*
X150521428Y-38192285D01*
X150521428Y-38478000D01*
X152021428Y-36535142D02*
X150521428Y-36135142D01*
X152021428Y-35735142D01*
X151307142Y-35335142D02*
X151307142Y-34935142D01*
X150521428Y-34763714D02*
X150521428Y-35335142D01*
X152021428Y-35335142D01*
X152021428Y-34763714D01*
X150521428Y-33563714D02*
X151235714Y-33963714D01*
X150521428Y-34249428D02*
X152021428Y-34249428D01*
X152021428Y-33792285D01*
X151950000Y-33678000D01*
X151878571Y-33620857D01*
X151735714Y-33563714D01*
X151521428Y-33563714D01*
X151378571Y-33620857D01*
X151307142Y-33678000D01*
X151235714Y-33792285D01*
X151235714Y-34249428D01*
X150592857Y-33106571D02*
X150521428Y-32935142D01*
X150521428Y-32649428D01*
X150592857Y-32535142D01*
X150664285Y-32478000D01*
X150807142Y-32420857D01*
X150950000Y-32420857D01*
X151092857Y-32478000D01*
X151164285Y-32535142D01*
X151235714Y-32649428D01*
X151307142Y-32878000D01*
X151378571Y-32992285D01*
X151450000Y-33049428D01*
X151592857Y-33106571D01*
X151735714Y-33106571D01*
X151878571Y-33049428D01*
X151950000Y-32992285D01*
X152021428Y-32878000D01*
X152021428Y-32592285D01*
X151950000Y-32420857D01*
X150521428Y-31906571D02*
X152021428Y-31906571D01*
X152021428Y-31106571D02*
X152021428Y-30878000D01*
X151950000Y-30763714D01*
X151807142Y-30649428D01*
X151521428Y-30592285D01*
X151021428Y-30592285D01*
X150735714Y-30649428D01*
X150592857Y-30763714D01*
X150521428Y-30878000D01*
X150521428Y-31106571D01*
X150592857Y-31220857D01*
X150735714Y-31335142D01*
X151021428Y-31392285D01*
X151521428Y-31392285D01*
X151807142Y-31335142D01*
X151950000Y-31220857D01*
X152021428Y-31106571D01*
X150521428Y-30078000D02*
X152021428Y-30078000D01*
X150521428Y-29392285D01*
X152021428Y-29392285D01*
X152184476Y-80208380D02*
X152184476Y-79208380D01*
X151803523Y-79208380D01*
X151708285Y-79256000D01*
X151660666Y-79303619D01*
X151613047Y-79398857D01*
X151613047Y-79541714D01*
X151660666Y-79636952D01*
X151708285Y-79684571D01*
X151803523Y-79732190D01*
X152184476Y-79732190D01*
X151184476Y-80208380D02*
X151184476Y-79541714D01*
X151184476Y-79208380D02*
X151232095Y-79256000D01*
X151184476Y-79303619D01*
X151136857Y-79256000D01*
X151184476Y-79208380D01*
X151184476Y-79303619D01*
X150708285Y-80208380D02*
X150708285Y-79541714D01*
X150708285Y-79636952D02*
X150660666Y-79589333D01*
X150565428Y-79541714D01*
X150422571Y-79541714D01*
X150327333Y-79589333D01*
X150279714Y-79684571D01*
X150279714Y-80208380D01*
X150279714Y-79684571D02*
X150232095Y-79589333D01*
X150136857Y-79541714D01*
X149994000Y-79541714D01*
X149898761Y-79589333D01*
X149851142Y-79684571D01*
X149851142Y-80208380D01*
X148994000Y-80160761D02*
X149089238Y-80208380D01*
X149279714Y-80208380D01*
X149374952Y-80160761D01*
X149422571Y-80065523D01*
X149422571Y-79684571D01*
X149374952Y-79589333D01*
X149279714Y-79541714D01*
X149089238Y-79541714D01*
X148994000Y-79589333D01*
X148946380Y-79684571D01*
X148946380Y-79779809D01*
X149422571Y-79875047D01*
X148517809Y-79541714D02*
X148517809Y-80208380D01*
X148517809Y-79636952D02*
X148470190Y-79589333D01*
X148374952Y-79541714D01*
X148232095Y-79541714D01*
X148136857Y-79589333D01*
X148089238Y-79684571D01*
X148089238Y-80208380D01*
X147755904Y-79541714D02*
X147374952Y-79541714D01*
X147613047Y-79208380D02*
X147613047Y-80065523D01*
X147565428Y-80160761D01*
X147470190Y-80208380D01*
X147374952Y-80208380D01*
X146898761Y-80208380D02*
X146994000Y-80160761D01*
X147041619Y-80113142D01*
X147089238Y-80017904D01*
X147089238Y-79732190D01*
X147041619Y-79636952D01*
X146994000Y-79589333D01*
X146898761Y-79541714D01*
X146755904Y-79541714D01*
X146660666Y-79589333D01*
X146613047Y-79636952D01*
X146565428Y-79732190D01*
X146565428Y-80017904D01*
X146613047Y-80113142D01*
X146660666Y-80160761D01*
X146755904Y-80208380D01*
X146898761Y-80208380D01*
X146184476Y-80160761D02*
X146089238Y-80208380D01*
X145898761Y-80208380D01*
X145803523Y-80160761D01*
X145755904Y-80065523D01*
X145755904Y-80017904D01*
X145803523Y-79922666D01*
X145898761Y-79875047D01*
X146041619Y-79875047D01*
X146136857Y-79827428D01*
X146184476Y-79732190D01*
X146184476Y-79684571D01*
X146136857Y-79589333D01*
X146041619Y-79541714D01*
X145898761Y-79541714D01*
X145803523Y-79589333D01*
X145184476Y-80208380D02*
X145279714Y-80160761D01*
X145327333Y-80113142D01*
X145374952Y-80017904D01*
X145374952Y-79732190D01*
X145327333Y-79636952D01*
X145279714Y-79589333D01*
X145184476Y-79541714D01*
X145041619Y-79541714D01*
X144946380Y-79589333D01*
X144898761Y-79636952D01*
X144851142Y-79732190D01*
X144851142Y-80017904D01*
X144898761Y-80113142D01*
X144946380Y-80160761D01*
X145041619Y-80208380D01*
X145184476Y-80208380D01*
X143660666Y-80208380D02*
X143660666Y-79208380D01*
X143232095Y-80208380D02*
X143232095Y-79684571D01*
X143279714Y-79589333D01*
X143374952Y-79541714D01*
X143517809Y-79541714D01*
X143613047Y-79589333D01*
X143660666Y-79636952D01*
X142327333Y-80208380D02*
X142327333Y-79684571D01*
X142374952Y-79589333D01*
X142470190Y-79541714D01*
X142660666Y-79541714D01*
X142755904Y-79589333D01*
X142327333Y-80160761D02*
X142422571Y-80208380D01*
X142660666Y-80208380D01*
X142755904Y-80160761D01*
X142803523Y-80065523D01*
X142803523Y-79970285D01*
X142755904Y-79875047D01*
X142660666Y-79827428D01*
X142422571Y-79827428D01*
X142327333Y-79779809D01*
X141851142Y-80208380D02*
X141851142Y-79541714D01*
X141851142Y-79732190D02*
X141803523Y-79636952D01*
X141755904Y-79589333D01*
X141660666Y-79541714D01*
X141565428Y-79541714D01*
X140803523Y-80208380D02*
X140803523Y-79208380D01*
X140803523Y-80160761D02*
X140898761Y-80208380D01*
X141089238Y-80208380D01*
X141184476Y-80160761D01*
X141232095Y-80113142D01*
X141279714Y-80017904D01*
X141279714Y-79732190D01*
X141232095Y-79636952D01*
X141184476Y-79589333D01*
X141089238Y-79541714D01*
X140898761Y-79541714D01*
X140803523Y-79589333D01*
X140422571Y-79541714D02*
X140232095Y-80208380D01*
X140041619Y-79732190D01*
X139851142Y-80208380D01*
X139660666Y-79541714D01*
X138851142Y-80208380D02*
X138851142Y-79684571D01*
X138898761Y-79589333D01*
X138994000Y-79541714D01*
X139184476Y-79541714D01*
X139279714Y-79589333D01*
X138851142Y-80160761D02*
X138946380Y-80208380D01*
X139184476Y-80208380D01*
X139279714Y-80160761D01*
X139327333Y-80065523D01*
X139327333Y-79970285D01*
X139279714Y-79875047D01*
X139184476Y-79827428D01*
X138946380Y-79827428D01*
X138851142Y-79779809D01*
X138374952Y-80208380D02*
X138374952Y-79541714D01*
X138374952Y-79732190D02*
X138327333Y-79636952D01*
X138279714Y-79589333D01*
X138184476Y-79541714D01*
X138089238Y-79541714D01*
X137374952Y-80160761D02*
X137470190Y-80208380D01*
X137660666Y-80208380D01*
X137755904Y-80160761D01*
X137803523Y-80065523D01*
X137803523Y-79684571D01*
X137755904Y-79589333D01*
X137660666Y-79541714D01*
X137470190Y-79541714D01*
X137374952Y-79589333D01*
X137327333Y-79684571D01*
X137327333Y-79779809D01*
X137803523Y-79875047D01*
X136184476Y-79303619D02*
X136136857Y-79256000D01*
X136041619Y-79208380D01*
X135803523Y-79208380D01*
X135708285Y-79256000D01*
X135660666Y-79303619D01*
X135613047Y-79398857D01*
X135613047Y-79494095D01*
X135660666Y-79636952D01*
X136232095Y-80208380D01*
X135613047Y-80208380D01*
X134994000Y-79208380D02*
X134898761Y-79208380D01*
X134803523Y-79256000D01*
X134755904Y-79303619D01*
X134708285Y-79398857D01*
X134660666Y-79589333D01*
X134660666Y-79827428D01*
X134708285Y-80017904D01*
X134755904Y-80113142D01*
X134803523Y-80160761D01*
X134898761Y-80208380D01*
X134994000Y-80208380D01*
X135089238Y-80160761D01*
X135136857Y-80113142D01*
X135184476Y-80017904D01*
X135232095Y-79827428D01*
X135232095Y-79589333D01*
X135184476Y-79398857D01*
X135136857Y-79303619D01*
X135089238Y-79256000D01*
X134994000Y-79208380D01*
X133708285Y-80208380D02*
X134279714Y-80208380D01*
X133994000Y-80208380D02*
X133994000Y-79208380D01*
X134089238Y-79351238D01*
X134184476Y-79446476D01*
X134279714Y-79494095D01*
X133232095Y-80208380D02*
X133041619Y-80208380D01*
X132946380Y-80160761D01*
X132898761Y-80113142D01*
X132803523Y-79970285D01*
X132755904Y-79779809D01*
X132755904Y-79398857D01*
X132803523Y-79303619D01*
X132851142Y-79256000D01*
X132946380Y-79208380D01*
X133136857Y-79208380D01*
X133232095Y-79256000D01*
X133279714Y-79303619D01*
X133327333Y-79398857D01*
X133327333Y-79636952D01*
X133279714Y-79732190D01*
X133232095Y-79779809D01*
X133136857Y-79827428D01*
X132946380Y-79827428D01*
X132851142Y-79779809D01*
X132803523Y-79732190D01*
X132755904Y-79636952D01*
X145400000Y-64437500D02*
X146400000Y-64437500D01*
X158400000Y-64437500D02*
X159400000Y-64437500D01*
X159400000Y-64437500D02*
X159400000Y-65437500D01*
X159400000Y-78437500D02*
X158400000Y-78437500D01*
X159400000Y-77437500D02*
X159400000Y-78437500D01*
X146400000Y-78437500D02*
X145400000Y-78437500D01*
X145400000Y-78437500D02*
X145400000Y-77437500D01*
X145400000Y-65437500D02*
X145400000Y-64437500D01*
X126350000Y-64437500D02*
X127350000Y-64437500D01*
X139350000Y-64437500D02*
X140350000Y-64437500D01*
X140350000Y-64437500D02*
X140350000Y-65437500D01*
X140350000Y-78437500D02*
X139350000Y-78437500D01*
X140350000Y-77437500D02*
X140350000Y-78437500D01*
X127350000Y-78437500D02*
X126350000Y-78437500D01*
X126350000Y-78437500D02*
X126350000Y-77437500D01*
X126350000Y-65437500D02*
X126350000Y-64437500D01*
X126350000Y-35862500D02*
X127350000Y-35862500D01*
X139350000Y-35862500D02*
X140350000Y-35862500D01*
X140350000Y-35862500D02*
X140350000Y-36862500D01*
X140350000Y-49862500D02*
X139350000Y-49862500D01*
X140350000Y-48862500D02*
X140350000Y-49862500D01*
X127350000Y-49862500D02*
X126350000Y-49862500D01*
X126350000Y-49862500D02*
X126350000Y-48862500D01*
X126350000Y-36862500D02*
X126350000Y-35862500D01*
X107300000Y-31100000D02*
X108300000Y-31100000D01*
X120300000Y-31100000D02*
X121300000Y-31100000D01*
X121300000Y-31100000D02*
X121300000Y-32100000D01*
X121300000Y-45100000D02*
X120300000Y-45100000D01*
X121300000Y-44100000D02*
X121300000Y-45100000D01*
X108300000Y-45100000D02*
X107300000Y-45100000D01*
X107300000Y-45100000D02*
X107300000Y-44100000D01*
X107300000Y-32100000D02*
X107300000Y-31100000D01*
X88250000Y-35862500D02*
X89250000Y-35862500D01*
X101250000Y-35862500D02*
X102250000Y-35862500D01*
X102250000Y-35862500D02*
X102250000Y-36862500D01*
X102250000Y-49862500D02*
X101250000Y-49862500D01*
X102250000Y-48862500D02*
X102250000Y-49862500D01*
X89250000Y-49862500D02*
X88250000Y-49862500D01*
X88250000Y-49862500D02*
X88250000Y-48862500D01*
X88250000Y-36862500D02*
X88250000Y-35862500D01*
X69200000Y-40625000D02*
X70200000Y-40625000D01*
X82200000Y-40625000D02*
X83200000Y-40625000D01*
X83200000Y-40625000D02*
X83200000Y-41625000D01*
X83200000Y-54625000D02*
X82200000Y-54625000D01*
X83200000Y-53625000D02*
X83200000Y-54625000D01*
X70200000Y-54625000D02*
X69200000Y-54625000D01*
X69200000Y-54625000D02*
X69200000Y-53625000D01*
X69200000Y-41625000D02*
X69200000Y-40625000D01*
X126350000Y-16812500D02*
X127350000Y-16812500D01*
X139350000Y-16812500D02*
X140350000Y-16812500D01*
X140350000Y-16812500D02*
X140350000Y-17812500D01*
X140350000Y-30812500D02*
X139350000Y-30812500D01*
X140350000Y-29812500D02*
X140350000Y-30812500D01*
X127350000Y-30812500D02*
X126350000Y-30812500D01*
X126350000Y-30812500D02*
X126350000Y-29812500D01*
X126350000Y-17812500D02*
X126350000Y-16812500D01*
X107300000Y-12050000D02*
X108300000Y-12050000D01*
X120300000Y-12050000D02*
X121300000Y-12050000D01*
X121300000Y-12050000D02*
X121300000Y-13050000D01*
X121300000Y-26050000D02*
X120300000Y-26050000D01*
X121300000Y-25050000D02*
X121300000Y-26050000D01*
X108300000Y-26050000D02*
X107300000Y-26050000D01*
X107300000Y-26050000D02*
X107300000Y-25050000D01*
X107300000Y-13050000D02*
X107300000Y-12050000D01*
X88250000Y-16812500D02*
X89250000Y-16812500D01*
X101250000Y-16812500D02*
X102250000Y-16812500D01*
X102250000Y-16812500D02*
X102250000Y-17812500D01*
X102250000Y-30812500D02*
X101250000Y-30812500D01*
X102250000Y-29812500D02*
X102250000Y-30812500D01*
X89250000Y-30812500D02*
X88250000Y-30812500D01*
X88250000Y-30812500D02*
X88250000Y-29812500D01*
X88250000Y-17812500D02*
X88250000Y-16812500D01*
X69200000Y-21575000D02*
X70200000Y-21575000D01*
X82200000Y-21575000D02*
X83200000Y-21575000D01*
X83200000Y-21575000D02*
X83200000Y-22575000D01*
X83200000Y-35575000D02*
X82200000Y-35575000D01*
X83200000Y-34575000D02*
X83200000Y-35575000D01*
X70200000Y-35575000D02*
X69200000Y-35575000D01*
X69200000Y-35575000D02*
X69200000Y-34575000D01*
X69200000Y-22575000D02*
X69200000Y-21575000D01*
D12*
X146050000Y-22860000D02*
X143510000Y-22860000D01*
X161290000Y-20320000D02*
X143510000Y-20320000D01*
X143510000Y-20320000D02*
X143510000Y-53340000D01*
X143510000Y-53340000D02*
X161290000Y-53340000D01*
X161290000Y-53340000D02*
X161290000Y-20320000D01*
D11*
G36*
X158244635Y-28749030D02*
G01*
X158244635Y-28849030D01*
X158744635Y-28849030D01*
X158744635Y-28749030D01*
X158244635Y-28749030D01*
G37*
X158244635Y-28749030D02*
X158244635Y-28849030D01*
X158744635Y-28849030D01*
X158744635Y-28749030D01*
X158244635Y-28749030D01*
G36*
X158244635Y-28749030D02*
G01*
X158244635Y-29049030D01*
X158344635Y-29049030D01*
X158344635Y-28749030D01*
X158244635Y-28749030D01*
G37*
X158244635Y-28749030D02*
X158244635Y-29049030D01*
X158344635Y-29049030D01*
X158344635Y-28749030D01*
X158244635Y-28749030D01*
G36*
X158244635Y-29349030D02*
G01*
X158244635Y-29549030D01*
X158344635Y-29549030D01*
X158344635Y-29349030D01*
X158244635Y-29349030D01*
G37*
X158244635Y-29349030D02*
X158244635Y-29549030D01*
X158344635Y-29549030D01*
X158344635Y-29349030D01*
X158244635Y-29349030D01*
G36*
X158644635Y-28749030D02*
G01*
X158644635Y-29549030D01*
X158744635Y-29549030D01*
X158744635Y-28749030D01*
X158644635Y-28749030D01*
G37*
X158644635Y-28749030D02*
X158644635Y-29549030D01*
X158744635Y-29549030D01*
X158744635Y-28749030D01*
X158644635Y-28749030D01*
G36*
X158444635Y-29149030D02*
G01*
X158444635Y-29249030D01*
X158544635Y-29249030D01*
X158544635Y-29149030D01*
X158444635Y-29149030D01*
G37*
X158444635Y-29149030D02*
X158444635Y-29249030D01*
X158544635Y-29249030D01*
X158544635Y-29149030D01*
X158444635Y-29149030D01*
D12*
X146050000Y-22860000D02*
X146050000Y-25400000D01*
X146050000Y-25400000D02*
X143510000Y-25400000D01*
D11*
X157973333Y-29513809D02*
X157859047Y-29551904D01*
X157668571Y-29551904D01*
X157592380Y-29513809D01*
X157554285Y-29475714D01*
X157516190Y-29399523D01*
X157516190Y-29323333D01*
X157554285Y-29247142D01*
X157592380Y-29209047D01*
X157668571Y-29170952D01*
X157820952Y-29132857D01*
X157897142Y-29094761D01*
X157935238Y-29056666D01*
X157973333Y-28980476D01*
X157973333Y-28904285D01*
X157935238Y-28828095D01*
X157897142Y-28790000D01*
X157820952Y-28751904D01*
X157630476Y-28751904D01*
X157516190Y-28790000D01*
X157287619Y-28751904D02*
X156830476Y-28751904D01*
X157059047Y-29551904D02*
X157059047Y-28751904D01*
X151018604Y-23691904D02*
X150561461Y-23691904D01*
X150790032Y-24491904D02*
X150790032Y-23691904D01*
X150370985Y-23691904D02*
X149837651Y-24491904D01*
X149837651Y-23691904D02*
X150370985Y-24491904D01*
X149380508Y-23691904D02*
X149304318Y-23691904D01*
X149228128Y-23730000D01*
X149190032Y-23768095D01*
X149151937Y-23844285D01*
X149113842Y-23996666D01*
X149113842Y-24187142D01*
X149151937Y-24339523D01*
X149190032Y-24415714D01*
X149228128Y-24453809D01*
X149304318Y-24491904D01*
X149380508Y-24491904D01*
X149456699Y-24453809D01*
X149494794Y-24415714D01*
X149532889Y-24339523D01*
X149570985Y-24187142D01*
X149570985Y-23996666D01*
X149532889Y-23844285D01*
X149494794Y-23768095D01*
X149456699Y-23730000D01*
X149380508Y-23691904D01*
X148199556Y-23653809D02*
X148885270Y-24682380D01*
X147932889Y-24491904D02*
X147932889Y-23691904D01*
X147742413Y-23691904D01*
X147628128Y-23730000D01*
X147551937Y-23806190D01*
X147513842Y-23882380D01*
X147475747Y-24034761D01*
X147475747Y-24149047D01*
X147513842Y-24301428D01*
X147551937Y-24377619D01*
X147628128Y-24453809D01*
X147742413Y-24491904D01*
X147932889Y-24491904D01*
X147209080Y-23691904D02*
X146713842Y-23691904D01*
X146980508Y-23996666D01*
X146866223Y-23996666D01*
X146790032Y-24034761D01*
X146751937Y-24072857D01*
X146713842Y-24149047D01*
X146713842Y-24339523D01*
X146751937Y-24415714D01*
X146790032Y-24453809D01*
X146866223Y-24491904D01*
X147094794Y-24491904D01*
X147170985Y-24453809D01*
X147209080Y-24415714D01*
X158184809Y-49472857D02*
X158070523Y-49510952D01*
X158032428Y-49549047D01*
X157994333Y-49625238D01*
X157994333Y-49739523D01*
X158032428Y-49815714D01*
X158070523Y-49853809D01*
X158146714Y-49891904D01*
X158451476Y-49891904D01*
X158451476Y-49091904D01*
X158184809Y-49091904D01*
X158108619Y-49130000D01*
X158070523Y-49168095D01*
X158032428Y-49244285D01*
X158032428Y-49320476D01*
X158070523Y-49396666D01*
X158108619Y-49434761D01*
X158184809Y-49472857D01*
X158451476Y-49472857D01*
X157689571Y-49168095D02*
X157651476Y-49130000D01*
X157575285Y-49091904D01*
X157384809Y-49091904D01*
X157308619Y-49130000D01*
X157270523Y-49168095D01*
X157232428Y-49244285D01*
X157232428Y-49320476D01*
X157270523Y-49434761D01*
X157727666Y-49891904D01*
X157232428Y-49891904D01*
X158127666Y-41852857D02*
X158394333Y-41852857D01*
X158394333Y-42271904D02*
X158394333Y-41471904D01*
X158013380Y-41471904D01*
X157784809Y-41471904D02*
X157251476Y-41471904D01*
X157594333Y-42271904D01*
X158127666Y-39312857D02*
X158394333Y-39312857D01*
X158394333Y-39731904D02*
X158394333Y-38931904D01*
X158013380Y-38931904D01*
X157365761Y-38931904D02*
X157518142Y-38931904D01*
X157594333Y-38970000D01*
X157632428Y-39008095D01*
X157708619Y-39122380D01*
X157746714Y-39274761D01*
X157746714Y-39579523D01*
X157708619Y-39655714D01*
X157670523Y-39693809D01*
X157594333Y-39731904D01*
X157441952Y-39731904D01*
X157365761Y-39693809D01*
X157327666Y-39655714D01*
X157289571Y-39579523D01*
X157289571Y-39389047D01*
X157327666Y-39312857D01*
X157365761Y-39274761D01*
X157441952Y-39236666D01*
X157594333Y-39236666D01*
X157670523Y-39274761D01*
X157708619Y-39312857D01*
X157746714Y-39389047D01*
X158127666Y-36772857D02*
X158394333Y-36772857D01*
X158394333Y-37191904D02*
X158394333Y-36391904D01*
X158013380Y-36391904D01*
X157327666Y-36391904D02*
X157708619Y-36391904D01*
X157746714Y-36772857D01*
X157708619Y-36734761D01*
X157632428Y-36696666D01*
X157441952Y-36696666D01*
X157365761Y-36734761D01*
X157327666Y-36772857D01*
X157289571Y-36849047D01*
X157289571Y-37039523D01*
X157327666Y-37115714D01*
X157365761Y-37153809D01*
X157441952Y-37191904D01*
X157632428Y-37191904D01*
X157708619Y-37153809D01*
X157746714Y-37115714D01*
X158413380Y-24491904D02*
X158680047Y-24110952D01*
X158870523Y-24491904D02*
X158870523Y-23691904D01*
X158565761Y-23691904D01*
X158489571Y-23730000D01*
X158451476Y-23768095D01*
X158413380Y-23844285D01*
X158413380Y-23958571D01*
X158451476Y-24034761D01*
X158489571Y-24072857D01*
X158565761Y-24110952D01*
X158870523Y-24110952D01*
X158108619Y-24263333D02*
X157727666Y-24263333D01*
X158184809Y-24491904D02*
X157918142Y-23691904D01*
X157651476Y-24491904D01*
X157461000Y-23691904D02*
X157270523Y-24491904D01*
X157118142Y-23920476D01*
X156965761Y-24491904D01*
X156775285Y-23691904D01*
X158470523Y-26270000D02*
X158546714Y-26231904D01*
X158661000Y-26231904D01*
X158775285Y-26270000D01*
X158851476Y-26346190D01*
X158889571Y-26422380D01*
X158927666Y-26574761D01*
X158927666Y-26689047D01*
X158889571Y-26841428D01*
X158851476Y-26917619D01*
X158775285Y-26993809D01*
X158661000Y-27031904D01*
X158584809Y-27031904D01*
X158470523Y-26993809D01*
X158432428Y-26955714D01*
X158432428Y-26689047D01*
X158584809Y-26689047D01*
X158089571Y-27031904D02*
X158089571Y-26231904D01*
X157632428Y-27031904D01*
X157632428Y-26231904D01*
X157251476Y-27031904D02*
X157251476Y-26231904D01*
X157061000Y-26231904D01*
X156946714Y-26270000D01*
X156870523Y-26346190D01*
X156832428Y-26422380D01*
X156794333Y-26574761D01*
X156794333Y-26689047D01*
X156832428Y-26841428D01*
X156870523Y-26917619D01*
X156946714Y-26993809D01*
X157061000Y-27031904D01*
X157251476Y-27031904D01*
X158927666Y-31311904D02*
X158661000Y-32111904D01*
X158394333Y-31311904D01*
X157670523Y-32035714D02*
X157708619Y-32073809D01*
X157822904Y-32111904D01*
X157899095Y-32111904D01*
X158013380Y-32073809D01*
X158089571Y-31997619D01*
X158127666Y-31921428D01*
X158165761Y-31769047D01*
X158165761Y-31654761D01*
X158127666Y-31502380D01*
X158089571Y-31426190D01*
X158013380Y-31350000D01*
X157899095Y-31311904D01*
X157822904Y-31311904D01*
X157708619Y-31350000D01*
X157670523Y-31388095D01*
X156870523Y-32035714D02*
X156908619Y-32073809D01*
X157022904Y-32111904D01*
X157099095Y-32111904D01*
X157213380Y-32073809D01*
X157289571Y-31997619D01*
X157327666Y-31921428D01*
X157365761Y-31769047D01*
X157365761Y-31654761D01*
X157327666Y-31502380D01*
X157289571Y-31426190D01*
X157213380Y-31350000D01*
X157099095Y-31311904D01*
X157022904Y-31311904D01*
X156908619Y-31350000D01*
X156870523Y-31388095D01*
X158127666Y-34232857D02*
X158394333Y-34232857D01*
X158394333Y-34651904D02*
X158394333Y-33851904D01*
X158013380Y-33851904D01*
X157365761Y-34118571D02*
X157365761Y-34651904D01*
X157556238Y-33813809D02*
X157746714Y-34385238D01*
X157251476Y-34385238D01*
X158184809Y-44392857D02*
X158070523Y-44430952D01*
X158032428Y-44469047D01*
X157994333Y-44545238D01*
X157994333Y-44659523D01*
X158032428Y-44735714D01*
X158070523Y-44773809D01*
X158146714Y-44811904D01*
X158451476Y-44811904D01*
X158451476Y-44011904D01*
X158184809Y-44011904D01*
X158108619Y-44050000D01*
X158070523Y-44088095D01*
X158032428Y-44164285D01*
X158032428Y-44240476D01*
X158070523Y-44316666D01*
X158108619Y-44354761D01*
X158184809Y-44392857D01*
X158451476Y-44392857D01*
X157232428Y-44811904D02*
X157689571Y-44811904D01*
X157461000Y-44811904D02*
X157461000Y-44011904D01*
X157537190Y-44126190D01*
X157613380Y-44202380D01*
X157689571Y-44240476D01*
X158184809Y-46932857D02*
X158070523Y-46970952D01*
X158032428Y-47009047D01*
X157994333Y-47085238D01*
X157994333Y-47199523D01*
X158032428Y-47275714D01*
X158070523Y-47313809D01*
X158146714Y-47351904D01*
X158451476Y-47351904D01*
X158451476Y-46551904D01*
X158184809Y-46551904D01*
X158108619Y-46590000D01*
X158070523Y-46628095D01*
X158032428Y-46704285D01*
X158032428Y-46780476D01*
X158070523Y-46856666D01*
X158108619Y-46894761D01*
X158184809Y-46932857D01*
X158451476Y-46932857D01*
X157727666Y-46551904D02*
X157232428Y-46551904D01*
X157499095Y-46856666D01*
X157384809Y-46856666D01*
X157308619Y-46894761D01*
X157270523Y-46932857D01*
X157232428Y-47009047D01*
X157232428Y-47199523D01*
X157270523Y-47275714D01*
X157308619Y-47313809D01*
X157384809Y-47351904D01*
X157613380Y-47351904D01*
X157689571Y-47313809D01*
X157727666Y-47275714D01*
X158184809Y-52012857D02*
X158070523Y-52050952D01*
X158032428Y-52089047D01*
X157994333Y-52165238D01*
X157994333Y-52279523D01*
X158032428Y-52355714D01*
X158070523Y-52393809D01*
X158146714Y-52431904D01*
X158451476Y-52431904D01*
X158451476Y-51631904D01*
X158184809Y-51631904D01*
X158108619Y-51670000D01*
X158070523Y-51708095D01*
X158032428Y-51784285D01*
X158032428Y-51860476D01*
X158070523Y-51936666D01*
X158108619Y-51974761D01*
X158184809Y-52012857D01*
X158451476Y-52012857D01*
X157308619Y-51631904D02*
X157461000Y-51631904D01*
X157537190Y-51670000D01*
X157575285Y-51708095D01*
X157651476Y-51822380D01*
X157689571Y-51974761D01*
X157689571Y-52279523D01*
X157651476Y-52355714D01*
X157613380Y-52393809D01*
X157537190Y-52431904D01*
X157384809Y-52431904D01*
X157308619Y-52393809D01*
X157270523Y-52355714D01*
X157232428Y-52279523D01*
X157232428Y-52089047D01*
X157270523Y-52012857D01*
X157308619Y-51974761D01*
X157384809Y-51936666D01*
X157537190Y-51936666D01*
X157613380Y-51974761D01*
X157651476Y-52012857D01*
X157689571Y-52089047D01*
X147262809Y-52012857D02*
X147148523Y-52050952D01*
X147110428Y-52089047D01*
X147072333Y-52165238D01*
X147072333Y-52279523D01*
X147110428Y-52355714D01*
X147148523Y-52393809D01*
X147224714Y-52431904D01*
X147529476Y-52431904D01*
X147529476Y-51631904D01*
X147262809Y-51631904D01*
X147186619Y-51670000D01*
X147148523Y-51708095D01*
X147110428Y-51784285D01*
X147110428Y-51860476D01*
X147148523Y-51936666D01*
X147186619Y-51974761D01*
X147262809Y-52012857D01*
X147529476Y-52012857D01*
X146348523Y-51631904D02*
X146729476Y-51631904D01*
X146767571Y-52012857D01*
X146729476Y-51974761D01*
X146653285Y-51936666D01*
X146462809Y-51936666D01*
X146386619Y-51974761D01*
X146348523Y-52012857D01*
X146310428Y-52089047D01*
X146310428Y-52279523D01*
X146348523Y-52355714D01*
X146386619Y-52393809D01*
X146462809Y-52431904D01*
X146653285Y-52431904D01*
X146729476Y-52393809D01*
X146767571Y-52355714D01*
X147262809Y-49472857D02*
X147148523Y-49510952D01*
X147110428Y-49549047D01*
X147072333Y-49625238D01*
X147072333Y-49739523D01*
X147110428Y-49815714D01*
X147148523Y-49853809D01*
X147224714Y-49891904D01*
X147529476Y-49891904D01*
X147529476Y-49091904D01*
X147262809Y-49091904D01*
X147186619Y-49130000D01*
X147148523Y-49168095D01*
X147110428Y-49244285D01*
X147110428Y-49320476D01*
X147148523Y-49396666D01*
X147186619Y-49434761D01*
X147262809Y-49472857D01*
X147529476Y-49472857D01*
X146386619Y-49358571D02*
X146386619Y-49891904D01*
X146577095Y-49053809D02*
X146767571Y-49625238D01*
X146272333Y-49625238D01*
X147491380Y-46932857D02*
X147224714Y-46932857D01*
X147110428Y-47351904D02*
X147491380Y-47351904D01*
X147491380Y-46551904D01*
X147110428Y-46551904D01*
X146424714Y-46551904D02*
X146577095Y-46551904D01*
X146653285Y-46590000D01*
X146691380Y-46628095D01*
X146767571Y-46742380D01*
X146805666Y-46894761D01*
X146805666Y-47199523D01*
X146767571Y-47275714D01*
X146729476Y-47313809D01*
X146653285Y-47351904D01*
X146500904Y-47351904D01*
X146424714Y-47313809D01*
X146386619Y-47275714D01*
X146348523Y-47199523D01*
X146348523Y-47009047D01*
X146386619Y-46932857D01*
X146424714Y-46894761D01*
X146500904Y-46856666D01*
X146653285Y-46856666D01*
X146729476Y-46894761D01*
X146767571Y-46932857D01*
X146805666Y-47009047D01*
X147529476Y-44811904D02*
X147529476Y-44011904D01*
X147339000Y-44011904D01*
X147224714Y-44050000D01*
X147148523Y-44126190D01*
X147110428Y-44202380D01*
X147072333Y-44354761D01*
X147072333Y-44469047D01*
X147110428Y-44621428D01*
X147148523Y-44697619D01*
X147224714Y-44773809D01*
X147339000Y-44811904D01*
X147529476Y-44811904D01*
X146805666Y-44011904D02*
X146272333Y-44011904D01*
X146615190Y-44811904D01*
X147072333Y-42195714D02*
X147110428Y-42233809D01*
X147224714Y-42271904D01*
X147300904Y-42271904D01*
X147415190Y-42233809D01*
X147491380Y-42157619D01*
X147529476Y-42081428D01*
X147567571Y-41929047D01*
X147567571Y-41814761D01*
X147529476Y-41662380D01*
X147491380Y-41586190D01*
X147415190Y-41510000D01*
X147300904Y-41471904D01*
X147224714Y-41471904D01*
X147110428Y-41510000D01*
X147072333Y-41548095D01*
X146386619Y-41471904D02*
X146539000Y-41471904D01*
X146615190Y-41510000D01*
X146653285Y-41548095D01*
X146729476Y-41662380D01*
X146767571Y-41814761D01*
X146767571Y-42119523D01*
X146729476Y-42195714D01*
X146691380Y-42233809D01*
X146615190Y-42271904D01*
X146462809Y-42271904D01*
X146386619Y-42233809D01*
X146348523Y-42195714D01*
X146310428Y-42119523D01*
X146310428Y-41929047D01*
X146348523Y-41852857D01*
X146386619Y-41814761D01*
X146462809Y-41776666D01*
X146615190Y-41776666D01*
X146691380Y-41814761D01*
X146729476Y-41852857D01*
X146767571Y-41929047D01*
X147529476Y-39731904D02*
X147529476Y-38931904D01*
X147339000Y-38931904D01*
X147224714Y-38970000D01*
X147148523Y-39046190D01*
X147110428Y-39122380D01*
X147072333Y-39274761D01*
X147072333Y-39389047D01*
X147110428Y-39541428D01*
X147148523Y-39617619D01*
X147224714Y-39693809D01*
X147339000Y-39731904D01*
X147529476Y-39731904D01*
X146386619Y-39198571D02*
X146386619Y-39731904D01*
X146577095Y-38893809D02*
X146767571Y-39465238D01*
X146272333Y-39465238D01*
X147548523Y-28810000D02*
X147624714Y-28771904D01*
X147739000Y-28771904D01*
X147853285Y-28810000D01*
X147929476Y-28886190D01*
X147967571Y-28962380D01*
X148005666Y-29114761D01*
X148005666Y-29229047D01*
X147967571Y-29381428D01*
X147929476Y-29457619D01*
X147853285Y-29533809D01*
X147739000Y-29571904D01*
X147662809Y-29571904D01*
X147548523Y-29533809D01*
X147510428Y-29495714D01*
X147510428Y-29229047D01*
X147662809Y-29229047D01*
X147167571Y-29571904D02*
X147167571Y-28771904D01*
X146710428Y-29571904D01*
X146710428Y-28771904D01*
X146329476Y-29571904D02*
X146329476Y-28771904D01*
X146139000Y-28771904D01*
X146024714Y-28810000D01*
X145948523Y-28886190D01*
X145910428Y-28962380D01*
X145872333Y-29114761D01*
X145872333Y-29229047D01*
X145910428Y-29381428D01*
X145948523Y-29457619D01*
X146024714Y-29533809D01*
X146139000Y-29571904D01*
X146329476Y-29571904D01*
X147548523Y-31350000D02*
X147624714Y-31311904D01*
X147739000Y-31311904D01*
X147853285Y-31350000D01*
X147929476Y-31426190D01*
X147967571Y-31502380D01*
X148005666Y-31654761D01*
X148005666Y-31769047D01*
X147967571Y-31921428D01*
X147929476Y-31997619D01*
X147853285Y-32073809D01*
X147739000Y-32111904D01*
X147662809Y-32111904D01*
X147548523Y-32073809D01*
X147510428Y-32035714D01*
X147510428Y-31769047D01*
X147662809Y-31769047D01*
X147167571Y-32111904D02*
X147167571Y-31311904D01*
X146710428Y-32111904D01*
X146710428Y-31311904D01*
X146329476Y-32111904D02*
X146329476Y-31311904D01*
X146139000Y-31311904D01*
X146024714Y-31350000D01*
X145948523Y-31426190D01*
X145910428Y-31502380D01*
X145872333Y-31654761D01*
X145872333Y-31769047D01*
X145910428Y-31921428D01*
X145948523Y-31997619D01*
X146024714Y-32073809D01*
X146139000Y-32111904D01*
X146329476Y-32111904D01*
X147529476Y-34651904D02*
X147529476Y-33851904D01*
X147339000Y-33851904D01*
X147224714Y-33890000D01*
X147148523Y-33966190D01*
X147110428Y-34042380D01*
X147072333Y-34194761D01*
X147072333Y-34309047D01*
X147110428Y-34461428D01*
X147148523Y-34537619D01*
X147224714Y-34613809D01*
X147339000Y-34651904D01*
X147529476Y-34651904D01*
X146310428Y-34651904D02*
X146767571Y-34651904D01*
X146539000Y-34651904D02*
X146539000Y-33851904D01*
X146615190Y-33966190D01*
X146691380Y-34042380D01*
X146767571Y-34080476D01*
X147529476Y-37191904D02*
X147529476Y-36391904D01*
X147339000Y-36391904D01*
X147224714Y-36430000D01*
X147148523Y-36506190D01*
X147110428Y-36582380D01*
X147072333Y-36734761D01*
X147072333Y-36849047D01*
X147110428Y-37001428D01*
X147148523Y-37077619D01*
X147224714Y-37153809D01*
X147339000Y-37191904D01*
X147529476Y-37191904D01*
X146577095Y-36391904D02*
X146500904Y-36391904D01*
X146424714Y-36430000D01*
X146386619Y-36468095D01*
X146348523Y-36544285D01*
X146310428Y-36696666D01*
X146310428Y-36887142D01*
X146348523Y-37039523D01*
X146386619Y-37115714D01*
X146424714Y-37153809D01*
X146500904Y-37191904D01*
X146577095Y-37191904D01*
X146653285Y-37153809D01*
X146691380Y-37115714D01*
X146729476Y-37039523D01*
X146767571Y-36887142D01*
X146767571Y-36696666D01*
X146729476Y-36544285D01*
X146691380Y-36468095D01*
X146653285Y-36430000D01*
X146577095Y-36391904D01*
X147529476Y-27031904D02*
X147529476Y-26231904D01*
X147339000Y-26231904D01*
X147224714Y-26270000D01*
X147148523Y-26346190D01*
X147110428Y-26422380D01*
X147072333Y-26574761D01*
X147072333Y-26689047D01*
X147110428Y-26841428D01*
X147148523Y-26917619D01*
X147224714Y-26993809D01*
X147339000Y-27031904D01*
X147529476Y-27031904D01*
X146767571Y-26308095D02*
X146729476Y-26270000D01*
X146653285Y-26231904D01*
X146462809Y-26231904D01*
X146386619Y-26270000D01*
X146348523Y-26308095D01*
X146310428Y-26384285D01*
X146310428Y-26460476D01*
X146348523Y-26574761D01*
X146805666Y-27031904D01*
X146310428Y-27031904D01*
%LPC*%
D13*
X147320000Y-71437500D03*
X157480000Y-71437500D03*
D14*
X148590000Y-68897500D03*
D15*
X152400000Y-71437500D03*
D14*
X154940000Y-66357500D03*
X149860000Y-66357500D03*
X156210000Y-68897500D03*
D13*
X128270000Y-71437500D03*
X138430000Y-71437500D03*
D14*
X129540000Y-68897500D03*
D15*
X133350000Y-71437500D03*
D14*
X135890000Y-66357500D03*
X130810000Y-66357500D03*
X137160000Y-68897500D03*
D13*
X128270000Y-42862500D03*
X138430000Y-42862500D03*
D14*
X129540000Y-40322500D03*
D15*
X133350000Y-42862500D03*
D14*
X135890000Y-37782500D03*
X130810000Y-37782500D03*
X137160000Y-40322500D03*
D13*
X109220000Y-38100000D03*
X119380000Y-38100000D03*
D14*
X110490000Y-35560000D03*
D15*
X114300000Y-38100000D03*
D14*
X116840000Y-33020000D03*
X111760000Y-33020000D03*
X118110000Y-35560000D03*
D13*
X90170000Y-42862500D03*
X100330000Y-42862500D03*
D14*
X91440000Y-40322500D03*
D15*
X95250000Y-42862500D03*
D14*
X97790000Y-37782500D03*
X92710000Y-37782500D03*
X99060000Y-40322500D03*
D13*
X71120000Y-47625000D03*
X81280000Y-47625000D03*
D14*
X72390000Y-45085000D03*
D15*
X76200000Y-47625000D03*
D14*
X78740000Y-42545000D03*
X73660000Y-42545000D03*
X80010000Y-45085000D03*
D13*
X128270000Y-23812500D03*
X138430000Y-23812500D03*
D14*
X129540000Y-21272500D03*
D15*
X133350000Y-23812500D03*
D14*
X135890000Y-18732500D03*
X130810000Y-18732500D03*
X137160000Y-21272500D03*
D13*
X109220000Y-19050000D03*
X119380000Y-19050000D03*
D14*
X110490000Y-16510000D03*
D15*
X114300000Y-19050000D03*
D14*
X116840000Y-13970000D03*
X111760000Y-13970000D03*
X118110000Y-16510000D03*
D13*
X90170000Y-23812500D03*
X100330000Y-23812500D03*
D14*
X91440000Y-21272500D03*
D15*
X95250000Y-23812500D03*
D14*
X97790000Y-18732500D03*
X92710000Y-18732500D03*
X99060000Y-21272500D03*
D13*
X71120000Y-28575000D03*
X81280000Y-28575000D03*
D14*
X72390000Y-26035000D03*
D15*
X76200000Y-28575000D03*
D14*
X78740000Y-23495000D03*
X73660000Y-23495000D03*
X80010000Y-26035000D03*
D16*
X157638750Y-61912500D03*
D17*
X150018750Y-61912500D03*
D16*
X138588750Y-61912500D03*
D17*
X130968750Y-61912500D03*
D16*
X138588750Y-52387500D03*
D17*
X130968750Y-52387500D03*
D16*
X119538750Y-47625000D03*
D17*
X111918750Y-47625000D03*
D16*
X100488750Y-52387500D03*
D17*
X92868750Y-52387500D03*
D16*
X81438750Y-57150000D03*
D17*
X73818750Y-57150000D03*
D16*
X138588750Y-33337500D03*
D17*
X130968750Y-33337500D03*
D16*
X119538750Y-28575000D03*
D17*
X111918750Y-28575000D03*
D16*
X100488750Y-33337500D03*
D17*
X92868750Y-33337500D03*
D16*
X81438750Y-38100000D03*
D17*
X73818750Y-38100000D03*
D18*
X160020000Y-24130000D03*
X144780000Y-52070000D03*
X160020000Y-26670000D03*
X160020000Y-29210000D03*
X160020000Y-31750000D03*
X160020000Y-34290000D03*
X160020000Y-36830000D03*
X160020000Y-39370000D03*
X160020000Y-41910000D03*
X160020000Y-44450000D03*
X160020000Y-46990000D03*
X160020000Y-49530000D03*
X160020000Y-52070000D03*
X144780000Y-49530000D03*
X144780000Y-46990000D03*
X144780000Y-44450000D03*
X144780000Y-41910000D03*
X144780000Y-39370000D03*
X144780000Y-36830000D03*
X144780000Y-34290000D03*
X144780000Y-31750000D03*
X144780000Y-29210000D03*
X144780000Y-26670000D03*
D19*
X144780000Y-24130000D03*
D20*
X85725000Y-45243750D03*
X123825000Y-40481250D03*
X142875000Y-71437500D03*
X123825000Y-21431250D03*
X85725000Y-26193750D03*
M02*
